<svg xmlns="http://www.w3.org/2000/svg" viewBox="0 0 347.99 260.72"><defs><style>.cls-1{fill:#224a56;}</style></defs><title>Asset 17</title><g id="Layer_2" data-name="Layer 2"><g id="Layer_1-2" data-name="Layer 1"><path class="cls-1" d="M157.87,237.58c-2-.77-4-1.86-6-2.17-1-.15-2.56.9-3.35,1.84-.32.38.46,2.27,1.22,2.86,2.35,1.83,2,3.55,0,5.12-2.31,1.84-4.82,3.44-7.24,5.14l-.83-.78c.65-1.37,1.36-2.72,2-4.12,1.64-3.85.08-7.33-3.72-8.89-.77-.31-1.21-1.42-1.79-2.18-1-1.3-1.71-3.16-3-3.83a39.61,39.61,0,0,1-20.58-24.31c-1.18-3.72-5.74-5-9.09-3-1.94,1.18-4.23,1.79-6.26,2.84a16.76,16.76,0,0,0-4.43,2.94c-1.41,1.45-2.58,1.79-3.57,0-2.34-4.34-6.72-4.29-10.62-4.93-3-.48-6,2.8-6.21,5.91-.1,1.53.11,3.84-.75,4.41-2,1.37-4.71,2.8-7,2.61-4.06-.34-7.3.13-9.75,3.63a5.1,5.1,0,0,1-2,1.42c-3.64,1.8-5.76,4.13-3.94,8.56.7,1.73-.63,2.3-2.13,3.53-3.89,3.21-9.41,2.66-13.48,6.49-3.26-.88-7.15-2-11.1-2.95s-7.62,2.45-11.88,1.08c2.4-5-.17-9-5-9.59-2.51-.32-4.88-1.7-7.33-2.61,1.32-3.7,6.13-7.08,1.61-12.24a6.3,6.3,0,0,1,3.9-5c2-.9,3.69-3.52,4.67-5.75a79.37,79.37,0,0,0,4-12.27c.31-1.23-.69-2.8-1.26-4.85a12.59,12.59,0,0,0,3,.81,20.55,20.55,0,0,0,3.95-.62,19.88,19.88,0,0,1,2.54-.73c2.07,3.83,6.47,3.19,9.6,4.93C37.64,194,43.8,196,49.75,198.38c.71.29,2.23.17,2.5-.29,2.23-3.75,7.13-6.06,6.15-11.89L61,187.87c.37-3.6.78-6.87.95-10.15,0-.51-1.1-1.09-1.7-1.62-.83-.73-2.31-1.35-2.43-2.18-1.16-7.87-2.35-9.31-10.14-11.49-.19-.05-.32-.31.31.37l4.32-3.2-1.57-1.8c4.47,2.22,8.95,4.43,14.2,7v-9c1.52,2.2,7.69,6,10.12,5.63.6-.1,1-1.57,1.89-3.2a8,8,0,0,0,6.42-5c.63-1.41,4.68-1.48,7.22-1.76,1.39-.15,2.87.54,5,1l-1-3.43,5.08-6.42,1.87,3.15,3.61-5.8c1.38.15,3.71-1.66,5.41,1l3.38-2.49.83-1.22,2.09,4.16,2.36-3.28,2.52,1.26.88-.62c-.78-1.35-1.56-2.69-1.93-3.35-.66-6.14-1.26-11.74-1.95-18.15,6.43,1.71,7.08-3.63,10.35-6.55.46,1.28,1.19,2.23,1,3-.8,3.5-.62,7.18-3.9,10-5.36,4.67-4.41,10.48,2.06,13.37,1.92.85,4.61.32,6.87,0,2.59-.42,4.2-.12,4.89,2.81.56,2.36,1.92,2.54,4.19,1.21a131.94,131.94,0,0,1,13.2-6.44,3,3,0,0,1,2.74.88c1.48,3.3,4.39,2.84,6.56,2,1.22-.48,1.58-3.13,2.27-4.66l7-1.34a10.16,10.16,0,0,0-1-2.07c-3.4-3.84-2.86-12.72,1.21-16,.61-.5,2.35-.23,3.15.3s1.12,2,1.9,2.85a3.24,3.24,0,0,0,2.3,1.09,2.82,2.82,0,0,0,1.83-1.71,38.24,38.24,0,0,0,1.41-6.77c.31-3-1.78-2.91-3.59-2.38l1.17-5.86c1.81-1.85,5.33-1.91,8.61-1.28,3.48.66,6-.38,8.58-2.4,1.07-.84,2.61-1.06,3.87-1.69a19.27,19.27,0,0,0,2.35-1.62c-.82-.68-1.71-2-2.43-1.91-2.27.29-3.94.38-4.75-2.41-.2-.67-3-1.47-3.41-1-2.48,2.39-6.6,1.13-8.77,4.37-.76,1.14-3.12,1.21-4.76,1.75-.08,0-.24-.15-.31-.12-1.29.54-2.84,1.81-3.79,1.46s-1.18-2.65-2.22-3.42c-1.42-1.06-3.31-1.47-4.76-2.07a51.68,51.68,0,0,0,.87-7.19c0-1.7-1-3.37-1.25-5.09a2.82,2.82,0,0,1,.59-2.32c4.23-3.15,6.2-7.83,9-12,1.44-2.17,3-3.67,2.17-6.26a3.61,3.61,0,0,0-2.12-2.24C179,55,176.12,55,174,54.81c-1.28,2.25-2.22,3.8-3.05,5.41a4.11,4.11,0,0,0-.74,2.29c1,4.64-2,8.19-4.58,10.69-1.79,1.71-3.2,6.47-7.62,4.29-.39.92-1.33,2.43-1.08,2.66,2.79,2.63,1,5.33.12,7.82-1.2,3.36-.51,5.14,2.85,6.67a26.26,26.26,0,0,1,4.11,3c-3.65,2.77-4.62,8.4-10.64,8.3,1.86,6.38-.71,11.74-2.77,17.22-4.89-1.3-7,0-7.52,4.67h-3.67c.19-2.51-2.92-4.67-.26-7.3.19-.19-.12-1.15-.44-1.55a10,10,0,0,1-1.85-9.13,2.51,2.51,0,0,0-.2-2c-2.22-2.19-1-4.51-1-7,.06-2.29-1.62-5.27-3.49-6.75-1.66-1.32-2.3,1-2.16,2.62s.44,3.26.81,5.84c-4.84-3.65-5.79,1.27-8.14,2.44-3.39,1.7-6.87,1.58-8.63-1.91-.37-.73.07-1.87.18-2.82.15-1.32.35-2.63.48-3.94,0-.19-.37-.54-.35-.57,5-4.51-1.39-9.58.7-14.22.46-1,.7-2.42,1.5-2.92a43.72,43.72,0,0,1,7.54-3.89c5.66-2.18,11.19-4.44,14-10.32,3.9,2.12,3.94,2,5.25-2.14a55.93,55.93,0,0,1,3.49-9.48,12.28,12.28,0,0,1,4.76-4.67c1.79-1,3-2,2.53-4-.57-2.47,1-3.14,2.66-4.21a23.43,23.43,0,0,0,3.93-3.85c.38-.41.45-1.13.87-1.46,4.55-3.59,9.14-7.12,13.72-10.68A14.4,14.4,0,0,0,177.71,22c1.41-1.71,2.52-3.63,5.28-1.91.57.35,1.89-.5,1.92-.51,2.05.84,3.41,1.54,4.85,2,1.9.55,3.34,1,3.34,3.61,0,3.39,2.25,4.53,5.45,3.45a6.25,6.25,0,0,1,3.4.26c1.44.4,3,1.85,4.14,1.58,6.72-1.51,12,2.83,18,4.06,3.65.74,5.9,4.13,5.21,6.8-.84,3.22-5.28,5.26-8.41,5.43-5.31.29-9.91-1.35-14.59-3.27-.62-.26-2.07,0-2.18.29-.25.76-.26,2.09.22,2.52,2.47,2.19,5.12,4.17,7.9,6.38,1.15,2.83,1.69,7.06,4.1,9.25s6.5,2,9.91,2.71c.22,0,1.44-2.15,1.13-2.8a8.88,8.88,0,0,0-3-3,19.62,19.62,0,0,0-3.3-1.57c1.31-.12,2.72-.6,3.91-.28,3.81,1,7.51,2.44,11.33,3.41a3.35,3.35,0,0,0,2.92-1.28c.36-.61-.5-2.81-.89-2.83-2.36-.11-3.29-1.63-4.48-3.29-.64-.89-2.16-1.16-3.33-1.74.87-6.16,2.56-8.52,5.77-8.39.67,1.24,1.33,3.3,1.82,3.26,1.76-.15,3.46-1,5.8-1.81-3.71-2.73-1.32-9.42-7-8.15-1.48-3.54-2.77-6.61-4.37-10.42l9.27,1.12a11.55,11.55,0,0,1-.52,1.93c-.94,1.5-3,2.85-1.15,4.83s4,3.56,6.79,2.44c2.26-.89,2.76-2.87,3.2-5.28.61-3.31-.81-8,4.89-9,1.09-.19,1.72-3,2.42-4.36,2.39,3.32,2.39,3.31,5.52-.69,1.5-1.91,3-3.81,4.16-5.24,1.39.11,3.52.94,4.52.22,2.12-1.54,1.49-4.78-.45-6.47-.91-.79-1.28-2.19-2.15-3.77L277.57,0l-.22,1c1.72.57,3.46,1.09,5.14,1.73a15.06,15.06,0,0,1,2.32,1.35,8.42,8.42,0,0,0,3.68,1.55,9.64,9.64,0,0,1,1.41,2.66,14.74,14.74,0,0,1,0,4.64c-.19,1.18-1.23,2.24-1.37,3.41-.4,3.39-.42,6.83-.84,10.22a5.77,5.77,0,0,1-1.65,3.18c-1.78,1.71-1.29,2.93.65,3.67,2.19.84,2.57,2.38,3.11,4.48.61,2.33,2,5,3.85,6.35,3.13,2.18,3.62,5.49,5.25,8.34,2.92,5.1,4.37,11,9.16,15.16a8.44,8.44,0,0,1,2.8,8.45c-.73,3.35-.41,7,0,10.5.4,3.25,2.63,4.13,5.66,2.8a14.83,14.83,0,0,1,1.86-1c.92-.25,2-.64,2.79-.32.46.19.81,1.78.51,2.41a3.55,3.55,0,0,1-2.26,1.81c-2.86.46-3.77,2-3.19,4.67.63,2.94,2.55,3.7,4.89,2.3,2-1.2,3.63-3.08,5.75-5a13.85,13.85,0,0,1,1.35,2.84c.77,2.73,1.11,5.59,2,8.28,1.33,4.06,3.45,4.67,7.32,2.23,2.77,3.46,6.39,2,10.1,1.39a6.44,6.44,0,0,1,.28,2c-.64,3-7,6.3-9.94,5.25-.62-.23-1.62-.44-2-.12-2.64,2.26-5.57,4.36-7.58,7.12-1.43,2-2.13,3.46-4.71,1.9-.61-.36-2.06-.52-2.24-.23-1.69,2.79-3.72,1.19-5.65.57-3-1-5.74-.86-8.05,1.6a2.86,2.86,0,0,1-1.35,1c-6,1-6.7,6.24-8.2,10.65-.44,1.29.37,3,.5,3.91-2.18.54-4.86.43-5.48,1.51a5.56,5.56,0,0,0,1.61,7.58c-.09,2.11-.65,4-.1,5.4s2.1,2.41,3.36,3.41a2.31,2.31,0,0,0,1.92.12c4-1.39,5.95-.06,6.84,4.3.21,1,1.59,1.81,2.84,3.12a27.32,27.32,0,0,0-4.13,3.15,8.47,8.47,0,0,0-1.85,3.73c-.45,1.93-.44,4-.76,5.94s-.21,3.82,2.11,3.28c3.39-.8,4.28,1.61,4.71,3.57,1,4.74,3.93,7.34,8.14,9.22,2.28,1,4.16,2.87,6.37,4.1a32.88,32.88,0,0,0,4.52,1.87c-.55,5-1.1,10-1.69,15.32a4.62,4.62,0,0,1-1.25-1.18c-.32-.58-.12-1.44-.43-2-.74-1.35-1.8-3.75-2.48-3.66a9,9,0,0,0-4.57,2.55c-1.23,1.15-1.87,2.9-2.94,4.25-1.9,2.4-4.59,2.58-7.07.85-2.94-2-5.95-3.91-9.86-3.34-.48.07-1.56-1.21-1.68-2a6.17,6.17,0,0,0-8.8-4.79c-.82.38-1.7.62-2.63,1,.27-5.2-5.06-10.43-10.16-10.45a11,11,0,0,1-4.36-1.08c-4-1.81-7.86-3.81-11.79-5.72-1-.5-2-1-3.56-1.7,1.66-2.33,3.53-4.17,4.35-6.39.44-1.19-.91-3-1.55-4.85.18-.06,1.71-.09,2.35-.86,1-1.19,1.36-2.88,2-4.36a13.64,13.64,0,0,0-3.82-.35c-5.9,1.14-9.69,5.86-14.58,8.73a19.93,19.93,0,0,1-4.78,2c-3.43.93-6.92,1.63-9.92,2.31l-2.58-6c-1.92,1.35-3.93,2.57-5.71,4.08a48.4,48.4,0,0,0-4.22,4.59l.87,1.78c-5.25,1.42-.73,5.52-2.12,8-.27.5-.63.95-1.12,1.67l-3-1.75c0,1.87-.05,3.11,0,4.35.09,2.35,1.47,4.83-2,6.42-1.13.51-1.07,3.36-1.84,5-1,2.12-.43,3,1.51,4.44,2.31,1.68,3.88,4.39,5.48,6.31l-10.21,5.83c-4-3.64-9.22-3.87-14.77-2.61-2.45.56-2.15,1.71-.77,3.11.72.73,1.56,1.33,2.39,2-4.12,2.72-4.44,2.61-6.85-1-.53-.79-1.72-1.12-2.61-1.67-.38,1-1.06,2-1,3.07a6.05,6.05,0,0,0,1.2,2.83c.9,1.42,2.19,2.51.92,4.6-.37.62,1,2.58,1.93,3.63a42.53,42.53,0,0,0,4.37,3.75l-3.73,2.64,2.05,2.72-3.3,1.29c.47,1.28.89,2.4,1.54,4.14L182.17,258l-1.95,1.87-1.47-3.45-1.73.55c-.49-2.06-.94-4-1.5-6.34,1.88.29,3.94.71,6,.87a10.37,10.37,0,0,0,2.89-.61c-.28-1.06-.22-2.67-.89-3.08a16.32,16.32,0,0,0-5.64-2.13c-1.76-.27-3.63.22-5.81.41,2.15-2.17,2.33-3.16-.59-4.63a18,18,0,0,1-6.79-6.52c-.82-1.34.34-4,.8-6,.85-3.72-1.42-8.56-5.07-9-4-.46-5.73-3.71-8.61-5.49-1.51-.94-3-2.19-4.63-2.63a4.74,4.74,0,0,1-4-4.19,34.11,34.11,0,0,0-1.8-6.43c-.94-2.38-2.61-2.39-5.86-.49l1.23-2.7c1-2.29.12-3.68-2.34-3.35a42.5,42.5,0,0,0-5.47,1.14,4.68,4.68,0,0,0-2.07,1.22c-2.93,3.14-.67,11.71,3.26,13.35a6.06,6.06,0,0,1,2.64,3c1,2.07,1.16,4.54,2.31,6.46,2,3.28,5.11,4.69,9.44,3.65-1.54,4.13,1.14,5.1,4,6.16a38.82,38.82,0,0,1,7.57,3.48c1.27.83,1.86,2.71,2.76,4.11Z"/><path class="cls-1" d="M121.51,248.41c6.14.42,11.21.66,16.24,1.19,1.4.15,2.64,1.12,1.24,3-.51.67-.47,1.74-.72,2.61a3.16,3.16,0,0,1-4.91,1.94c-3.26-1.89-6.58-3.68-9.8-5.66C122.89,251.06,122.58,250,121.51,248.41Z"/><path class="cls-1" d="M69.89,121c1.9-3.41,1.9-3.41-3.79-4.29,0-.22-.2-.53-.11-.64,3.78-4.44,3.72-4.4.57-10.4a4.8,4.8,0,0,1,0-3.46,47.18,47.18,0,0,1,2.73-5.48h2.48c1.52-4.14,2-4.26,7.11-1.83C77,97.21,72.08,97.16,73,102.08h9.07c-2.36,4.78-5.6,7.22-11.17,8.43,1.51,1.11,2.33,2.11,3.34,2.4,3.61,1,5,3.13,4.13,6.77-.45,2-.69,3.9,1.78,5,.76.35,1.09,1.63,1.75,2.73-2.35,1.06-3.88,2.21-2,4.71.4.52-.09,1.9-.45,2.76-.88,2.15-.22,3.12,2,3.11.69,0,1.52-.29,2.06,0a4.44,4.44,0,0,1,2.14,1.92c.19.49-.62,1.64-1.26,2.11-1.71,1.27-3.57,2.34-5.91,3.83l3.61,2.38-.07.65c-3.51,0-7.06.35-10.52-.08-5.25-.65-10.43-1.92-15.66-2.74-1-.16-2.19.5-3.28.84-1.24.37-2.46.8-4.13,1.36a8.48,8.48,0,0,1,9.12-5.07,22.12,22.12,0,0,0,5.9.23c1.42-.23,2.7-1.38,4.87-2.58l-13.54-4,.06-.79a12.35,12.35,0,0,1,2.05-.34c1.28,0,2.71.53,3.8.11,1.34-.52,2.4-1.78,3.58-2.72l-2.93-3.4c.82-.14,2.27-.86,3-.41,3.51,2.32,5.3.06,6.44-2.53.67-1.52.12-3.57.12-5.39Z"/><path class="cls-1" d="M37.34,31.1c4.87-3.83,4.87-3.83,2.55-9.27,1.46.15,3-.15,3.51.44,2.42,2.59,4,1.51,5.49-1.29a30,30,0,0,1,2.61,2.35A7.5,7.5,0,0,0,58,26a14.71,14.71,0,0,1,5.13.74c2.55.81,4.56,1.45,3.56,5.51-.71,2.87-.29,5.88-3.61,6.86a37.06,37.06,0,0,1-8,.94c-2.32.15-4.65,0-7,.09-2.84.07-5.05-.24-6.15-3.7C41.26,34.4,38.92,32.88,37.34,31.1Z"/><path class="cls-1" d="M41,122.62V112.57c1.42,1.35,2,2.14,2.73,2.52.94.47,2.26,1,3,.72a3.32,3.32,0,0,0,1.5-2.68c-.28-3.07,1.5-3.33,3.66-2.91a15.57,15.57,0,0,1,4.23,1.58c2.61,1.36,2.86,4.75,1.16,7.09a32.42,32.42,0,0,0-4.66,8.28c-1,2.94-2.33,4.25-5.48,3.86-3.57-.45-7.18-.51-10.75-.95a4,4,0,0,1-2.75-1.61c-.3-.53.43-2.17,1.14-2.62A66.91,66.91,0,0,1,41,122.62Z"/><path class="cls-1" d="M106.52,238.58l-5.4.89c-1.22-1-.43-2.56.59-4.23.83-1.35,2.09-2.72-.45-3.93-.64-.3-1-2.08-.77-3,.14-.6,1.54-1,2.45-1.28a23.33,23.33,0,0,1,2.41-.3c2.43-.52,4.23,1.16,3.6,3.54C108.2,233.11,107.3,235.93,106.52,238.58Z"/><path class="cls-1" d="M110.11,214.38c-1,2.56-2,5.12-3.1,7.9-3.21-3.23-3.05-3.79,1.86-8.38Z"/><path class="cls-1" d="M251.3,188.48c1.27,4.19.91,4.49-2.62,5.11-1.38.25-2.55,1.77-3.8,2.73s-2.67,2.81-4.14,3c-1.25.14-2.92-1.34-4-2.47a25.13,25.13,0,0,1-2.78-4.3l-1.19.46c1.66-1.15,3.28-2.39,5-3.38a2.34,2.34,0,0,1,2.1.27c4.64,3.48,5.47,3.5,9.79-.15C250.11,189.36,250.58,189,251.3,188.48Z"/><path class="cls-1" d="M134.3,124.11c-.31,1.71-.66,3.59-1.1,6-1.47-.54-2.88-.73-3.84-1.48-1.3-1-1.13-2.07.67-2.66A43.81,43.81,0,0,0,134.3,124.11Z"/><path class="cls-1" d="M174,106.93l2.56-4.37,1-.18c.33,1.3,1.29,3,.82,3.81-.56,1-2.37,1.35-3.63,2Z"/></g></g></svg>