<svg xmlns="http://www.w3.org/2000/svg" viewBox="0 0 467.78 626.22"><defs><style>.cls-1{fill:#224a56;}</style></defs><title>Asset 16</title><g id="Layer_2" data-name="Layer 2"><g id="Layer_1-2" data-name="Layer 1"><path class="cls-1" d="M184.3,531.09c5.55-4,8.48-7.23,3.75-12,.85-10-7.37-14.83-12.19-21.61-2.66-3.75-5.35-7.48-8-11.22,3.57-8.26-6.4-10-7.87-16.34-2-8.5-5.85-16.69-9.85-24.54-1.84-3.61-5.59-6.56-9.08-8.93-2.95-2-5.26-.22-4.59,3.25,2.44,12.47,4.87,24.89,11.54,36.12,2.47,4.15,3.49,9.26,4.67,14.06,1,4,1.73,7.6,5.93,9.88,3.84,2.09,3.64,4.52,0,8.44a34.81,34.81,0,0,0-1.75-3.41c-1.73-2.6-3.2-5.5-5.41-7.6-2.75-2.61-4.87-4.75-3.43-9.05,1.62-4.82-.62-8.87-4.19-12.09-2.87-2.59-6-4.93-9-7.39,5.28-5.2,5.46-8.34-.06-13.64a10.42,10.42,0,0,1-3.5-9.37c.23-2.8-.7-5.71-1.24-8.54-.49-2.53-1.67-5-1.63-7.53.11-8-3.9-13.13-10.71-16.4-3-1.46-5.77-2.81-5.08-6.93.12-.72-.43-1.54-.64-2.32-2.44-9.26-4.92-18.51-7.28-27.8a7.41,7.41,0,0,1,.44-3.2c.23-.92,1.14-2,.9-2.68-2.66-7.8,3.47-13.87,4.17-21.14.55-5.76,4.75-11.1,7-16.76,5.17-13.17,3.77-25.6-4.46-37.28-1.2-1.7-1.36-4.13-2-6.22,1.92,1.39,4.28,2.43,5.67,4.22,5.47,7.08,7.82,15.45,9.11,24.17a38,38,0,0,0,1,3.87l1.71.12c.42-1.78,1.19-3.56,1.22-5.36.19-11.13-4.76-20.15-11.55-28.59-1.93-2.4-2.64-5.89-3.55-9a76.5,76.5,0,0,1-2.09-9.84c-1-6.55-1.35-13.36-8.68-16.56-1.18-6.93-3.07-13.83-3.36-20.79-.46-11.37-3.54-21-12.46-28.73-3.8-3.28-6.39-8-9.64-11.91-1.66-2-3.37-5-5.41-5.38-1.57-.25-3.71,3-5.38,4.51l-12.59-2.8c3-2.89,4.84-7.24,10.35-6.25.8.14,2.6-.94,2.59-1.43,0-1.09-.73-3-1.45-3.11a25.82,25.82,0,0,0-8.5-.72,28.49,28.49,0,0,0-9.68,2.94c-1.86,1-2.89,3.57-5.15,6.58-13.4,3.26-28.3,6.38-42.9-4,3.09.31,5.74.64,8.39.82,2,.14,4,.09,6,.14,1.75.05,3.79-.43,5.21.29,4.55,2.32,8.51.89,12.42-1.27a29.42,29.42,0,0,0,4-3.14A39.22,39.22,0,0,0,32.09,173c-.71-.64-2.09-.51-2.42-1.44l-5.73-6.78a5.64,5.64,0,0,0,1.45-1.18c1.36-1.65,3.22-3.29,3.57-5.18.16-.85-2.69-2.51-4.39-3.39-2.75-1.43-3.54-6.24-1.2-8.52.88-.86,2.46-1.73,2.48-2.63.08-3.82,1.54-5.89,5.53-6.3,3.07-.31,5.74-2,9,.77,2.06,1.74,6.3,2.76,8.63,1.81,2.73-1.12,4.74-4.56,6.39-7.38.36-.62-1.88-3.25-3.36-4.35-3.06-2.25-6.42-4.09-9.41-6l2.72-11.22,10.58,2.79c-1.76,6.85-1,9.19,4.06,10.42,1.77.43,5-.3,5.69-1.54a7.28,7.28,0,0,0-.34-6.41c-1.26-1.91-1.92-3-1.21-5.44.66-2.28-.38-5-.5-7.55,0-1,0-2.44.67-3a3,3,0,0,1,2.88.25c3.46,3.24,7.38,2.76,10.82.81,4.88-2.77,9.41-.84,14.06,0,2.57.47,5.06,1.31,8.57,2.24,1.56,3.64,3.49,8.33,5.6,12.94.43,1,1.49,1.64,2.28,2.45,2.45,2.52,4.75,5.21,7.4,7.5,2.44,2.11,5.3,3.72,7.86,5.7a21.24,21.24,0,0,1,4.6,4.31c2.6,3.77,4.56,8,7.4,11.57,1,1.27,3.84,1.66,5.79,1.55,7-.38,14.11-.95,21.12-1.85,3.36-.43,3.52,1.15,3.34,3.57-.3,3.78.68,5.7,5,4a5.09,5.09,0,0,1,4.23,1c1.95,1.64,3.25,4.07,5.19,5.73a112.27,112.27,0,0,0,11.68,9c2.42,1.56,4.25,2.37,2.81,5.9-.54,1.32.79,4.29,2.16,5.3a12,12,0,0,0,6.83,2c5.87,0,11.73-.73,17.6-.94a20.53,20.53,0,0,1,6.11.88c3.57,1,7,2.43,10.61,3.32,4.36,1.08,8.92,2.08,10.81-5.08,1,1.87,1.55,2.57,1.67,3.35.55,3.4,2.71,2.84,4.64,1.72,5.75-3.34,6.81-12,1.46-16.22s-4.11-9.74-4-15c.1-4.38,1.26-8.76,1.26-13.13,0-8.18,3.34-11.22,13-9.83-13,16.75-4.66,31.93,1.52,47.29l1.8.17,3.78-5.5a45.15,45.15,0,0,1,1.6,5.25c.26,1.57-.25,3.36.31,4.77s1.9,3.4,3.16,3.62c1,.19,3.26-1.65,3.57-2.92a87.29,87.29,0,0,0,1.5-11.34,37.2,37.2,0,0,0,0-4.09c1.53,0,3.18-.32,4.56.14a29,29,0,0,1,4.73,2.38c.38,3.53-.05,6.22,1,8.08,4.14,7.36,4.31,7.26-1.71,13.3-5-2.42-7.18-2.23-9.18,2.61-1.84,4.41-4.34,5.52-8.53,4.47a1.46,1.46,0,0,0-.93.18c-.27.13-.46.41-1.22,1.15a28.27,28.27,0,0,1,3.36,2.9c1,1.21,2.68,2.9,2.41,4-.44,1.75-2.09,3.29-3.45,4.7s-3.22,2.32-4.44,3.79c-2,2.37-2.72,5.93-6.77,6a2.4,2.4,0,0,0-1.65,1.49q-3,11.29-5.76,22.64c-.86,3.49-.28,6.47,3.45,8,3.27,1.35,4.28,3.78,4.46,7.25.35,6.5,2.17,7.4,8.76,7.05a15.53,15.53,0,0,1,8.83,2.24c7.1,4.65,13.84,9.58,23.12,8.43,1.09-.14,2.9,2.28,3.72,3.85,2.87,5.51,5.12,11.37,8.27,16.7,1.65,2.79,4.48,5.52,8.52,3.54,2.94-1.45,4.46-7,2.88-10.89a108.56,108.56,0,0,0-5.42-11.37c-1.32-2.4-.86-3.61,1.38-5.08,6.74-4.41,9.29-12,6.15-19.41-1-2.26-3.36-4.23-5.57-5.59-3.46-2.15-5.52-4-3.08-8.47,1.05-1.95.62-5,.06-7.44-.74-3.22-2.25-6.27-3.46-9.37-1.27-3.26-.36-4.72,3.31-5,2.95-.21,5.8-1.64,8.74-1.87,2-.16,5.44.3,5.87,1.4,1.83,4.72,5.34,5.08,9.72,4.63,1.58,4.31,3.19,8.48,4.61,12.71,1.09,3.26,2.46,5.46,6,2.6l3.34,3.69c6.05-5.77,7.23-12.82,7-21.17,1.31,1,2.27,1.59,3.1,2.35,3.79,3.52,7.7,6.92,11.25,10.67a49.33,49.33,0,0,1,6.9,9c2.24,3.83,8.77,7.74,13.84,7.45,1.38-.08,2.75-.3,3.49-.39-1.45,4.09-2.92,8.25-4.4,12.4l2,1.06c4.33-2.07,4.31-7.73,8.61-11.47,2.74,1.74,6,3.6,8.94,5.82.69.52,1,2.53.55,3.42-2.81,5.79-5.19,12-9.09,17-2.57,3.29-7.37,4.94-11.34,7-2.27,1.16-4.89,1.66-7.36,2.41-6.09,1.86-10.61,4.19-13.7,11.2-2.83,6.41-5.34,13-7.88,19.51a22.58,22.58,0,0,0-.81,4.15l1.45.57c1.07-1.62,2.17-3.22,3.2-4.87,2.92-4.64,5.54-9.5,8.81-13.87,2.59-3.47,6.29-5.57,11.27-4.6.08,7.94.52,15.92,10.35,18.13,6,1.34,9.62-1.77,14.47-11.6,3.64,2.26,4.77,4.68,2.34,7.56-5.79,6.87-12.08,13.31-18.21,19.89-.27.29-.91.23-2.58.6.2-2.71.53-5,.47-7.36a23.74,23.74,0,0,0-1-4.61c-1.44.81-3.16,1.34-4.26,2.48-2.88,3-5.12,6.65-8.26,9.28-12,10.07-10.11,15.27-4.75,23.89-3.52,1.53-7,3.07-10.49,4.54-4.22,1.76-5.59,5.2-6.53,9.44-1.26,5.7-3.53,11.17-5,16.82a21.62,21.62,0,0,0-.46,7.57c.14,1.48,1.3,2.93,2.16,4.28,5.38,8.42,4.78,7.24-2.14,13.54-4.82,4.39-8.87,9.62-13.28,14.46-1.3,1.43-2.58,2.9-4,4.2-5.76,5.27-7.08,9.72-3.9,16.85,2.37,5.29,5.6,10.18,8.32,15.31s6.12,10.42,4.88,16.85a33.46,33.46,0,0,1-1.33,3.87c-1.81-1.07-3.73-1.7-4.87-3-3.51-4-6.74-8.22-10-12.4-.38-.47-.79-1.33-.6-1.77,3.11-7.52-3.66-10.43-7-14.8-1.77-2.32-4.7-2.78-6.68-.23-2.3,2.95-4.48,2.12-7.16.95-8.21-3.58-16.74-3.18-25.26-1.5-1.49.3-2.74,1.83-4.1,2.78,1,1.15,1.91,2.36,3,3.41,1.42,1.38,3,2.64,4.46,4l-.62,1.2c-4.39-1-8.76-2.18-13.18-3-1.65-.32-3.44.13-5.16.14-1.27,0-2.7.23-3.8-.25-4.69-2-8.64-1.26-12.52,2.11a54.31,54.31,0,0,1-9.18,6.23c-6.07,3.41-8.58,8.88-7.83,15.72a29.39,29.39,0,0,1-.84,11.86c-5.24,16.37-2.18,30.86,9.4,43.34,2.86,3.09,7,5,10.62,7.34a3.67,3.67,0,0,0,2.78.3c4.18-1.33,8.26-3,12.46-4.22a4.93,4.93,0,0,1,3.73.6c3.33,2.3,6.66,1.47,7.73-2.39,1.24-4.46,2.38-9,3.26-13.51,1.05-5.45,5.16-7.15,9.71-8.11,4.25-.91,8.61-1.31,13.89-2.07-1.4,7.11-7.51,13.53-1.9,22-5.72-1.59-6,1.14-5.63,4.08.73,5.23,1.24,10.22-3,14.51-.8.81-.89,3.7-.17,4.33,1.08.95,3.25,1.21,4.82.95,7.31-1.26,14.54-3,21.87-4.18,8.16-1.3,14,3.76,14.26,11.94.16,5.34.53,10.69.27,16-.33,6.81,2.16,12.24,7.71,15.74A76.34,76.34,0,0,0,369,615.37c4.85,1.68,8.27-1.83,10.93-5.46a11.71,11.71,0,0,1,12-4.62c4.95.94,8.6,4.67,10.3,10.22l-5.86,2.07a11.92,11.92,0,0,1-.74-2.69c-.08-3.17-1.5-5.82-4.62-5.77-3,0-5.91,1.45-8.77,2.52-.73.27-.95,1.67-1.63,2.31-4.26,4-4.28,4.14.65,8.72l-5.08,3.55c-6.32-8.8-14.8-8.72-21.61-7.6-5.46-4.78-9.34-9.22-14.16-12.08-4-2.39-2.55,2.24-3.13,4.4l-3.45-1.26c-.11-.61-.31-1-.2-1.21,2.51-5,.68-8.66-3.51-11.7a66.6,66.6,0,0,1-7.91-6.37c-1.3-1.3-1.76-3.44-2.7-5.14-.67-1.19-1.35-3-2.33-3.24-1.29-.32-3.72.21-4.2,1.13-1.43,2.74-3.34,1.89-5.36,1.52-6.78-1.24-13.68-2-20.28-3.87-3.14-.88-5.74-3.74-8.52-5.8-4.36-3.24-8.3-7.34-13.12-9.54-2.81-1.28-7.63-.65-10.43,1-7.18,4.27-12.75,1-18.61-2.34-1.4-.79-2.7-2.14-4.17-2.35-6.56-.93-11.29-5.06-16.53-8.49-2.91-1.91-6.8-2.26-10-3.76a26.16,26.16,0,0,1-5.95-4.31c-1.64-1.47-2.84-3.44-4.49-4.89C192.05,537.34,188.49,534.54,184.3,531.09Z"/><path class="cls-1" d="M358,187.62c-4.54-2.13-8.21-4.25-12.15-5.54-1.8-.59-4.13.45-6.23.75.61,2.13.56,5,2,6.26,3.44,3.11,7.73,5.27,11.32,8.24,2.51,2.07,4.45,4.84,6.65,7.29l-1.19,1.18a88.91,88.91,0,0,0-9.39-3.22c-1.63-.37-3.52.37-5.29.61,1.15,1.54,2,3.53,3.52,4.51,2.82,1.83,6,3,9.06,4.57a27.9,27.9,0,0,1,3.16,2.52c-10.11.18-19.05,1.51-25.46-6.85-2.14-2.78-4.84-3.4-8.19-2.51a27.2,27.2,0,0,1-7.6,1.15c-1.13,0-2.51-1.62-3.15-2.83-.22-.42,1.36-2,2.34-2.76a10.83,10.83,0,0,1,2.73-.92c6.28-2.34,6.81-4,3.8-8,.29-5,1.29-9.09.5-12.74a12,12,0,0,0-5.45-7.2c-5.32-2.79-10.66-5.18-14.33-10.31-2.15-3-5.29-2.13-7.84-.48-5.31,3.43-11.1,4-17.19,3.89-4.08-.08-6.78-2-7.08-5.79-.43-5.57-.72-11.3.13-16.78,1-6.35,3.77-7.74,10.3-7.78,3,0,6.07-1,9.1-1,2.16,0,5.16.29,6.33,1.67,7,8.26,16.25,12.53,26.06,16.09a27.2,27.2,0,0,1,7.38,3.54,6.85,6.85,0,0,1,2.37,5c-.26,5.36.65,7.44,6,8.71a106.91,106.91,0,0,0,13.39,1.95c5.5.61,6.25,1.54,5.46,7.11C358.52,180.88,358.33,183.91,358,187.62Z"/><path class="cls-1" d="M193.29,160.68c3.42.58,6.83,1.3,10.27,1.69,1.21.13,2.51-.53,3.77-.83-.78-1.08-1.35-2.68-2.4-3.12-2.35-1-5-1.33-7.44-2-1.4-.39-2.75-1-4.12-1.43l0-1.39,7.87-2.19-6.52-4.95c.61-2.47.6-5.32,1.95-7.18s4.16-3,6.58-4.69c1.72,3.14-1,9.85,3.83,7.06,2.51,1.55,4.17,3.21,6,3.47,1.06.14,2.43-2,4.22-3.65-.24,2.42-.47,4.53-.66,6.64-.25,2.92.46,5.44,3.9,5.4s3.46-2.79,3.4-5.31a9.88,9.88,0,0,0-.45-2.86c-1.37-4.16-.86-7.61,4.51-10.17.45,1.81,1.27,3.55,1.25,5.27-.06,5.29-.62,10.57-.65,15.85,0,4.57,3.06,7.33,6.65,9.45,2.56,1.51,4.28,3.4,2.49,6.22s-3.44,7.15-8.42,4.54a10.81,10.81,0,0,1-2.82-1.84c-2.93-2.95-5.23-3-9.19-.7-3.51,2-8.58,1.48-13,1.72-.51,0-1-2.29-1.77-3.33a34.06,34.06,0,0,0-4.22-5c-1.88-1.75-4.06-3.2-6.1-4.77Z"/><path class="cls-1" d="M452.36,293.36l-30.08,7.17c.84-10.57,1.6-20.33,2.37-30.09l1.53-.53c.72,1.45,1.87,2.84,2.08,4.35.78,5.83,3.19,7.95,8.51,5.66,4.45-1.91,6.45-.24,8.73,3,1,1.45,3.41,2,4.33,3.47C451.09,288.43,451.53,291,452.36,293.36Z"/><path class="cls-1" d="M174.56,136.15c3.39-2.92,7.08-5.59,10-8.91,1.12-1.27.5-4.06.74-7,2.09.27,4.69.14,6.88,1a22.46,22.46,0,0,1,6.2,4.31,61.59,61.59,0,0,1,4.79,5.35c-4.84,3.42-9.24,6.43-13.51,9.6-1.24.92-2,2.45-3.21,3.42-1.64,1.34-3.49,2.41-4.94,3.39-2.06-4.19-3.6-7.34-5.14-10.48Z"/><path class="cls-1" d="M287.39,200.07c.36,0,1-.34,1.27-.13,5.24,3.87,10.47,7.74,15.57,11.79.63.49.49,2,.71,3-1,.22-2.29.91-3.09.56-4.36-1.88-7.48-.93-10.54,2.83-.91,1.11-4.32.17-5.58.17C286.3,212.05,286.82,206.29,287.39,200.07Z"/><path class="cls-1" d="M246.28,156.82l-8.89-12.38a83.52,83.52,0,0,1,3.7-7.79,5.09,5.09,0,0,1,3.23-2.25c.71-.09,2.28,1.46,2.37,2.39.66,6.38,1,12.78,1.49,19.18Z"/><path class="cls-1" d="M33.71,195.85c3.21-6.93,9.39-2.66,14.21-5.24C43.78,197.66,41.82,198.36,33.71,195.85Z"/><path class="cls-1" d="M244.22,176.93l1.79-8.19,7.23,9.57-1.39,1.81Z"/><path class="cls-1" d="M311,174.62c2.51,2.13,4.57,4.07,2.12,7a3.3,3.3,0,0,1-3.24.12C307,179.24,308.52,177,311,174.62Z"/><path class="cls-1" d="M254.77,173.49c3.88,3.79,3.88,6.14-.75,11.45C254.28,180.91,254.53,177.18,254.77,173.49Z"/><path class="cls-1" d="M434.37,81.26c-3.78.19-6.13-.06-8.25.54-1.59.45-2.87,2-4.29,3.07,1.19,1.42,2.3,3.92,3.6,4,3.24.26,6.57-.53,9.85-1,.76-.11,1.46-.63,3.58-1.59.27,4.45,1.43,8.5.51,12-1.37,5.22-4.5,9.94-6.33,15.08-1.18,3.32-2.16,7-1.87,10.48.53,6.42-.09,12.3-4.34,17.32a10.37,10.37,0,0,0-2.48,9.84c2.68,11.09,3.86,22.67,12.47,31.51,1.77,1.82,2.09,5,2.6,8.12-7.13-2.1-13.64-2.13-20.29.29-1.55.57-4.21-.53-5.78-1.66-7.74-5.64-17-9.38-22-18.55-1.28-2.38-4.56-3.6-6.45-5.76a63.42,63.42,0,0,1-7.35-9.93c-1.42-2.47-1-5.08,1.51-7.4,1.23-1.15,2.21-4.06,1.59-5.33a9.34,9.34,0,0,0-5.26-4.25c-1-.31-3.11,1.73-4.2,3.11-1.47,1.85-2.74,5.34-5.18,2.77-1.53-1.61-.88-5.45-.8-8.28,0-.69,1.76-1.23,2.53-2s1.76-1.85,1.59-2.54-1.5-1.42-2.39-2a2.06,2.06,0,0,0-1.4-.3c-6.75,1.41-8.52-3.71-11.3-8.08a108.25,108.25,0,0,0-11.77-15.88c-6.35-6.78-12.76-7.53-21.17-3.66-2.35,1.07-4.53,2.68-7,3.31-1.51.39-4.26-.09-4.85-1.11-.71-1.22-.18-3.72.67-5.14s3.1-2.36,4.28-3.85a4.84,4.84,0,0,0,.84-3.84c-.21-.69-2.12-1.15-3.29-1.2s-2.57.85-3.77.69c-1.88-.25-4.79-.58-5.27-1.72-.7-1.65-.38-5.11.82-6,7.31-5.25,5.81-11.64,4.42-19.09-1-5.17.74-11,2.08-16.39,1-4,3.36-7.66,5-11.52.82-1.92,2.35-4.18,1.92-5.88-1.36-5.47,2.63-7.29,5.64-10.11,3.54-3.29,6.57-7.12,10.09-10.43,2.28-2.15,4.8-4.45,7.65-5.47,3.44-1.24,6.07.13,8,4.08a19.6,19.6,0,0,0,7.83,7.83c4.06,2.31,6.79.27,7.16-4.44.26-3.36.41-6.73.61-10.09l1.6-.85c1.87,2.65,4.88,5.09,5.42,8,2.34,12.6,10.47,20.28,20.53,26.91A225,225,0,0,1,410.24,49a11.64,11.64,0,0,1,3.85,5.89c2.14,9.17,7.24,16.08,14.81,21.43A67.48,67.48,0,0,1,434.37,81.26Z"/><path class="cls-1" d="M252.22,105.72c2.8,1.11,5.56,2.35,8.4,3.31a10.76,10.76,0,0,0,14.07-11.61c-.46-3.58-3-4.66-6.09-5.2-10.19-1.8-17.29-9.26-18-19.68a10,10,0,0,1,2.8-7c2.45-2.36,4.16.61,5.91,2.17,3.49,3.11,5.29,3.57,9.76,2.21-1.42-1.41-2.47-2.65-3.7-3.65-6.41-5.18-6.39-8.11-.09-13.09,3.93-3.11,7.69-6.43,11.45-9.73,6.06-5.31,13-7.07,20.73-4.86,4.76,1.36,6.24,4.06,4.92,8.76-1.88,6.63-3.69,13.3-5.92,19.81-.74,2.18-3.14,3.78-4,6-1,2.5-2.32,6.18-1.23,7.86,3,4.57,1.83,8.22-.65,12.07-2,3.07-4.07,5.89-.47,9.43.5.5-.79,3.83-2.06,4.84s-3.73.78-5.54,1.42a54.54,54.54,0,0,0-9.27,3.9c-1.19.7-1.55,2.83-2.29,4.31,1.46.47,2.9,1.28,4.37,1.34,4.18.19,8.39-.13,12.55.2,1.27.1,2.42,1.66,3.63,2.55-.94,1-1.68,2.43-2.83,3A29.68,29.68,0,0,1,265.64,126c-1.51-.47-3.34-3.21-3.26-4.81.2-3.93-1.42-5.72-4.68-7.45-2.66-1.41-4.67-4-7-6.11Z"/><path class="cls-1" d="M243.74,96.67c-7.72-2-11.41-8.21-8.63-15.13C239.39,85.86,245.1,88.85,243.74,96.67Z"/><path class="cls-1" d="M257.46,99.73C252,99,249.67,95.34,250,88.54Z"/><path class="cls-1" d="M330.61,517.17c6.61-12.15,17.78-13.4,29.39-11.26,14,2.59,27.82,6.5,41.9,9.88-5,6.05-12.41,4.52-19.07,6.67.4-1.77.72-3.19,1.13-5-1.23-.1-2.2-.45-3-.19-3.28,1.11-5.73.6-8-2.34-1.07-1.37-3.49-2-5.41-2.3-3-.49-6.09-.13-9.05-.66-3.35-.59-7.27,1.2-9.71-3.67-1.18-2.37-9.86,1.07-12.57,4.71-1.39,1.85-2.75,3.72-4.12,5.58Z"/><path class="cls-1" d="M211,124l3.38-4.18c-2.9-.52-5.1-1-7.32-1.28-3.84-.46-4.89-2.4-2.72-5.52a63.78,63.78,0,0,1,5.33-6.14l8.83,8.34c1.59-2.38,3.19-4.75,4.76-7.08,2,4.2,4,8.62,6.28,13.4l-18.16,4.3Z"/><path class="cls-1" d="M196.34,107.92c-.76-.56-2.74-1.38-3.5-2.83-.51-1,.25-3.41,1.24-4.18a66.09,66.09,0,0,1,9.66-6.15,3.8,3.8,0,0,1,3.5.55c.54.52.08,2.25-.18,3.38C205.86,103.8,203.32,107.56,196.34,107.92Z"/><path class="cls-1" d="M407.33,527.85a63.16,63.16,0,0,0,7.3-1.22,5.21,5.21,0,0,0,3.09-2.39c.27-.56-1.11-2-1.84-2.92-1.18-1.53-2.45-3-3.68-4.49a58.88,58.88,0,0,1,6-2.12,23.23,23.23,0,0,1,6.18-.83c3.62.11,7.25.48,10.84,1a43.68,43.68,0,0,1,12.12,3,49.69,49.69,0,0,1-7.06,2.3c-4.41.77-7.83,2.59-9.95,6.74-1.36,2.68-3.1,3.7-6.64,2.45-2.89-1-6.54.13-9.86.25-2.13.07-4.27,0-6.4,0Z"/><path class="cls-1" d="M233.9,109.29c6.65-1.59,9.32-.3,13.08,5.06,1.79,2.56,4.72,4.31,6.86,6.67a4.88,4.88,0,0,1,1.09,3.73c-.14.69-2,1.47-3.08,1.45C243.16,126,234.65,117.89,233.9,109.29Z"/><path class="cls-1" d="M394.23,537.43c-5.18,3.31-13.34,2.19-17.45-2.39C382.82,533,389.76,534,394.23,537.43Z"/><path class="cls-1" d="M218.35,100.82c-1-2.68-3.59-6.16-2.71-7.84,1.39-2.67,5.09-4.14,7.81-6.12l1.89,1.4-4.83,12.62Z"/><path class="cls-1" d="M457.8,515.64a43.09,43.09,0,0,1,6.5-3.73c.87-.33,2.6.68,3.41,1.56.33.37-.53,2.74-1.21,2.94a70.15,70.15,0,0,1-8.21,1.47C458.13,517.14,458,516.39,457.8,515.64Z"/><path class="cls-1" d="M23.06,113.45c5.56.49,3.72,5.27,6,9.08C22,121.72,27,114.89,23.06,113.45Z"/></g></g></svg>