<svg xmlns="http://www.w3.org/2000/svg" viewBox="0 0 630.22 639.38"><defs><style>.cls-1{fill:#224a56;}</style></defs><title>Asset 27</title><g id="Layer_2" data-name="Layer 2"><g id="Layer_1-2" data-name="Layer 1"><path class="cls-1" d="M579.7,40.73c-3-3.42-2.34-5.39,1.68-7.37,2.65-1.3,4.43-4.4,6.58-6.71,2.73-2.92,5.61-5.72,8.1-8.84a16,16,0,0,0,3.46-6.51c.89-4.6,3.27-5.7,6.63-3,3.54,2.82,5.82,1.35,8.3-1.08,1.53-1.5,2.82-3.47,4.63-4.43A24.64,24.64,0,0,1,627.68,0c.72-.07,2.82,3.57,2.51,5.16a24.87,24.87,0,0,1-4,9.45c-1,1.44-4.1,1.21-5.81,2.38-3.84,2.6-8.14,5-10.87,8.6-3.19,4.16-6.11,7-10.68,5.36-5.4,8-10.19,15.82-15.83,23-1.39,1.77-5.54,1.36-8.42,2-.3-3.32-1.27-6.77-.65-9.92C574.31,44.14,577.24,42.85,579.7,40.73Zm25.54-28.24c-11.54,12.22-22.19,24.66-28.07,40.35,3.83-2.64,6.22-6.51,9.45-9.46,5.71-5.23,4-18.18,16.69-16.18.44.06,1.21-1.15,1.62-1.87,4-6.95,10.16-10.72,17.61-13,4.81-1.48,4.83-5,3.17-9.16C617.79,5.34,614.84,18.91,605.24,12.49Z"/><path class="cls-1" d="M570.78,55.49c-2.73,1.68-5.41,3.46-8.2,5-9.58,5.41-14.19,14.65-18.86,23.93-.79,1.56-2.49,3.85-3.63,3.77-1.72-.12-4.19-1.7-4.76-3.25-.86-2.31-1.19-5.51-.23-7.65,1.9-4.18,5-7.82,7.31-11.82,2.45-4.18,4.36-8.71,7-12.73,1.2-1.8,3.64-3.66,5.66-3.85,3.48-.33,7.1.46,10.59,1.16,1.29.27,2.36,1.61,3.53,2.47C569.75,53.53,570.27,54.51,570.78,55.49Zm-6.07-.41-9.58-2.37c-5.82,9-11.38,17.46-16.63,26.08-.79,1.3-.11,3.5-.11,5.93C545.69,73.12,550.92,61.4,564.71,55.08Z"/><path class="cls-1" d="M15.13,529.44c.65-2.81.63-6.18,2.21-8.42,1.24-1.76,4.46-2.12,6.8-3.11.79,2.19,1.92,4.33,2.22,6.58a5.14,5.14,0,0,1-1.69,4A147.87,147.87,0,0,1,8.6,540c-1.83,1.07-5.83.58-7.46-.81-1.32-1.12-1.51-5.19-.49-7,1.11-2,4-3.68,6.42-4.09S12.41,528.93,15.13,529.44Z"/><path class="cls-1" d="M24,476.53c3.86-8.84,7.2-17.07,11.16-25,.73-1.46,4.43-2.79,5.88-2.16s2.45,3.66,2.94,5.79a7.71,7.71,0,0,1-.78,4.95c-3.29,6.12-7.57,11.69-8.91,18.85-.26,1.39-3.9,3.42-5.37,3C27,481.44,25.78,478.71,24,476.53Zm7.45-12.22,1.87,1.17c6.26-2.9,7.8-6,5.38-14Z"/><path class="cls-1" d="M327.83,341.21c-6-.27-7.91-1.78-5.56-6.16.73-1.36,1.75-3.1,1.45-4.4-1.56-6.93,4-16.58,11-18.48,4-1.1,5.38.67,5.41,4.66a61.91,61.91,0,0,0,1.3,10.73c.83,4.48-1,7.65-4.67,9.66C333.47,339,329.87,340.32,327.83,341.21Zm-.87-3.56c2.28-.95,5.06-1.52,7.05-3.1,1.73-1.37,3.67-3.93,3.57-5.86-.22-4.08-1.72-8.1-2.65-12C324.15,319.57,327.93,329.39,327,337.65Z"/><path class="cls-1" d="M156.2,410.86l-5.57-4.41c1.93-2,3.55-5.05,5.86-5.71,3-.87,4.93-1.54,6.52-4.64,1-1.87,4.48-3.07,7-3.28,1.47-.12,4.47,2.26,4.47,3.52,0,2.46-1,5.62-2.71,7.24-2.89,2.68-6.65,4.48-10.17,6.43C160.52,410.59,159.07,410.44,156.2,410.86Z"/><path class="cls-1" d="M87.67,618.64c-2.61,5.06-4.7,9.72-7.43,14-.71,1.09-3.74,1.67-5.1,1.08s-2.72-3.25-2.35-4.49a71.4,71.4,0,0,1,5.49-13.51c.76-1.42,3.91-2.89,5.19-2.38C85.19,614,86.16,616.57,87.67,618.64Z"/><path class="cls-1" d="M568.21,84.5c-.23-6.71,3.67-11.79,8.21-11.41,2,.17,3.7,2.85,5.54,4.39-3.14,3.41-6.15,7-9.59,10C572,87.79,569.07,85.13,568.21,84.5Z"/><path class="cls-1" d="M63.69,639.38c-5.24,0-8.31-2.21-8.26-7.18,0-4.34,2.29-7.21,7-7.41,5-.21,7.6,2.28,7.66,7.2C70.16,636.49,68,639.18,63.69,639.38Zm-.52-12.7c-2,2.66-3.85,4.09-4,5.68-.09,1,2.33,3,3.71,3.11,1.11.06,3.11-2,3.3-3.32S64.74,629.34,63.17,626.68Z"/><path class="cls-1" d="M48.06,484.92c1.33,2,4.23,5,3.68,5.94-1.41,2.51-4.17,4.55-6.84,5.88-.63.32-4.61-3.39-4.3-4.43.82-2.78,3.13-5.12,4.85-7.64Z"/><path class="cls-1" d="M355.52,160.79l8.47-6.92c1.08,1.53,3.38,3.47,3,4.52-1,2.85-3.05,5.31-4.69,7.93Z"/><path class="cls-1" d="M47.42,573.69c-3.87,3.2-6.36,5.55-9.21,7.29-.44.27-2.59-2.28-3.94-3.52a71.13,71.13,0,0,1,7.36-6.77C42.22,570.28,44.36,572.05,47.42,573.69Z"/><path class="cls-1" d="M375.57,461.22c-3.13,1.93-5,4-6.65,3.84s-2.94-2.55-4.4-4c1.58-1.52,3-4,4.77-4.25C370.76,456.64,372.61,459,375.57,461.22Z"/><path class="cls-1" d="M561.24,86.23c.69,1.94,2.38,4.24,1.83,5.72-.82,2.19-3.22,3.79-4.94,5.64-1.51-1.47-4.28-3-4.21-4.39.08-1.82,2.42-3.53,3.78-5.28Z"/><path class="cls-1" d="M229.37,423.57c-1.07,7.81-.81,8,8.41,6.63.22,0,.49-.14.64-.05,8.21,5.29,12.65-1.1,17.8-5.59.79-.69,2.35-.49,4.35-.83-.79-3-1.26-5.69-2.2-8.2-2.31-6.22-.81-10.8,5-14.39,12.73-7.88,18.57-21.58,15.36-36.08-1.42-6.45.68-10.19,7.12-12.34,4.45-1.48,9-2.8,14.23-4.44-1.85,6-5,10.2-10.93,12.23-6.15,2.12-6.31,3-2.61,8.39.83,1.22.65,3.1,1.17,4.59.88,2.53,2,7.14,2.92,7.12,3.7-.07,8.81-.46,10.71-2.86,2.84-3.58,6.11-4.53,9.65-6.55,11.34-6.44,27.14-8.29,31.71-22.84C346,338,352.85,332.82,361,327.52c2.52-1.63,3.51-5.82,4.89-9,2-4.56,3.58-9.31,5.63-13.84,1.23-2.71,3.62-5,4.46-7.76,3-10.05,5.9-20.17,8.34-30.38,2.14-9-.71-12.89-9.71-14.87a3.48,3.48,0,0,1-1.74-1.18c3-2.53,7.24-4.38,8.26-7.32,1.21-3.53.47-8.25-.78-12-2.63-7.86-2.25-9.48,5.06-13.92,5.4-3.27,4.7-9,4.79-14.14,0-1.39-.76-2.8-1.2-4.3,7.8.15,7.71.24,10.55,8.22.87,2.43,2.73,4.51,4.14,6.75l5.93-4,8.08,1.13q.66-7.72,1.33-15.45H404.49c1-2.34,2.11-6,4.32-8.81.62-.78,4.64,1.11,7.08,1.84,2,.6,4,1.29,5.46,1.76.95,9.53,1.71,19,2.94,28.38.31,2.38,1.49,5.41,3.3,6.72,13.24,9.56,12.83,24.45,15.1,38.15,1.37,8.27-1.34,15.66-7.39,21.77-4.5,4.54-6.46,10-5.16,16.51.53,2.71.34,5.56.52,9.28-6.32-5.39-12.75-.2-14.19,2.51-3.11,5.83-7.1,12.1-4,20.4,4.44,11.93,5.93,24.23-1.35,36.5-3.58,6-4.5,13.68-6.55,20.61-.35,1.2.13,2.79-.47,3.76-3.54,5.67-1,10.27,2.31,14.78,2,2.76,4.12,5.44,6.65,8.78-10.42,2.55-14.1,9.22-13.79,19,.06,1.85-2.36,4.29-4.24,5.57-3.85,2.62-8.11,4.64-11.51,6.53a13.56,13.56,0,0,0-.06-4c-1.24-5.74-.76-10.63,4-15,1.63-1.48,1.46-5,2.11-7.54-2.93-.07-6.95-1.39-8.59,0-4.27,3.7-10.34,6.88-8.7,14.38-12.08-2.6-16.46,2.83-15.17,15.56.41,4-4.16,8.42-7,13.66-4.1-7.76-3.36-12.79,2.65-19-3.44-1.36-6.38-3.51-9.11-3.28-2.16.18-4.43,3-6.05,5.13-3.58,4.71-6,10.73-10.41,14.24-3.13,2.46-9.06,2.86-13.33,2.05-7.72-1.45-15.07-2.86-22.29,3-.08-.68-.17-1.36-.25-2l1.75-1.65,5.64-5.22a53.92,53.92,0,0,0-7.47-2.7c-3-.63-6.25-.9-6.68,3.62,0,.39-.31.76-1.46.89.65-2.4,1.28-4.81,2-7.2.56-1.88,1.21-3.74,1.81-5.61-2.25-.2-5.94-1.34-6.53-.44-3.57,5.45-7,11.19-9.11,17.29-.42,1.21,4.95,4.39,7.6,6.73a27.26,27.26,0,0,1,5.88,6.63c-8.42-2.57-20.11,4.34-23.35,11.9-3.53,8.24-9,15.73-14.19,23.14-2,2.84-9.14-.4-10.38-5-1.34-4.93-3.09-8.91-7.7-12-4.77-3.18-3.41-16.1,1-19.78a33,33,0,0,0,7.06-8.08,6.32,6.32,0,0,0-.35-5.86,6,6,0,0,0-5.63-1.25c-5,2.34-9,.36-13.33-1.71-8.29-3.95-16.71-3.15-23.17,3.11S180.92,469,173.48,470c-1.51.21-2.92,1.19-4.39,1.76-2.39.91-5.27,3.09-7.09,2.42-5.66-2.07-9.7.36-14.26,2.87-1.93,1.05-4.9.83-7.24.35-2.58-.52-6.17-3.55-7.21-2.74a17.13,17.13,0,0,0-5.78,8.59c-1.12,4.13-.72,8.68-.94,12.44-4.65-3.86-8.49-9.25-13.42-10.55-5.3-1.39-11.61,1.05-18.06,1.9-1.72-4.49-5.07-5.55-9.43-.82-1.47-11,2.44-15.28,11.79-14.81,2.45.13,5.16-1.36,7.46-2.62a72.6,72.6,0,0,0,10.34-6.66c6.66-5.32,13.06-11,19.61-16.44,2.78-2.32,5.7-4.48,8.52-6.75,1.14-.92,3.1-2,3.09-3-.07-7.93,6.81-6.92,11.22-8.54,1.63-.59,5.08.89,6.25,2.49,2.85,3.92,5.86,3.72,9.51,1.86,1.14-.58,2.23-1.56,3.42-1.71,11.21-1.36,22.45-2.51,33.66-3.85C216.77,425.46,223,424.47,229.37,423.57Z"/><path class="cls-1" d="M59.11,538.76c-4.28-7.93-4.62-7.88-17,2.3.28-3.43.52-6.49.63-7.85,3.6-1.3,7.66-1.53,8.67-3.4,2.13-4-.27-7.42-4.34-9.24-3.84-1.72-7.26-3.62-6.44-9.19l8.9,1.37c-.14-3-.24-5.21-.41-9.05,4.82,5.19,8.24,4.89,10.66-.45.23-.5,1.14-1.21,1.38-1.1,7.7,3.72,7.66-3.45,10.13-7.12,3.63-5.39,8.74-4.1,14-3,.52,2.26,1,4.56,1.58,6.82,1.78,6.7,10.54,9.89,15.87,5.51,2.35-1.93,4.78-4.39,6.58-.83.93,1.83-.79,5.39-2.05,7.79-.77,1.47-2.92,2.22-5.91,4.3,8.51,4.17,16.27,8.1,16,18.93-11.81,7.37-13.39,21.91-19.49,33.73-2.5,4.85-2,11.16-3.36,16.7-.83,3.48-2.32,6.51-7.26,4.21-.89-.41-5.26,3.31-5,4.29,1.71,6.19-3.48,6.54-5.59,8.74-1.25-4.16-2.72-8-3.41-11.87-.29-1.67,1.16-3.6,1.59-5.46.53-2.31.83-4.68,1.24-7-2.76.18-6.28-.66-8.12.73-5.92,4.47-5.87,10.83-2.55,18.93l-13.06-5.79c2.47-1.83,3.91-2.61,5-3.74,3.07-3.24,4.48-6.82,1.54-11-5.41-7.59-4.12-12.09,3.12-17.64,5.69-4.36,8.24-10.81,11.06-17.78,4.15-10.25-5.38-13.6-6.65-20.65-.26-1.4-5-3.23-7.23-2.75-3.14.69-3.86,8.78-1.4,12.07C59.6,532.7,62.79,534.66,59.11,538.76Z"/><path class="cls-1" d="M151,487.14c5.18,5.66,15.66,7.48,21.66,4.06,2.53-1.45,3.66-5.34,4.77-7.85,9.83-10.17,19.16-2.55,28.84,1.71.77,3.72,1.87,8,2.4,12.39a4.79,4.79,0,0,1-2.29,3.8c-7.87,3.53-12.83,9.15-13.42,18.28l-2.08,1.16a65.43,65.43,0,0,0-3.7-5.93c-5.68-7.31-22-3.94-24.88,5.65-.93,3.11-4,6.14-6.91,8-4.45,2.8-5.61,6.11-3.67,11.26-4.29-.33-9.38,2.33-9.44-5.06a2.42,2.42,0,0,0-1.61-1.69c-7.68-.63-5.82-4.74-3.57-9.24s.39-7.57-4.28-8.55c-3.26-.68-6.68-.59-10.72-1.36C134.76,508.57,147.27,503.1,151,487.14Z"/><path class="cls-1" d="M196.48,476.82l10.4-5.78c-1.94-2.45-3.87-4.91-5.83-7.38,5.74-1.57,12.28-3.57,17.74,1.42L207.3,478.67c.24.76.47,1.52.71,2.28Z"/><path class="cls-1" d="M62.73,521.31a50.3,50.3,0,0,0,3.09,7.21A58.38,58.38,0,0,0,71,534.87l-4.46,7.25-3.15-1,1.78-.94c-1.28-3.82-2.64-7.62-3.8-11.47-.65-2.14-1-4.38-1.42-6.57Z"/><path class="cls-1" d="M401,198.4c2.58.54,5.21,1.67,7.72,1.45,2.3-.2,4.48-1.86,8-3.5-.77,4.41-1.28,7.39-1.87,10.77-4.14-2.1-8.55-7.27-10.62,4.07-1.49-6.1-2.32-9.51-3.15-12.94Z"/><path class="cls-1" d="M51.7,545.78c.67,4.12.25,7.71-6.94,9.46l5-10.38Z"/><path class="cls-1" d="M530.87,62.39c-.6,2.69-.59,5.71-1.89,8-5.35,9.45-5.21,12.5,1.72,21.22.66.83.37,2.39.64,3.58,1.08,4.74.65,10.43,7.22,11.22-4.06,2.68-7.77,5.3-11.66,7.59-1.07.63-2.73.23-4.11.36s-3.84.14-3.91.53c-1,6-5.46,3.91-8.39,3.12-5.77-1.58-9.77-.16-13.5,4.49s-9.32,8.05-12.2,13.08c-4.15,7.27-6.58,15.51-10,23.92-10.34-5.36-22-11.06-33.38-17.39-11.53-6.42-16.61-6.23-26.56,2.4-2.06,1.8-4.14,3.58-6.39,5.51-2.34-2.74-4.17-5.11-6.25-7.24-3.79-3.86-9.25-4-12.41,0-4.57,5.84-6.17,11.7-.74,14.37,3.29,1.62,6.77,2.82,10.11,4.34a15.57,15.57,0,0,1,3.66,2.33c3,2.58,5.9,5.27,10.27,9.21-3.2,0-5.76.56-7.95-.1-6.91-2.07-12.38.53-14.81,7.49-.33,1-.47,2.34-1.14,2.71-2.38,1.3-4.95,2.25-7.45,3.34-.27-2.78-.85-5.59-.69-8.35.11-1.83,1.31-3.6,2-5.41,2.08-5.74.39-11-5.16-14.29-4.05-2.42-6.24-4.72-3.71-9.77,1.25-2.51.89-5.83,1.26-8.88,17-7.29,20.59-14,13.74-27.83,1.91,0,3.53-.38,4.87.07,4.9,1.64,9.71,3.52,14.54,5.36,6.38,2.43,10.53.23,11.57-6.54a23.55,23.55,0,0,0-.19-8.33c-1.22-5.76-2.92-11.3,3.64-15.29,1.14-.69,1.57-3,1.84-4.64,1.33-8.09,2.47-16.22,3.72-24.32,1-6.42.09-12.32-3.81-17.77a23.34,23.34,0,0,1-3.46-7.57c-1.85-7,3-9.76,10-12.24,6.78,7.93,14.57,16.2,21.39,25.22,7.68,10.17,15.84,19.25,28.77,22.55.95.25,2.37,1,2.52,1.69,1.46,7.34,7.69,5.33,11.18,4.27,3.87-1.17,5.44,0,7.6,2.23,5.71,5.84,11,5.81,16.22-.64,3.6-4.42,6.5-9.42,9.71-14.16Z"/><path class="cls-1" d="M605.24,12.49c9.6,6.42,12.55-7.15,20.47-9.34,1.66,4.2,1.64,7.68-3.17,9.16-7.45,2.3-13.65,6.07-17.61,13-.41.72-1.18,1.93-1.62,1.87-12.71-2-11,11-16.69,16.18-3.23,2.95-5.62,6.82-9.45,9.46C583.05,37.15,593.7,24.71,605.24,12.49Z"/><path class="cls-1" d="M564.71,55.08c-13.79,6.32-19,18-26.32,29.64,0-2.43-.68-4.63.11-5.93,5.25-8.62,10.81-17,16.63-26.08Z"/><path class="cls-1" d="M31.4,464.31l7.25-12.86c2.42,8,.88,11.13-5.38,14Z"/><path class="cls-1" d="M327,337.65c1-8.26-2.81-18.08,8-20.94.93,3.88,2.43,7.9,2.65,12,.1,1.93-1.84,4.49-3.57,5.86C332,336.13,329.24,336.7,327,337.65Z"/><path class="cls-1" d="M63.17,626.68c1.57,2.66,3.21,4.19,3,5.47s-2.19,3.38-3.3,3.32c-1.38-.08-3.8-2.11-3.71-3.11C59.32,630.77,61.17,629.34,63.17,626.68Z"/></g></g></svg>