<svg xmlns="http://www.w3.org/2000/svg" viewBox="0 0 262.89 253.81"><defs><style>.cls-1{fill:#5c968e;}.cls-2{fill:#cea252;}.cls-3{fill:none;stroke:#d0d3ba;stroke-linecap:round;stroke-linejoin:round;stroke-width:3px;}</style></defs><title>Asset 28</title><g id="Layer_2" data-name="Layer 2"><g id="Layer_1-2" data-name="Layer 1"><path class="cls-1" d="M261.39,236l-.07,16.3H1.57L1.5,236s28.32-.45,32.74-.47c.63,0-19.89-24.49-11.24-35.12C33.11,188,69.18,186.16,67.79,184.84s-4.07-3.62-4.07-7.84c0-18.23-.75-60.56,6.48-70.21,4.22-5.62,38.73-14.65,40.38-14.76s2.55-8,1.66-8c-.71,0-9.34,5-12.41,5C96.92,89,99,66.62,99,61.14c0-6.35-7.23-16.49-5.45-28.71,1.34-9.1,12.2-30.86,37.86-30.93h.11c25.66.07,36.52,21.83,37.85,30.93,1.79,12.22-5.44,22.36-5.44,28.71,0,5.48,2.05,27.88-.85,27.88-3.06,0-11.71-5-12.41-5-.89,0-.13,7.87,1.66,8s36.15,9.14,40.38,14.76c7.23,9.65,6.48,52,6.48,70.21,0,4.22-2.63,6.47-4.07,7.84s34.67,3.11,44.79,15.58c8.64,10.63-11.88,35.11-11.25,35.12C233.06,235.56,261.39,236,261.39,236ZM141.73,223.43c18.93,0,34.92-13.12,34.38-13.58-.25-.23-8.41-8.66-9.88-8.69-10.37-.17-33.72-1-33.72,2.06,0,4.8,17.38,3.83,18.61,6.23-.24.44-6,6.88-9.48,6.88-3,0-6.26-5.83-6.26-5.83C128.78,210.5,133.67,223.43,141.73,223.43ZM160.15,60.27c1.63-8.67.37-27.94-1.49-32.13s-20.36-4.87-27-4.87h-.49c-6.61,0-25.08.62-27,4.87s-3.12,23.46-1.49,32.13c3.92,20.79,17.93,25.31,28.46,25.31h.49C142.22,85.58,156.23,81.06,160.15,60.27ZM131.69,185.64c23.64,0,25.57-66.79,25.57-83,0,0-8.31-5-9-4.5-.95.69-8.21,10.41-16.57,10.41h-.49c-8.37,0-15.62-9.72-16.57-10.41-.69-.49-9,4.5-9,4.5,0,16.17,1.94,83,25.57,83Zm-10.53,37.79c8.06,0,12.94-12.93,6.34-12.93,0,0-3.22,5.83-6.25,5.83-3.52,0-9.24-6.44-9.49-6.88,1.24-2.4,18.62-1.43,18.62-6.23,0-3.08-23.35-2.23-33.73-2.06-1.46,0-9.62,8.46-9.88,8.69C86.24,210.31,102.22,223.43,121.16,223.43Z"/><path class="cls-2" d="M176.11,209.85c.54.46-15.45,13.58-34.38,13.58-8.06,0-12.95-12.93-6.35-12.93,0,0,3.23,5.83,6.26,5.83,3.51,0,9.24-6.44,9.48-6.88-1.23-2.4-18.61-1.43-18.61-6.23,0-3.08,23.35-2.23,33.72-2.06C167.7,201.19,175.86,209.62,176.11,209.85Z"/><path class="cls-2" d="M158.66,28.14c1.86,4.19,3.12,23.46,1.49,32.13-3.92,20.79-17.93,25.31-28.46,25.31h-.49c-10.53,0-24.54-4.52-28.46-25.31-1.63-8.67-.38-27.94,1.49-32.13s20.36-4.87,27-4.87h.49C138.3,23.27,156.77,23.89,158.66,28.14Zm-26.31,7.7a.91.91,0,1,0-1.81,0,.91.91,0,0,0,1.81,0Z"/><path class="cls-2" d="M157.26,102.68c0,16.17-1.93,83-25.57,83h-.49c-23.63,0-25.57-66.79-25.57-83,0,0,8.31-5,9-4.5,1,.69,8.2,10.41,16.57,10.41h.49c8.36,0,15.62-9.72,16.57-10.41C149,97.69,157.26,102.68,157.26,102.68Z"/><path class="cls-2" d="M127.5,210.5c6.6,0,1.72,12.93-6.34,12.93-18.94,0-34.92-13.12-34.39-13.58.26-.23,8.42-8.66,9.88-8.69,10.38-.17,33.73-1,33.73,2.06,0,4.8-17.38,3.83-18.62,6.23.25.44,6,6.88,9.49,6.88C124.28,216.33,127.5,210.5,127.5,210.5Z"/><path class="cls-3" d="M131.2,85.58c-10.53,0-24.54-4.52-28.46-25.31-1.63-8.67-.38-27.94,1.49-32.13s20.36-4.87,27-4.87"/><path class="cls-3" d="M131.2,185.64c-23.63,0-25.57-66.79-25.57-83,0,0,8.31-5,9-4.5,1,.69,8.2,10.41,16.57,10.41"/><path class="cls-3" d="M131.39,1.5c-25.66.07-36.52,21.83-37.86,30.93C91.75,44.65,99,54.79,99,61.14,99,66.62,96.92,89,99.83,89c3.07,0,11.7-5,12.41-5,.89,0,.13,7.87-1.66,8s-36.16,9.14-40.38,14.76c-7.23,9.65-6.48,52-6.48,70.21,0,4.22,2.62,6.47,4.07,7.84S33.11,188,23,200.42c-8.65,10.63,11.87,35.11,11.24,35.12-4.42,0-32.74.47-32.74.47l.07,16.3H131.22"/><path class="cls-3" d="M124.28,63.71s4,3.53,6.92,3.53"/><path class="cls-3" d="M108.52,45.52s4.94,1.47,7.09,1.83c1.88-.33,6.41-1.84,6.41-1.84"/><path class="cls-3" d="M127.5,210.5s-3.22,5.83-6.25,5.83c-3.52,0-9.24-6.44-9.49-6.88,1.24-2.4,18.62-1.43,18.62-6.23,0-3.08-23.35-2.23-33.73-2.06-1.46,0-9.62,8.46-9.88,8.69-.53.46,15.45,13.58,34.39,13.58C129.22,223.43,134.1,210.5,127.5,210.5Z"/><path class="cls-3" d="M131.69,23.27c6.61,0,25.08.62,27,4.87s3.12,23.46,1.49,32.13c-3.92,20.79-17.93,25.31-28.46,25.31"/><path class="cls-3" d="M131.69,108.59c8.36,0,15.62-9.72,16.57-10.41.69-.49,9,4.5,9,4.5,0,16.17-1.93,83-25.57,83"/><path class="cls-3" d="M131.22,252.31h130.1l.07-16.3s-28.33-.45-32.75-.47c-.63,0,19.89-24.49,11.25-35.12C229.77,188,193.7,186.16,195.1,184.84s4.07-3.62,4.07-7.84c0-18.23.75-60.56-6.48-70.21C188.46,101.17,154,92.14,152.31,92s-2.55-8-1.66-8c.7,0,9.35,5,12.41,5,2.9,0,.85-22.4.85-27.88,0-6.35,7.23-16.49,5.44-28.71C168,23.33,157.16,1.57,131.5,1.5h-.11"/><path class="cls-3" d="M138.61,63.71s-4,3.53-6.92,3.53"/><path class="cls-3" d="M154.37,45.52s-4.94,1.47-7.09,1.83c-1.88-.33-6.41-1.84-6.41-1.84"/><path class="cls-3" d="M135.38,210.5s3.23,5.83,6.26,5.83c3.51,0,9.24-6.44,9.48-6.88-1.23-2.4-18.61-1.43-18.61-6.23,0-3.08,23.35-2.23,33.72-2.06,1.47,0,9.63,8.46,9.88,8.69.54.46-15.45,13.58-34.38,13.58C133.67,223.43,128.78,210.5,135.38,210.5Z"/><circle class="cls-3" cx="131.44" cy="35.84" r="0.9"/></g></g></svg>