<svg xmlns="http://www.w3.org/2000/svg" viewBox="0 0 232.57 174.37"><defs><style>.cls-1{fill:#d0d3ba;}</style></defs><title>Asset 6</title><g id="Layer_2" data-name="Layer 2"><g id="Layer_1-2" data-name="Layer 1"><path class="cls-1" d="M49.56,124.7l2.35-20.64a333.68,333.68,0,0,0,47.31,11.63C61.24,104.56,9.28,68.61,0,51.62L7.59,45.9C22.34,66,44.41,75.41,44.41,75.41s-22.19-20.56-33-32.33l8.76-7.49c12.14,18.85,58.22,60.7,98.41,75.69-47.64-28-83.78-69.9-94.82-96.66L36.14,5.79c6.34,14.9,26.05,38.86,40.55,54.91C64,43,45.48,14.74,40.79,6.19L60.41,1.66C69,29.52,91.13,69.53,112.47,89c-14-28.69-28.88-70.81-31.26-75.79L90,10.72c7.31,24.42,44.05,95.78,60.88,109.57-8.28-19.59-49.11-94-58.35-109.94L103.27,5.7c4,9.75,22.62,49.66,34.76,67.5C129.94,51.5,117,19.68,111.36,4.6l12.51-2c3.31,19.49,7.36,35.68,17.11,54.81-5.5-17.06-12.1-48.75-13-54.54L141.9,0c.82,18,5.7,57,7.08,75.6-1-18.19,6-54.45,10.39-65.3l11.22,5.89c-8.65,24.37-21.34,73.94-3.31,103.73,8.95,14.8,49.57,30.44,65.29,36.51l-9.74,17.94C157.35,135.74,122.12,126.64,49.56,124.7Z"/></g></g></svg>