<svg xmlns="http://www.w3.org/2000/svg" viewBox="0 0 319.27 232.42"><defs><style>.cls-1{fill:#d0d3ba;}.cls-2{fill:none;}</style></defs><title>Asset 36</title><g id="Layer_2" data-name="Layer 2"><g id="Layer_1-2" data-name="Layer 1"><path class="cls-1" d="M100.75,21.19c3,.6,5.92,6,8.66,7.9,2.19-2.21,4-6.87,7-8.12.65-.28.82,6.18.62,7.9-.34,3.06-.34,3.06,2.08,6.32,3.48,4.7,11.72,6.11,9.86,11.89-1.25,3.91-12.94,1.64-14.1,2.2-.76.36-.78,11.19-.23,15.43.11,1.42,2.25,3.46,3.85-.35.25-.6,1.05-5.47,1.05-5.47,1.25-.21,11.17-.17,11.84-.33,4.06-3.2,14.18-2.81,14.65.16h64.83c.39,3.49.78,6.87,1.16,10.25l.27.08a92.85,92.85,0,0,1,7-17.74c3.32-6.49,4.7-10.55,3.39-14.9-.76-2.52-2.46-2.75-5.23-2.94-2-.13-5.79-.3-6.3-1,.69-.68,4.66-1.76,7.49-4.23,9-9.37,15.41-3.65,15.89,2.73.44,5.78-5.43,11.57-5.73,31.21-.14,8.33-.87,14,9.12,10.36,13.86-5,23.61-6.76,28.75-6.84,29.84,0,42.91,26.1,45.36,42.15.34,2.27,1.18,8.49-.69,7.13-4.23-3.92-4.49,1.12-7.33-.87-7.63-5.83-4.38-.75-6.21-1-.7-.1-6.78-1.26-10.52-3.31,0,0-2.61,2.76-8.64,3.44-1.33.15-2.4.41-1.12,2.73,1.42,2.7,3.51,6.07,4.67,9.8-9.22,29.23-2.1,38.07-.57,38.06,9.95-.06,21.74-.06,31.69,0,2.2,0,5.35-3.6,5.69-4.06,1.2,3.26-1.24,7.56-4.4,8-2,.25-33.16.4-46.74.49a58.12,58.12,0,0,0-7.85.92c-1.59.24-3.2,1.18-4.47-.79-.21-.32-81.61-.17-121.48-.17H3.71c-1.59,0-3.71.26-3.71-1.95,0-6.79,23.65-1.56,40.71-11.08,7.7-4.29,10.76-7.44,10.95-13.79.43-14.82-3.27-30.8-.16-41.11C62.12,77.8,76.72,78,89.58,62.21c6.34-7.76,11.33-9.15,11.15-17.72-.14-6.47,2.11-10.72,1.85-13C101.67,27.89,100.66,24.12,100.75,21.19ZM213,80.56c.17,1,.42,2,.51,3.09.46,5.8,3.46,32.55,1.18,41.87a43.31,43.31,0,0,1-9.28,20.09c-9.75,12.33-20.11,15.76-31.05,18.06,1.1.11,33.63.11,48.81.1,1.59,0,3.1.25,4.39-1.41,3.14-4.38,15.34-2,16.29-3.76,3.69-7.06,7-13.07,9.61-20.78,4.62-14.32-1.19-22.36-3.58-25.94a38.48,38.48,0,0,1-6.58-.11C222.51,108.49,214.41,93.36,213,80.56Zm-67.4-19.15a4.07,4.07,0,0,1-6.47-.47L121.63,61c-.75,6.5-1.53,12.94-2.22,19.38-.63,6-1.38,12-1.69,18-.37,7.39-.48,14.79-.45,22.19,0,5.42,1.84,10.51,4.14,15.32A43.34,43.34,0,0,0,137.58,154c8.53,5.45,17.86,7.76,27.77,8A54.77,54.77,0,0,0,176,160.7a45.75,45.75,0,0,0,23.63-12,40.52,40.52,0,0,0,12.07-21.05,70,70,0,0,0,1.73-15.51c-.07-7.16-1-14.31-1.6-21.46-.29-3.64-.55-7.29-.91-10.93-.53-5.34-2.11-18.32-2.11-18.32Zm-31.14,51.92c-1.76-.33-5.1.65-5.84-3.9-.38-2.38,5.13-1.67,2.51-5.16-1.71-2.28-5-4.93-6.76-7.14-1.15-1.41-2.28-1.46-3.49,0-2.07,2.39-13.25,9.61-12,17.43,2.4,14.69-3.74,36-3.87,41.1a4.8,4.8,0,0,0,5.24,5.18c7.25-.21,14.52-.18,21.78,0,2.59.06,5.43.23,7.18,3,.16.26,24.91,0,37.37,0C131.26,158.94,113.77,140.66,114.48,113.33Zm144.1-.67c-.23.1,6.87,11.55,6.42,12.42-.93,1.83-3.14,7.79-3.93,9.66-2.31,5.42-9.21,24.68-10.68,29.33l6,.06c3.89-3.5,5.45-4.9,10.33-3.88,3.54.73,5.62,0,6.31-2.64.81-3.15-.64-39.56-3.49-43.46C269.51,114.15,259.88,113.26,258.58,112.66Zm-185.89,51c.18-1.86,3-15.22,2.5-23.66-.11-2-2.21-2.59-3.66-2.21-3.38.86-11.4,20.32-17,25.87ZM117.83,73.4c-2.32,1.3-10.46,15.69-8.87,18,2,2.89,4.09,5.71,6.39,8.88C116,92.29,117.13,81.55,117.83,73.4Z"/><path class="cls-1" d="M36.5,194.32c-.63-.47-1.82-.31-2.73-.25-6.36-.23-11.49-2.42-13.89-4.3,1.87-.46,8.84-.18,14.13,2.49-1.34-2-5.57-6.35-4.73-7,.37-.29,3.6,2.92,4.91,4.1-1.82-4-1.87-13.87-1.67-13.94a70.74,70.74,0,0,1,2.7,7.77c.65,2.87.79,5.86,1.16,8.8a1,1,0,0,0,.28.55c2.46,2,5.84,4.71,8.19,6.59-2.67-4.52-4.25-12.74-4-14.4.62.39,4.75,7.1,5.89,14.13a4.52,4.52,0,0,0,1.52,2.23,58.85,58.85,0,0,0,7.8,4.36c-3.1-5.33-5-12.8-4.89-16,.67.86,5.54,10.33,6.3,14.54a4.08,4.08,0,0,0,3,3.38,109.31,109.31,0,0,0,22,5.78A89.47,89.47,0,0,0,95,214a25.54,25.54,0,0,1-13.21-13.3c6.39,3.24,11.57,6.95,14.38,13.36,3.56.07,7.73.27,11.47.35-3.77-1.77-12.56-8.41-14.89-13.45a30.58,30.58,0,0,1,17.45,13.52h24.06c-5-2.27-10-6.1-14.89-13.54,6.14,1.29,14.79,8.49,16.08,13.64,6.86-.22,75.37-.67,82.05-.51,1.36-.07,1.83-.11,3.47-2.31,3.26-5.07,10.45-11,14.4-12.43-2.75,7.16-7.73,11.28-13.72,14.78,1.32,0,2.83-.17,4.14-.24s21.92-2,30.31-3.74c2.11-.5,2.67-.64,4.22-4.45,1.59-4.18,3.41-8.61,6.84-12.7-.71,6.33-1.91,10.53-5.39,15.08,2.35-.79,7-2.48,8.55-3.16.93-.42,1.17-2.19,1.69-4.45.82-4.73,2.7-8.06,5.36-12.23-.45,7-1.75,10.3-3.82,15.3,2.54-1.28,5.74-3,8.21-4.42.6-.34.49-1.28.6-2.36a26.88,26.88,0,0,1,4.79-13.94c.23,8.17-3.42,14.75-3.86,15.85l9.15-7.29c-.54-8,.7-11.7,3.63-17.34.84,5.29-.41,10.68-2.1,15.61,1.85-2.14,5.6-6.44,6.08-6.08s-2.38,4.61-4.18,6.38a46.82,46.82,0,0,1,13.1-5.29c-3.26,3.09-7.69,5.81-12.26,6.43-2.46.33-2.88.58-4.24,1.91-4.79,4.86-18.71,12.56-19,12.89a28,28,0,0,1,15.11,3.36c-.25.34-11.7.78-16.6-2.63a1.46,1.46,0,0,0-1.12,0,104.18,104.18,0,0,1-25.73,6.62c-6.6.79-13,1.52-19.63,2.26-.91.1-2,.27-3.17.49,5.42,3,9.48,5.41,14.22,11.66-7.85-1.94-14.5-8.92-16.25-10.86a2.68,2.68,0,0,0-1.65-.9c-9.49-.2-17-.23-26.52-.21-4.52,0-16.69.49-16.69.49,6.11,2.79,9.71,4.13,17.91,9.46a33.93,33.93,0,0,1-6.67-1.3c-4.36-1.42-12.06-6.71-14.27-7.9-2.82-.26-13.42-.08-13.42-.08-4.2,2.4-17.5,8.09-22,8.9,4.69-2.95,12.32-7,18.77-8.74-1-.11-15.45,0-21.63-.12-.57,0-.87.32-1.44,1.52-2.12,4.14-7,8.58-12.75,10.84,1.78-3.49,5.66-9.14,10.77-12.2-.71-.12-14.77-.29-21.38-.23a3,3,0,0,0-1.87.83c-3.48,4.22-12,10.32-15.84,10.82,3.59-5.18,9.89-9.58,14.42-11.81H94.84c-.83,3.32-9.69,9-15.56,10.33,2.31-3.83,8.92-8.61,14.52-11.08-2.64,0-5.92,0-8.2-.16s-2.33.24-4.22,1.8a27.86,27.86,0,0,1-14.89,6.28c3.93-4.44,9.42-6.85,15-8.41-3.28-.71-7.19-1.44-10.08-2.19-1.12-.29-1.48,0-2.47.71A33.25,33.25,0,0,1,52.6,218.8c4.49-3.63,9.9-5,15.73-6.77-1.85-.73-3.25-1.37-4.7-1.83-5.83-1.81-17.06-8.17-17.46-8.32C46.17,201.88,39.82,196.76,36.5,194.32Z"/><path class="cls-1" d="M155.14,42.14,154,30.41l-9.67-1.9,7.48-8.58-4.21-10.6,12,1.23S163.21,3.5,165.35,0c2,3.54,5.89,10.84,5.89,10.84l10.95-1.51-4.41,10.06,7.68,8.89-10,2.77-.75,11.46-10.22-7.32Zm10-21.66,4.31-8.75-4.1-8.47ZM182,27.25l-6-7-8.92,2Zm-18.49-5.14-9.45-1.56L148,27.25Zm9.2,16.11.49-8.19-6.81-6.34Zm-8.59-14.4L156,29.56l.73,8.07ZM151,11.82l12.67,9-4.44-8.16Zm28.19,0-7.7,1.08-4.62,7.79Z"/><path class="cls-1" d="M148.64,49.6c-1.89,0-3-.65-3.08-2.7,0-2.32.88-3.4,3.14-3.4q16.44,0,32.88,0a3.13,3.13,0,0,1,3.2,3c0,2-1,3-3.26,3.06C175.93,49.6,154,49.56,148.64,49.6Zm12-1.22-4-3.68h-6.86l4,3.68Zm2.82-3.68,4,3.68,6.83-.07-4-3.61Zm13.78,0c.89.79,2.91,2.62,4,3.68a1.91,1.91,0,0,0,2.12-1.86C183.39,44.39,179.63,44.67,177.24,44.72Z"/><path class="cls-1" d="M104.76,200.33a29.65,29.65,0,0,1,17,13.76C114.31,212.37,109,207,104.76,200.33Z"/><path class="cls-1" d="M194.62,199.72c-2.33,5.16-8.94,12-15.2,13.9C183.25,207.38,187.72,202.31,194.62,199.72Z"/><path class="cls-1" d="M247,199.08c.23,3.9-7.65,11.53-13.59,13.17C233.81,208.31,241.45,201.08,247,199.08Z"/><path class="cls-1" d="M120.69,216.9c-1.91,5-9.45,11.24-15.32,11.53C107.53,224.43,115.62,217.92,120.69,216.9Z"/><path class="cls-1" d="M208.75,200.75c-2.51,5.23-8.24,10.87-14.18,12.36C196.36,208.76,203.7,202,208.75,200.75Z"/><path class="cls-1" d="M133.34,200.34c6.27,3.25,10.79,7,13.91,13.5C141.81,212.34,134.82,205,133.34,200.34Z"/><path class="cls-1" d="M209,228.12c-7.12-1.9-11.82-5.79-14.85-12.44C200.71,218.21,205,222.65,209,228.12Z"/><path class="cls-1" d="M208.24,213.61c2.62-6.61,10.71-11.6,14.69-13a9.3,9.3,0,0,1-.74,1.56A35.39,35.39,0,0,1,208.24,213.61Z"/><path class="cls-1" d="M208.93,216.08c6.38,2.64,11.24,6.21,14.84,11.87C216.87,226.31,212.58,222.69,208.93,216.08Z"/><path class="cls-1" d="M38,211.55A34,34,0,0,1,56.86,208C51.37,212.22,43.52,212.62,38,211.55Z"/><path class="cls-1" d="M71.08,210.12a19.15,19.15,0,0,1-9.69-14.42C65.56,198.69,68.87,202.25,71.08,210.12Z"/><path class="cls-1" d="M84.17,212.62c-6.81-2.44-10.57-7.45-13.09-13.45C77.13,201.9,81.25,206.17,84.17,212.62Z"/><path class="cls-1" d="M46.17,201.88c-6.86,2.13-14.85,1.62-18.76-.52a35,35,0,0,1,18.83.58Z"/><path class="cls-1" d="M246.73,211.52c2.32-5.15,3.41-7.43,11.46-13.28C258.78,201.83,252.53,209.19,246.73,211.52Z"/><path class="cls-1" d="M235.53,215.59a26.44,26.44,0,0,1,13.95,10.11C245.1,225.36,236.39,220.09,235.53,215.59Z"/><path class="cls-1" d="M247.34,213.6A24.07,24.07,0,0,1,262,220.47C257.33,220.71,250,217.54,247.34,213.6Z"/><path class="cls-1" d="M260.34,210.69c6-.34,10.72,1.84,15.13,5.1C269.46,215.83,265.57,215.44,260.34,210.69Z"/><path class="cls-1" d="M283.83,201.14c4.7-3.28,9.93-3.73,15.36-3.1C294.51,201.32,289.25,201.62,283.83,201.14Z"/><polygon class="cls-1" points="123.77 93.36 121.89 91.59 120.02 93.36 121.89 87.18 123.77 93.36"/><polygon class="cls-1" points="122.99 122.99 120.96 121.41 119.25 123.33 120.56 117.01 122.99 122.99"/><polygon class="cls-1" points="134.34 144.82 131.78 145.1 131.9 147.67 128.43 142.23 134.34 144.82"/><polygon class="cls-1" points="157.57 156.23 155.32 157.49 156.44 159.81 151.11 156.16 157.57 156.23"/><polygon class="cls-1" points="173.75 159.74 174.91 157.43 172.68 156.14 179.13 156.17 173.75 159.74"/><polygon class="cls-1" points="126.77 67.84 124.89 66.08 123.01 67.84 124.89 61.66 126.77 67.84"/><polygon class="cls-1" points="152.86 67.84 150.99 66.08 149.11 67.84 150.99 61.66 152.86 67.84"/><polygon class="cls-1" points="181.12 67.84 179.24 66.08 177.37 67.84 179.24 61.66 181.12 67.84"/><polygon class="cls-1" points="207.49 67.84 205.61 66.08 203.74 67.84 205.61 61.66 207.49 67.84"/><polygon class="cls-1" points="210.17 93.4 208.27 91.67 206.42 93.46 208.2 87.25 210.17 93.4"/><polygon class="cls-1" points="211.03 123.5 209.34 121.56 207.29 123.12 209.79 117.17 211.03 123.5"/><polygon class="cls-1" points="198.57 147.66 198.61 145.08 196.04 144.88 201.87 142.11 198.57 147.66"/><path class="cls-2" d="M134.93,96.83h-8.46c-.33,4.65-.64,9.12-1,13.69h9.43Z"/><path class="cls-2" d="M144.84,110.43h6.7V96.76h-6.7Z"/><path class="cls-2" d="M151.5,70.68h-6.7V85.22h6.7Z"/><path class="cls-2" d="M136.42,92.07c-.26.3-.88.92-.78,1.06.15.3.19.28.63.13a27.8,27.8,0,0,1,3.15-1.18c1.33-.11.53,1.81,1.17,1.82.41,0,.54-1.78.91-1.85,2.34-.43.72,2,2,1.85.34-.05.42-2.18.23-3a5.6,5.6,0,0,0-1.13-2.11c-.39-.49-2.15-.92-2.51-.39s1.08.25,1.27.73,0,.76-1.88.73a2.16,2.16,0,0,0-1.35-1.77c-.06,0-.12-.41-.27-.48s-.38.24-.47.25a2,2,0,0,0-1.27.75c-.1.14-.41,0-.47.23s.41.32.38.43c-.33,1.17,1.15,1.79,1,2s-1.49-1-1.67-.72C135,91.2,136.59,91.87,136.42,92.07Z"/><path class="cls-2" d="M135.05,70.51a45.37,45.37,0,0,0-4.71.06,1.94,1.94,0,0,0-1.29,1.29c-.41,2.61-.66,5.24-.92,7.87-.18,1.81-.28,3.63-.41,5.42h7.33Z"/><path class="cls-2" d="M153.49,110.49h23.32V70.66H153.49Z"/><path class="cls-1" d="M168.77,86.88l.71-1.62-1.76.24s-.63-1.18-.95-1.75c-.35.57-.93,1.71-.93,1.71l-1.93-.2.68,1.71-1.21,1.38,1.56.31.18,1.89,1.5-1.12,1.65,1.18.12-1.85,1.62-.45Z"/><path class="cls-1" d="M162.51,94.55l.63-1.44-1.57.21s-.56-1-.85-1.55c-.3.5-.82,1.52-.82,1.52l-1.72-.18.6,1.52-1.07,1.23,1.39.27.16,1.68,1.34-1,1.46,1.05.11-1.65,1.44-.39Z"/><path class="cls-1" d="M172.59,93.88l.64-1.46-1.58.22s-.56-1.06-.86-1.57c-.31.5-.83,1.53-.83,1.53l-1.74-.18.61,1.53-1.08,1.25,1.4.27.16,1.7,1.35-1,1.48,1.06.11-1.66,1.45-.4Z"/><path class="cls-1" d="M166.45,104.34l1-2.22-2.42.33s-.85-1.61-1.29-2.39c-.48.77-1.27,2.33-1.27,2.33l-2.64-.27.92,2.34-1.64,1.88,2.13.42.24,2.59,2.06-1.53,2.25,1.61.17-2.52,2.21-.61Z"/><path class="cls-1" d="M173.17,100.44l.5-1.14-1.23.17s-.44-.82-.67-1.22c-.24.4-.65,1.19-.65,1.19l-1.36-.14.48,1.2-.84,1,1.09.22.13,1.32,1-.78,1.16.83.08-1.3,1.13-.31Z"/><path class="cls-1" d="M171.45,74.06c-1.11-2-3.8-.55-5-1-.4-.14.35-1.34-1.26-1.34s-.7,1.06-1.33,1.34c-1,.44-4-.94-5,1.06s1.88,5.49,2.86,6.38h6.8C169.55,79.44,172.62,76.19,171.45,74.06Zm-7.22,3.38c-.23,0-.4-.12-.51-.33-.3-.56-.76-1.81-1.63-1.47-.71.28-.33,1.17-.1,1.45a.46.46,0,0,1,0,.61.44.44,0,0,1-.33.16.43.43,0,0,1-.28-.11c-1.05-.89-1.13-1.65-1-2.14a2,2,0,0,1,1.4-1.3c1.29-.27,2.34.73,2.75,2.61A.44.44,0,0,1,164.23,77.44Zm4.73.31a.43.43,0,0,1-.28.11.42.42,0,0,1-.33-.16.45.45,0,0,1,.05-.61c.23-.28.61-1.17-.1-1.45-.88-.34-1.34.91-1.63,1.47-.11.21-.28.38-.52.33a.44.44,0,0,1-.33-.52c.41-1.88,1.46-2.88,2.75-2.61a2,2,0,0,1,1.39,1.3C170.09,76.1,170,76.86,169,77.75Z"/><path class="cls-2" d="M138.32,108.07l.19,1.89,1.5-1.12,1.65,1.18.12-1.85,1.61-.45-1.23-1.43.71-1.62-1.77.24s-.62-1.18-.95-1.75c-.34.57-.92,1.71-.92,1.71l-1.94-.2.68,1.71-1.21,1.38Z"/><path class="cls-2" d="M134.93,96.83h-8.46c-.33,4.65-.64,9.12-1,13.69h9.43Z"/><path class="cls-2" d="M128.51,94.44l1.5-1.13,1.65,1.19.12-1.85,1.62-.45-1.24-1.43.71-1.63-1.77.25s-.62-1.18-.95-1.75c-.34.56-.92,1.7-.92,1.7l-1.94-.2.68,1.71-1.2,1.39,1.56.3Z"/><path class="cls-2" d="M136.42,92.07c-.26.3-.88.92-.78,1.06.15.3.19.28.63.13a27.8,27.8,0,0,1,3.15-1.18c1.33-.11.53,1.81,1.17,1.82.41,0,.54-1.78.91-1.85,2.34-.43.72,2,2,1.85.34-.05.42-2.18.23-3a5.6,5.6,0,0,0-1.13-2.11c-.39-.49-2.15-.92-2.51-.39s1.08.25,1.27.73,0,.76-1.88.73a2.16,2.16,0,0,0-1.35-1.77c-.06,0-.12-.41-.27-.48s-.38.24-.47.25a2,2,0,0,0-1.27.75c-.1.14-.41,0-.47.23s.41.32.38.43c-.33,1.17,1.15,1.79,1,2s-1.49-1-1.67-.72C135,91.2,136.59,91.87,136.42,92.07Z"/><path class="cls-2" d="M146.41,92.54l.18,1.9,1.51-1.13,1.65,1.19.12-1.85,1.61-.45-1.23-1.43.71-1.63-1.77.25s-.62-1.18-.95-1.75c-.34.56-.92,1.7-.92,1.7l-1.94-.2.68,1.71-1.21,1.39Z"/><path class="cls-2" d="M144.84,110.43h6.7V96.76h-6.7Z"/><path class="cls-2" d="M138.32,75.85l.19,1.89,1.5-1.12,1.65,1.18.12-1.85,1.61-.44-1.23-1.44.71-1.62-1.77.24s-.62-1.17-.95-1.74c-.34.56-.92,1.7-.92,1.7l-1.94-.2.68,1.71-1.21,1.38Z"/><path class="cls-2" d="M151.5,70.68h-6.7V85.22h6.7Z"/><path class="cls-2" d="M135.05,70.51a45.37,45.37,0,0,0-4.71.06,1.94,1.94,0,0,0-1.29,1.29c-.41,2.61-.66,5.24-.92,7.87-.18,1.81-.28,3.63-.41,5.42h7.33Z"/><path class="cls-2" d="M153.49,110.49h23.32V70.66H153.49Z"/><path class="cls-1" d="M186.87,87.85a2.08,2.08,0,0,0-1.5,1.4c-.13.52-.05,1.34,1.08,2.3a.48.48,0,0,0,.3.11.48.48,0,0,0,.36-.17.5.5,0,0,0-.06-.66c-.24-.3-.65-1.25.11-1.55.94-.37,1.44,1,1.75,1.58.12.22.31.41.56.35a.47.47,0,0,0,.36-.55C189.39,88.63,188.26,87.56,186.87,87.85Z"/><path class="cls-1" d="M194.13,87.85c-1.39-.29-2.52.78-3,2.81a.47.47,0,0,0,.36.55c.25.06.44-.13.56-.35.31-.6.81-2,1.75-1.58.76.3.35,1.25.11,1.55a.5.5,0,0,0-.06.66.48.48,0,0,0,.36.17.48.48,0,0,0,.3-.11c1.13-1,1.22-1.78,1.08-2.3A2.08,2.08,0,0,0,194.13,87.85Z"/><path class="cls-1" d="M201.81,83.6l-6.51.52,3.1-11.61s-4.08,1.85-6,2.83a2.77,2.77,0,0,1-2.89.16c-2.11-1.07-6.94-2.94-6.94-2.94l2.81,11.63-6.09-.92c2.6,5.53,2.38,8.5,0,14.2,2.39-.62,6.18-1.26,6.18-1.26l-3,12.27s5.62-2.66,8.39-2.76,7.75,2.77,7.75,2.77L195.8,95.85l6,1.41C199.47,92.76,199,88.4,201.81,83.6Zm-7.69,10.94h-7.31c-1.06-1-4.07-4.72-3.08-6.87s4.28-.67,5.34-1.14c.67-.3-.24-1.43,1.42-1.43s.93,1.28,1.36,1.43c1.3.46,4.19-1.11,5.39,1.06S195.18,93.36,194.12,94.54Z"/><path class="cls-2" d="M135.05,70.51a45.37,45.37,0,0,0-4.71.06,1.94,1.94,0,0,0-1.29,1.29c-.41,2.61-.66,5.24-.92,7.87-.18,1.81-.28,3.63-.41,5.42h7.33Z"/><path class="cls-2" d="M128.51,94.44l1.5-1.13,1.65,1.19.12-1.85,1.62-.45-1.24-1.43.71-1.63-1.77.25s-.62-1.18-.95-1.75c-.34.56-.92,1.7-.92,1.7l-1.94-.2.68,1.71-1.2,1.39,1.56.3Z"/><path class="cls-2" d="M138.32,108.07l.19,1.89,1.5-1.12,1.65,1.18.12-1.85,1.61-.45-1.23-1.43.71-1.62-1.77.24s-.62-1.18-.95-1.75c-.34.57-.92,1.71-.92,1.71l-1.94-.2.68,1.71-1.21,1.38Z"/><path class="cls-2" d="M134.93,96.83h-8.46c-.33,4.65-.64,9.12-1,13.69h9.43Z"/><path class="cls-2" d="M151.5,70.68h-6.7V85.22h6.7Z"/><path class="cls-2" d="M144.84,110.43h6.7V96.76h-6.7Z"/><path class="cls-2" d="M146.41,92.54l.18,1.9,1.51-1.13,1.65,1.19.12-1.85,1.61-.45-1.23-1.43.71-1.63-1.77.25s-.62-1.18-.95-1.75c-.34.56-.92,1.7-.92,1.7l-1.94-.2.68,1.71-1.21,1.39Z"/><path class="cls-2" d="M138.32,75.85l.19,1.89,1.5-1.12,1.65,1.18.12-1.85,1.61-.44-1.23-1.44.71-1.62-1.77.24s-.62-1.17-.95-1.74c-.34.56-.92,1.7-.92,1.7l-1.94-.2.68,1.71-1.21,1.38Z"/><path class="cls-2" d="M136.42,92.07c-.26.3-.88.92-.78,1.06.15.3.19.28.63.13a27.8,27.8,0,0,1,3.15-1.18c1.33-.11.53,1.81,1.17,1.82.41,0,.54-1.78.91-1.85,2.34-.43.72,2,2,1.85.34-.05.42-2.18.23-3a5.6,5.6,0,0,0-1.13-2.11c-.39-.49-2.15-.92-2.51-.39s1.08.25,1.27.73,0,.76-1.88.73a2.16,2.16,0,0,0-1.35-1.77c-.06,0-.12-.41-.27-.48s-.38.24-.47.25a2,2,0,0,0-1.27.75c-.1.14-.41,0-.47.23s.41.32.38.43c-.33,1.17,1.15,1.79,1,2s-1.49-1-1.67-.72C135,91.2,136.59,91.87,136.42,92.07Z"/><path class="cls-2" d="M153.49,110.49h23.32V70.66H153.49Z"/><path class="cls-2" d="M178.79,70.67V110.5H205c-.85-9-3.64-35.94-4.1-39.83Z"/><path class="cls-1" d="M206.54,106.47c-.17-4.08-.5-8.17-.87-12.25-.52-5.55-1.13-11.1-1.73-16.65-.32-3-.69-6.07-1-9.17H127.26c-.17,2-.3,3.79-.49,5.57-.56,5.48-1.17,11-1.7,16.43-.36,3.64-.47,7.31-.93,10.94a70.39,70.39,0,0,0,0,20.8,37.43,37.43,0,0,0,13.56,23.51A44.92,44.92,0,0,0,186,150,38,38,0,0,0,200.93,136a38.57,38.57,0,0,0,5.63-19.22C206.66,113.33,206.69,109.9,206.54,106.47ZM145.38,89.14l1.94.2s.58-1.14.92-1.7c.33.57.95,1.75.95,1.75l1.77-.25-.71,1.63,1.23,1.43-1.61.45-.12,1.85-1.65-1.19-1.51,1.13-.18-1.9-1.56-.3,1.21-1.39Zm6.16,7.62v13.67h-6.7V96.76ZM144.8,70.68h6.7V85.22h-6.7Zm-7.51,1.77,1.94.2s.58-1.14.92-1.7c.33.57.95,1.74.95,1.74l1.77-.24-.71,1.62,1.23,1.44-1.61.44-.12,1.85L140,76.62l-1.5,1.12-.19-1.89-1.56-.31L138,74.16Zm-1.86,18.11c.18-.28,1.61.79,1.67.72s-1.36-.81-1-2c0-.11-.45-.13-.38-.43s.37-.09.47-.23a2,2,0,0,1,1.27-.75c.09,0,.24-.36.47-.25s.21.45.27.48a2.16,2.16,0,0,1,1.35,1.77c1.85,0,2-.33,1.88-.73s-1.71-.06-1.27-.73,2.12-.1,2.51.39a5.6,5.6,0,0,1,1.13,2.11c.19.79.11,2.92-.23,3-1.32.2.3-2.28-2-1.85-.37.07-.5,1.86-.91,1.85-.64,0,.16-1.93-1.17-1.82a27.8,27.8,0,0,0-3.15,1.18c-.44.15-.48.17-.63-.13-.1-.14.52-.76.78-1.06S135,91.2,135.43,90.56Zm1.86,14.11,1.94.2s.58-1.14.92-1.71c.33.57.95,1.75.95,1.75l1.77-.24-.71,1.62,1.23,1.43-1.61.45-.12,1.85L140,108.84l-1.5,1.12-.19-1.89-1.56-.31,1.21-1.38Zm-9.16-24.94c.26-2.63.51-5.26.92-7.87a1.94,1.94,0,0,1,1.29-1.29,45.37,45.37,0,0,1,4.71-.06V85.15h-7.33C127.85,83.36,128,81.54,128.13,79.73ZM128,90.85l-.68-1.71,1.94.2s.58-1.14.92-1.7c.33.57.95,1.75.95,1.75l1.77-.25-.71,1.63,1.24,1.43-1.62.45-.12,1.85L130,93.31l-1.5,1.13-.18-1.9-1.56-.3Zm-1.5,6h8.46v13.69H125.5C125.83,106,126.14,101.48,126.47,96.83Zm25.08,53.88a35.92,35.92,0,0,1-15-9.14c-7.42-7.54-11.08-17.61-11.11-28.74h26C151.48,116.36,151.55,142.94,151.55,150.71Zm25.23.66a35.79,35.79,0,0,1-20.17.93,23.9,23.9,0,0,1-3.24-1.1s0-25.72,0-38.24h23.38Zm0-40.88H153.49V70.66h23.32Zm21,26.38c-3.08,5.24-11.46,11.32-19,13.88v-38h3c7.11,0,23.2,0,23.2,0C204.47,128.44,200.33,132.55,197.8,136.87Zm-19-26.37V70.67H200.9c.46,3.89,3.25,30.79,4.1,39.83Z"/><path class="cls-1" d="M141.88,134.21l4,.21-2.22-3.27c8.31.12,2.84-7.47,5.45-8.32l-2.14,0c-.18-1.91,2.61-3.38,2.68-4.67-.51-.06-1.88,0-2,0,.23-2.06,2.14-1.57,2.14-3.9-1.68,1.08-3.19,2-4.62,3-1.58,1.1-1.29,2.91-1.6,4.5-.19,1-.37,3.53-.91,3.53-.18,0-.62-3.9-1.51-4.71-.6-.55-2.38-.35-3.68-.37.28.3.56.28.79.87.61,1.54,1.82,4.33.63,4.41-.1-.41-2.45-6.28-2.61-6.67a7.16,7.16,0,0,0-5.43-4.76c0,1.91,2.58,1.89,2.68,3.54-.41,0-1.33,0-1.75,0,0,2,2.52,2,2.58,5.32l-2.09,0c2.44.32-3,8.12,5.33,8.25a24.79,24.79,0,0,1-2.08,3.11l3.88-.06-2.59,7.15H145Z"/><path class="cls-1" d="M170.25,125.38a.92.92,0,0,0-.42,1.11c.57,2.29,3.08,9.72,3.53,11.65a2.91,2.91,0,0,1-2.64,3.67c-3.72.05-7.08.14-10.8.14-.65,0-4.28-3-4-5.64.11-.9,1.58,1.52,2.28.93,2.57-2.17,2-4.89,3-7,.85-2.54,3.46-4.36,1.41-6.31-1.4-1.34-3.16-2.28-4.62-3.56s-2.79-2.71-2.5-4.72c2.76,2.21,5.71,4.28,8.3,6.73,2,1.9,2.71,4.6,3.11,7.35.33,2.32,1.47,7.46,1.59,7.64,1,1.55,3.11,1.2,2.6-.92-.59-2.45-1.59-4.84-2.17-7.3-.41-1.71-1.3-4.65-.84-5.85.94-2.49,3.08-1.48,3.57-.25a19.33,19.33,0,0,1,1.05,3.31C172.32,126.82,170.83,125.12,170.25,125.38Z"/><path class="cls-1" d="M160.13,144.3h10.26a1.77,1.77,0,0,1-1.83,1.6c-2.3.13-4.61.27-6.91.2-.61,0-1.2-.79-1.8-1.21Z"/><path class="cls-1" d="M156.58,120.77a59.5,59.5,0,0,1,4.74,4.53c.55.65,0,1.52-.35,1.33a31.92,31.92,0,0,1-4-3.46C156,122,155.44,121.16,156.58,120.77Z"/><path class="cls-1" d="M161.76,148h7l.23.35c-.41.27-.79.72-1.23.79C164.41,149.68,162.15,149.25,161.76,148Z"/><path class="cls-1" d="M156.33,125.61c1.81,1.76,4,3.91,3.24,4.76-.39.54-3.18-2.59-3.8-3.71A.74.74,0,0,1,156.33,125.61Z"/><path class="cls-1" d="M156.7,130.28c.4,0,1.53,2.22,2.05,3.34.07.15-.57.92-.81.92a5.18,5.18,0,0,1-1.61-2.56C156.24,131.44,156.35,130.28,156.7,130.28Z"/><path class="cls-1" d="M196,131.56c-1.31.48-2.17,1.84-3,2.91-3.16,3.72-4,1.47-3.42,1,1.45-.89,3.46-2.71,3.21-4.1-1.17.4-2.35.74-3.48,1.2a3.3,3.3,0,0,0-2.12,2.54c-.27,1.4-.73,2.12-2.15,3.92a16.68,16.68,0,0,0-1.81,3.45c-.55,1.23-2,1.87-2.66,1.3-.4-.74,1.28-1.45,1.77-2.53a45,45,0,0,0,2.13-6.67c.24-1.08-1.06-2.13-1.57-3.47-.34-.9,1.4-2.83-1.38-3.75-1-.36-.87-1.57-.66-2.4.57-2.33,1.31-5.65.59-7.25-.4-.8-.64-2.06.43-1.74a3.17,3.17,0,0,1,1.46.75c.19.18-.76,5.4.06,7.52a1.78,1.78,0,0,0,2.31,1.12c2.77-2,.1-2.36.23-2.86.33-.15,2.17-.65,2.19-1s-1.77-.65-2.31-.73c.15-.36.19-.65.3-.73,1.37-.93,2.06-1.44,3.57-1.4a5.46,5.46,0,0,1,2.91,1c1.34,1.06,1.23,1.49.48,2.95-.43.83-.29,4.54.77,4.92,1.23.44,4.26-2.93,3.25-4.82-1.82-3.53-1-7.42-.05-7.42a21.86,21.86,0,0,1,4.44.27c.9.16.66,4.18.25,5-.53,1-.79-3.3-2.47-3.55-.8-.12-2,2.45-.88,4.41,1.3,2.23,1.84,3.57.73,5.16-.93,1.84.16,4,.09,4.57-.13,1-2.18,5-3.07,5-.6,0-.6-1-.37-1.14C197.16,133.7,197.41,131.2,196,131.56Z"/><path class="cls-1" d="M74,194.93a2.29,2.29,0,0,0,1.77-1A14.06,14.06,0,0,0,77,191.37l6.77-16.7h.85l6.81,16a22.83,22.83,0,0,0,1.71,3.48,1.81,1.81,0,0,0,1.61.75v.77H84.91v-.77a7.05,7.05,0,0,0,2-.25c.31-.13.46-.46.46-1a3.71,3.71,0,0,0-.23-1.08c-.1-.29-.24-.64-.41-1.05l-.77-1.84H79.07c-.45,1.21-.74,2-.87,2.36a6.05,6.05,0,0,0-.4,1.72c0,.43.29.75.88.95a5.83,5.83,0,0,0,1.56.18v.77H74Zm11.45-6.42-2.93-7.06h-.26l-2.75,7.06Z"/><path class="cls-1" d="M106.91,175.09v.77a4.2,4.2,0,0,0-2.37.55c-.4.33-.6,1.07-.6,2.24v10.22a9.28,9.28,0,0,0,.56,3.6,3.77,3.77,0,0,0,3.82,2.36c2.35,0,3.93-.87,4.76-2.61a9.67,9.67,0,0,0,.68-4v-9.33a3.27,3.27,0,0,0-.6-2.26,3.77,3.77,0,0,0-2.36-.75v-.77h6.7v.77a4.55,4.55,0,0,0-1.93.69,2.64,2.64,0,0,0-.47,1.89v9.76a8.75,8.75,0,0,1-1.87,6c-1.26,1.41-3.22,2.11-5.9,2.11-3.51,0-5.91-1-7.2-3.14a8.16,8.16,0,0,1-1-4.31V178.65a3.37,3.37,0,0,0-.45-2.17,3.85,3.85,0,0,0-2.05-.62v-.77Z"/><path class="cls-1" d="M119.82,188.58h.88a9.58,9.58,0,0,0,2.35,5,5.28,5.28,0,0,0,3.73,1.55,3.32,3.32,0,0,0,3.75-3.31,3,3,0,0,0-.89-2.24,10.88,10.88,0,0,0-2.41-1.47l-1.94-1a12.83,12.83,0,0,1-4.08-2.89,5.29,5.29,0,0,1-1.19-3.53,6.52,6.52,0,0,1,1.57-4.18,5.86,5.86,0,0,1,4.83-1.93,10.15,10.15,0,0,1,3.2.5,11.64,11.64,0,0,0,1.77.51.75.75,0,0,0,.68-.29,2.52,2.52,0,0,0,.31-.77h.91v6.64h-.85a9.39,9.39,0,0,0-2.1-4,4.78,4.78,0,0,0-3.66-1.67,3.34,3.34,0,0,0-2.4.84,3,3,0,0,0-.06,4.21,19.1,19.1,0,0,0,3.64,2.15l2.25,1.13a9,9,0,0,1,2.4,1.69,5.78,5.78,0,0,1,1.67,4.19,6.51,6.51,0,0,1-1.79,4.36c-1.2,1.36-3.11,2-5.75,2a9.64,9.64,0,0,1-1.84-.18,10.33,10.33,0,0,1-1.84-.52l-.59-.23a3.1,3.1,0,0,0-.39-.09,1.45,1.45,0,0,0-.32,0,.72.72,0,0,0-.65.27,2.88,2.88,0,0,0-.31.79h-.88Z"/><path class="cls-1" d="M137.13,175.09H155.5l0,6.15h-.88q-.43-3.3-2.47-4.47a7.63,7.63,0,0,0-3.43-.7v16.07a3.13,3.13,0,0,0,.59,2.24,3.76,3.76,0,0,0,2.45.55v.77H140.92v-.77a3.58,3.58,0,0,0,2.37-.56,3.07,3.07,0,0,0,.59-2.23V176.07a7.74,7.74,0,0,0-3.42.7q-2.19,1.2-2.48,4.47h-.88Z"/><path class="cls-1" d="M157.78,194.93a3.53,3.53,0,0,0,2.12-.58,3.08,3.08,0,0,0,.56-2.21V178.65a2.9,2.9,0,0,0-.67-2.3,4.24,4.24,0,0,0-2-.49v-.77h9.82a15.67,15.67,0,0,1,4.94.64c2.45.86,3.67,2.42,3.67,4.66a4.63,4.63,0,0,1-1.92,3.92,7.57,7.57,0,0,1-3.11,1.37l6.49,8.68a1.2,1.2,0,0,0,.53.47,2.28,2.28,0,0,0,.7.14v.73h-6.36l-7.12-9.53h0v6a2.23,2.23,0,0,0,2.68,2.79v.77H157.78Zm11.91-10.59c.86-.53,1.29-1.75,1.29-3.68a6.54,6.54,0,0,0-.49-2.8,3.15,3.15,0,0,0-3.1-1.75,2.8,2.8,0,0,0-1.6.31,1.2,1.2,0,0,0-.38,1v7.76A8.69,8.69,0,0,0,169.69,184.34Z"/><path class="cls-1" d="M180.48,194.93a2.29,2.29,0,0,0,1.78-1,14.25,14.25,0,0,0,1.23-2.56l6.78-16.7h.85l6.81,16a21,21,0,0,0,1.71,3.48,1.8,1.8,0,0,0,1.61.75v.77h-9.88v-.77a6.93,6.93,0,0,0,2-.25c.31-.13.47-.46.47-1a3.81,3.81,0,0,0-.24-1.08c-.1-.29-.23-.64-.4-1.05l-.78-1.84h-6.85l-.86,2.36a6.05,6.05,0,0,0-.4,1.72c0,.43.29.75.88.95a5.71,5.71,0,0,0,1.56.18v.77h-6.23Zm11.46-6.42L189,181.45h-.25L186,188.51Z"/><path class="cls-1" d="M203.13,194.93a4.36,4.36,0,0,0,1.78-.33,1.85,1.85,0,0,0,.91-1.82V178a1.84,1.84,0,0,0-.86-1.79,4.65,4.65,0,0,0-1.83-.36v-.77h10.66v.77a4.77,4.77,0,0,0-2.48.52c-.41.31-.62,1.06-.62,2.27v14.42a1.47,1.47,0,0,0,.53,1.34,4.35,4.35,0,0,0,2.07.33,8.32,8.32,0,0,0,4.62-1.22c1.25-.81,2.32-2.38,3.23-4.73H222l-1.24,6.91H203.13Z"/><path class="cls-1" d="M224,194.93a4.7,4.7,0,0,0,1.86-.31,1.88,1.88,0,0,0,.92-1.84V178a1.85,1.85,0,0,0-.88-1.81,4.92,4.92,0,0,0-1.9-.34v-.77h10.66v.77a5.33,5.33,0,0,0-2,.33,1.84,1.84,0,0,0-.9,1.82v14.77a1.84,1.84,0,0,0,.72,1.72,4.18,4.18,0,0,0,2.14.43v.77H224Z"/><path class="cls-1" d="M236.57,194.93a2.29,2.29,0,0,0,1.77-1,14.06,14.06,0,0,0,1.24-2.56l6.78-16.7h.84l6.81,16a21.64,21.64,0,0,0,1.72,3.48,1.78,1.78,0,0,0,1.6.75v.77h-9.87v-.77a7.05,7.05,0,0,0,2-.25c.31-.13.47-.46.47-1a3.81,3.81,0,0,0-.24-1.08c-.1-.29-.24-.64-.4-1.05l-.78-1.84h-6.85c-.45,1.21-.74,2-.87,2.36a6.43,6.43,0,0,0-.4,1.72c0,.43.3.75.88.95a5.85,5.85,0,0,0,1.57.18v.77h-6.23ZM248,188.51l-2.93-7.06h-.26l-2.75,7.06Z"/><circle class="cls-1" cx="154.87" cy="208.05" r="2.68"/><circle class="cls-1" cx="154.87" cy="203.91" r="0.71"/><circle class="cls-1" cx="154.87" cy="212.19" r="0.71"/><circle class="cls-1" cx="159.01" cy="208.05" r="0.71"/><circle class="cls-1" cx="150.73" cy="208.05" r="0.71"/><circle class="cls-1" cx="152.8" cy="204.46" r="0.71"/><circle class="cls-1" cx="156.94" cy="211.63" r="0.71"/><circle class="cls-1" cx="158.46" cy="205.98" r="0.71"/><circle class="cls-1" cx="151.29" cy="210.12" r="0.71"/><circle class="cls-1" cx="151.29" cy="205.98" r="0.71"/><circle class="cls-1" cx="158.46" cy="210.12" r="0.71"/><circle class="cls-1" cx="156.94" cy="204.46" r="0.71"/><circle class="cls-1" cx="152.8" cy="211.63" r="0.71"/><circle class="cls-1" cx="166.34" cy="208.05" r="2.68"/><circle class="cls-1" cx="166.34" cy="203.91" r="0.71"/><circle class="cls-1" cx="166.34" cy="212.19" r="0.71"/><circle class="cls-1" cx="170.48" cy="208.05" r="0.71"/><circle class="cls-1" cx="162.19" cy="208.05" r="0.71"/><circle class="cls-1" cx="164.26" cy="204.46" r="0.71"/><circle class="cls-1" cx="168.41" cy="211.63" r="0.71"/><circle class="cls-1" cx="169.92" cy="205.98" r="0.71"/><circle class="cls-1" cx="162.75" cy="210.12" r="0.71"/><circle class="cls-1" cx="162.75" cy="205.98" r="0.71"/><circle class="cls-1" cx="169.92" cy="210.12" r="0.71"/><circle class="cls-1" cx="168.41" cy="204.46" r="0.71"/><circle class="cls-1" cx="164.26" cy="211.63" r="0.71"/><circle class="cls-1" cx="174" cy="203.47" r="2.68"/><circle class="cls-1" cx="173.89" cy="199.33" r="0.71"/><circle class="cls-1" cx="174.12" cy="207.61" r="0.71"/><circle class="cls-1" cx="178.14" cy="203.36" r="0.71"/><circle class="cls-1" cx="169.86" cy="203.58" r="0.71"/><circle class="cls-1" cx="171.84" cy="199.94" r="0.71"/><circle class="cls-1" cx="176.17" cy="207" r="0.71"/><circle class="cls-1" cx="177.53" cy="201.3" r="0.71"/><circle class="cls-1" cx="170.36" cy="201.5" r="0.71"/><circle class="cls-1" cx="177.65" cy="205.44" r="0.71"/><circle class="cls-1" cx="175.98" cy="199.83" r="0.71"/><circle class="cls-1" cx="172.03" cy="207.11" r="0.71"/><circle class="cls-1" cx="172.43" cy="225.08" r="2.78"/><circle class="cls-1" cx="172.43" cy="220.79" r="0.73"/><circle class="cls-1" cx="172.43" cy="229.37" r="0.73"/><circle class="cls-1" cx="176.72" cy="225.08" r="0.73"/><circle class="cls-1" cx="168.14" cy="225.08" r="0.73"/><circle class="cls-1" cx="170.29" cy="221.37" r="0.73"/><circle class="cls-1" cx="174.58" cy="228.8" r="0.73"/><circle class="cls-1" cx="176.15" cy="222.94" r="0.73"/><circle class="cls-1" cx="168.72" cy="227.23" r="0.73"/><circle class="cls-1" cx="168.72" cy="222.94" r="0.73"/><circle class="cls-1" cx="176.15" cy="227.23" r="0.73"/><circle class="cls-1" cx="174.58" cy="221.37" r="0.73"/><circle class="cls-1" cx="170.29" cy="228.8" r="0.73"/><path class="cls-1" d="M158.81,223.77a3.42,3.42,0,0,0-.46,0,3.1,3.1,0,1,0,2.73,4.56A6.1,6.1,0,0,1,158.81,223.77Z"/><path class="cls-1" d="M158.35,221.23a.82.82,0,1,0,0,1.64.8.8,0,0,0,.5-.18,6.46,6.46,0,0,1,.22-1A.81.81,0,0,0,158.35,221.23Z"/><circle class="cls-1" cx="158.35" cy="231.61" r="0.82"/><path class="cls-1" d="M154.39,226.83a.82.82,0,0,0-.82-.82.82.82,0,0,0,0,1.64A.82.82,0,0,0,154.39,226.83Z"/><path class="cls-1" d="M156.37,223.4a.82.82,0,0,0,.3-1.12.82.82,0,1,0-1.42.82A.82.82,0,0,0,156.37,223.4Z"/><path class="cls-1" d="M160.33,230.26a.82.82,0,0,0-.3,1.12.82.82,0,1,0,1.42-.82A.82.82,0,0,0,160.33,230.26Z"/><path class="cls-1" d="M153.8,228.51a.82.82,0,1,0,1.12.3A.82.82,0,0,0,153.8,228.51Z"/><path class="cls-1" d="M154.62,223.73a.82.82,0,1,0,.3,1.12A.81.81,0,0,0,154.62,223.73Z"/><path class="cls-1" d="M161.78,228.81a.82.82,0,0,0,.3,1.12.83.83,0,0,0,1.12-.3,1.8,1.8,0,0,0,.08-.21,5.92,5.92,0,0,1-1.48-.64Z"/><path class="cls-1" d="M156.37,230.26a.82.82,0,0,0-1.12.3.82.82,0,0,0,1.42.82A.82.82,0,0,0,156.37,230.26Z"/><path class="cls-1" d="M167.71,222.14a3.11,3.11,0,1,0-.79,3.74,7,7,0,0,1-.06-.8A5.47,5.47,0,0,1,167.71,222.14Z"/><path class="cls-1" d="M164.93,219.55a.82.82,0,1,0,0-1.63.82.82,0,0,0,0,1.63Z"/><path class="cls-1" d="M164.93,227.47a.82.82,0,0,0,0,1.64.82.82,0,0,0,0-1.64Z"/><path class="cls-1" d="M161,223.51a.82.82,0,1,0-.81.82A.82.82,0,0,0,161,223.51Z"/><path class="cls-1" d="M163,220.08a.82.82,0,0,0,.3-1.12.82.82,0,1,0-.3,1.12Z"/><path class="cls-1" d="M166.91,226.94a.82.82,0,1,0,.82,1.42l.13-.1a5.49,5.49,0,0,1-.71-1.41Z"/><path class="cls-1" d="M169.43,220.39a.81.81,0,0,0-.77,0,.82.82,0,0,0-.37,1A5.58,5.58,0,0,1,169.43,220.39Z"/><path class="cls-1" d="M160.39,225.19a.82.82,0,0,0,.81,1.42.82.82,0,0,0-.81-1.42Z"/><path class="cls-1" d="M161.2,220.41a.82.82,0,0,0-.81,1.42.82.82,0,0,0,.81-1.42Z"/><path class="cls-1" d="M166.91,220.08a.82.82,0,0,0,1.12-.3.81.81,0,0,0-.3-1.11.82.82,0,1,0-.82,1.41Z"/><path class="cls-1" d="M163,226.94a.82.82,0,0,0-.81,1.42.82.82,0,0,0,.81-1.42Z"/></g></g></svg>