<svg xmlns="http://www.w3.org/2000/svg" viewBox="0 0 487.12 239.21"><defs><style>.cls-1,.cls-8{fill:#cea252;}.cls-2,.cls-5{fill:#d0d3ba;}.cls-10,.cls-11,.cls-2,.cls-3,.cls-8,.cls-9{stroke:#d0d3ba;stroke-linejoin:round;stroke-width:3px;}.cls-2,.cls-3{stroke-linecap:round;}.cls-3,.cls-9{fill:none;}.cls-10,.cls-4{fill:#5c968e;}.cls-6{fill:#871b35;}.cls-7{fill:#123135;}.cls-11{fill:#e0695a;}</style></defs><title>Asset 24</title><g id="Layer_2" data-name="Layer 2"><g id="Layer_1-2" data-name="Layer 1"><path class="cls-1" d="M442.18,68.07s-3.32.07-4.94-.06a1.78,1.78,0,0,1-1.69-1,17.09,17.09,0,0,1-1.25-6.59c-3.47,0-6.15,3.19-6.33,4.48-.09.66,4.69,2.19,4.69,2.19s-5.45-.37-5.54.51c-.47,5,2.81,8.72,6.94,8.8.13-1.55,1-6.32,1.8-7a3.88,3.88,0,0,1,1.52-.51c.56-.08,4.69-.27,4.69-.27Z"/><path class="cls-1" d="M453.9,120s-2.21-2.35-3.17-3.59a1.75,1.75,0,0,1-.41-1.85,17.09,17.09,0,0,1,3.92-5.18c-2.26-2.48-6.28-2.34-7.32-1.63-.54.36,1.47,4.79,1.47,4.79s-3.28-4.16-4-3.64c-3.87,2.88-4.44,7.68-1.81,10.7,1.2-.92,5.19-3.39,6.23-3.29a3.94,3.94,0,0,1,1.35.77c.42.34,3.25,3.19,3.25,3.19Z"/><path class="cls-1" d="M405.25,134.87s-.64-3.78-.78-5.64a2.07,2.07,0,0,1,.81-2.1,20,20,0,0,1,7.3-2.56c-.6-3.95-4.69-6.46-6.19-6.45-.77,0-1.69,5.73-1.69,5.73s-.52-6.28-1.54-6.23c-5.74.31-9.46,4.69-8.84,9.42,1.79-.12,7.37,0,8.34.84a4.71,4.71,0,0,1,.84,1.65c.19.63,1.11,5.31,1.11,5.31Z"/><path class="cls-1" d="M462.69,131.46s2.7,2.73,3.88,4.17a2.05,2.05,0,0,1,.55,2.18,19.91,19.91,0,0,1-4.51,6.29c2.77,2.89,7.56,2.59,8.78,1.72.62-.45-1.91-5.66-1.91-5.66s4,4.84,4.84,4.21c4.51-3.55,5-9.28,1.81-12.79-1.39,1.13-6.06,4.2-7.3,4.11a4.46,4.46,0,0,1-1.64-.87c-.51-.4-4-3.7-4-3.7Z"/><path class="cls-1" d="M27.18,89s-1.62-3.48-2.24-5.24a2.07,2.07,0,0,1,.22-2.24,20,20,0,0,1,6.37-4.39c-1.63-3.66-6.24-5-7.68-4.59-.74.21-.12,6-.12,6s-2.16-5.93-3.13-5.61c-5.45,1.82-7.88,7-6,11.43,1.7-.59,7.13-1.9,8.26-1.39a4.28,4.28,0,0,1,1.25,1.36c.35.55,2.48,4.83,2.48,4.83Z"/><path class="cls-1" d="M71.51,120s-2.21-2.35-3.17-3.59a1.73,1.73,0,0,1-.41-1.85,17.09,17.09,0,0,1,3.92-5.18c-2.26-2.48-6.29-2.34-7.33-1.63C64,108.07,66,112.5,66,112.5s-3.28-4.16-4-3.64c-3.87,2.88-4.44,7.68-1.81,10.7,1.2-.92,5.18-3.39,6.23-3.29a3.94,3.94,0,0,1,1.35.77c.42.34,3.24,3.19,3.24,3.19Z"/><path class="cls-1" d="M22.86,134.87s-.65-3.78-.78-5.64a2.07,2.07,0,0,1,.81-2.1,20,20,0,0,1,7.3-2.56c-.61-3.95-4.69-6.46-6.19-6.45-.77,0-1.69,5.73-1.69,5.73s-.52-6.28-1.54-6.23c-5.74.31-9.47,4.69-8.84,9.42,1.79-.12,7.37,0,8.33.84a4.72,4.72,0,0,1,.85,1.65c.19.63,1.11,5.31,1.11,5.31Z"/><path class="cls-1" d="M80.3,131.46s2.7,2.73,3.88,4.17a2.07,2.07,0,0,1,.54,2.18,19.84,19.84,0,0,1-4.5,6.29C83,147,87.78,146.69,89,145.82c.63-.45-1.9-5.66-1.9-5.66s4,4.84,4.84,4.21c4.51-3.55,5-9.28,1.81-12.79-1.4,1.13-6.06,4.2-7.3,4.11a4.46,4.46,0,0,1-1.64-.87c-.51-.4-4-3.7-4-3.7Z"/><polygon class="cls-2" points="441.13 190.41 434.51 190.41 436.71 151.8 441.13 190.41"/><polyline class="cls-3" points="392.72 86.23 436.71 151.8 476.43 79.73"/><line class="cls-3" x1="439.78" y1="60.74" x2="462.58" y2="104.61"/><line class="cls-3" x1="485.62" y1="107.55" x2="453.51" y2="121.28"/><line class="cls-3" x1="479.24" y1="127.65" x2="447.62" y2="132.07"/><polyline class="cls-3" points="484.64 120.06 475.57 111.48 476.06 97.26"/><line class="cls-3" x1="459.39" y1="59.94" x2="448.6" y2="76.85"/><line class="cls-3" x1="456.2" y1="90.15" x2="470.17" y2="77.16"/><line class="cls-3" x1="442.48" y1="140.89" x2="430.22" y2="82.31"/><line class="cls-3" x1="446.52" y1="92.97" x2="436.23" y2="108.41"/><line class="cls-3" x1="453.14" y1="102.28" x2="441.37" y2="102.28"/><line class="cls-3" x1="427.03" y1="97.5" x2="433.65" y2="101.67"/><line class="cls-3" x1="426.3" y1="118.09" x2="438.55" y2="123.98"/><line class="cls-3" x1="414.29" y1="118.09" x2="423.6" y2="92.36"/><line class="cls-3" x1="405.95" y1="105.84" x2="413.8" y2="81.08"/><line class="cls-3" x1="419.62" y1="106.7" x2="430.4" y2="106.7"/><polyline class="cls-3" points="429.97 142.36 418.69 138.97 400.56 133.54"/><line class="cls-3" x1="411.84" y1="147.75" x2="418.69" y2="138.97"/><line class="cls-3" x1="410.12" y1="113.68" x2="386.1" y2="115.89"/><line class="cls-3" x1="400.8" y1="98.97" x2="383.89" y2="96.52"/><polygon class="cls-2" points="58.74 190.41 52.12 190.41 54.32 151.8 58.74 190.41"/><polyline class="cls-3" points="10.32 86.23 54.32 151.8 94.03 79.73"/><line class="cls-3" x1="57.39" y1="60.74" x2="80.18" y2="104.61"/><line class="cls-3" x1="103.23" y1="107.55" x2="71.11" y2="121.28"/><line class="cls-3" x1="96.85" y1="127.65" x2="65.23" y2="132.07"/><polyline class="cls-3" points="102.25 120.06 93.18 111.48 93.67 97.26"/><line class="cls-3" x1="77" y1="59.94" x2="66.21" y2="76.85"/><line class="cls-3" x1="73.81" y1="90.15" x2="87.78" y2="77.16"/><line class="cls-3" x1="60.08" y1="140.89" x2="47.83" y2="82.31"/><line class="cls-3" x1="64.13" y1="92.97" x2="53.83" y2="108.41"/><line class="cls-3" x1="70.75" y1="102.28" x2="58.98" y2="102.28"/><line class="cls-3" x1="44.64" y1="97.5" x2="51.26" y2="101.67"/><line class="cls-3" x1="43.91" y1="118.09" x2="56.16" y2="123.98"/><line class="cls-3" x1="31.9" y1="118.09" x2="41.21" y2="92.36"/><line class="cls-3" x1="23.56" y1="105.84" x2="31.4" y2="81.08"/><line class="cls-3" x1="37.23" y1="106.7" x2="48.01" y2="106.7"/><polyline class="cls-3" points="47.58 142.36 36.29 138.97 18.17 133.54"/><line class="cls-3" x1="29.44" y1="147.75" x2="36.29" y2="138.97"/><line class="cls-3" x1="27.73" y1="113.68" x2="3.71" y2="115.89"/><line class="cls-3" x1="18.41" y1="98.97" x2="1.5" y2="96.52"/><rect class="cls-4" x="150.9" y="207.28" width="216.17" height="30.22"/><polygon class="cls-5" points="162.55 207.49 350.8 209.07 331.6 187.98 316.8 186.72 163.49 186.09 162.55 207.49"/><rect class="cls-6" x="173.57" y="67.51" width="144.39" height="37.78"/><polygon class="cls-6" points="350.28 186.3 274.51 186.3 274.01 208.3 217.88 208.3 217.7 186.24 143.76 186.3 143.76 140.55 350.28 140.55 350.28 186.3"/><rect class="cls-7" x="235.9" y="168.46" width="20.36" height="39.04"/><polygon class="cls-5" points="235.48 207.7 211.76 237.3 280.6 238.14 256.25 207.49 235.48 207.7"/><polygon class="cls-5" points="169.79 32.25 163.07 52.4 142.09 56.18 157.2 64.15 173.57 67.51 319.64 67.51 351.96 55.76 323.41 46.94 319.64 27.64 169.79 32.25"/><polygon class="cls-5" points="173.99 106.13 111.03 129.21 136.63 139.71 143.76 140.55 348.18 140.97 380.92 130.47 338.1 118.72 311.24 105.71 173.99 106.13"/><path class="cls-8" d="M245.92,53.54l10.59,0,.1-14.15,64.07-.24,3.67,17.7,30.7.14-4.78-8.3-19.67-.52L322,14.37,310.69,4.6l-1,15,8.88,8.52h-66l-3.95-11.56c2-.06,6.06-1.35,6.11-2.64.09-2.3-3.54-3.57-6.06-3.77,1.85-1.39,1.92-4.2,1.9-4.78a4.52,4.52,0,0,0-4.62-3.88h0a4.52,4.52,0,0,0-4.62,3.88c0,.58,0,3.39,1.91,4.78-2.53.2-6.16,1.47-6.07,3.77.05,1.29,4.09,2.58,6.11,2.64L239.3,28.13h-66l8.88-8.52-1-15-11.3,9.77-8.61,33.76-19.67.52L136.81,57l30.7-.14,3.68-17.7,64.07.24.09,14.15,10.6,0"/><polyline class="cls-9" points="355.33 56.67 318.56 68.06 173.85 68.06 137.08 56.67"/><polyline class="cls-9" points="384.33 129.94 349.34 141.21 143.07 141.21 107.55 129.93"/><line class="cls-9" x1="173.85" y1="68.06" x2="173.85" y2="101.55"/><line class="cls-9" x1="318.57" y1="68.06" x2="318.57" y2="101.55"/><polyline class="cls-10" points="173.88 68.39 186.38 87.7 198.89 68.39"/><polyline class="cls-10" points="203.79 68.39 216.29 87.7 228.8 68.39"/><polyline class="cls-10" points="233.7 68.39 246.21 87.7 258.71 68.39"/><polyline class="cls-10" points="263.61 68.39 276.12 87.7 288.62 68.39"/><polyline class="cls-10" points="293.52 68.39 306.03 87.7 318.54 68.39"/><polyline class="cls-10" points="203.79 141.93 216.29 161.24 228.8 141.93"/><polyline class="cls-10" points="143.97 141.93 156.48 161.24 168.98 141.93"/><polyline class="cls-10" points="173.88 141.93 186.39 161.24 198.89 141.93"/><polyline class="cls-10" points="233.7 141.93 246.21 161.24 258.71 141.93"/><polyline class="cls-10" points="263.61 141.93 276.12 161.24 288.62 141.93"/><polyline class="cls-10" points="293.52 141.93 306.03 161.24 318.54 141.93"/><polyline class="cls-10" points="323.43 141.93 335.94 161.24 348.44 141.93"/><polygon class="cls-8" points="317.6 112.09 353.63 129.8 384.33 129.94 379.55 121.64 356.08 122.53 318.03 101.55 173.85 101.55 135.8 122.53 112.33 121.64 107.55 129.93 138.25 129.8 174.28 112.09 317.6 112.09"/><polyline class="cls-9" points="143.07 141.21 143.07 208.13 349.34 208.13 349.34 141.21"/><polyline class="cls-9" points="274.01 208.3 274.01 169.2 245.95 169.2 245.94 169.2 217.88 169.2 217.88 208.3"/><line class="cls-9" x1="217.7" y1="186.24" x2="142.94" y2="186.24"/><line class="cls-9" x1="348.59" y1="186.24" x2="273.83" y2="186.24"/><line class="cls-9" x1="235.9" y1="208.12" x2="210.34" y2="238.08"/><polyline class="cls-11" points="317.26 237.84 317.26 173.74 474.26 173.74 474.26 237.71 17.68 237.71 17.68 173.74 174.68 173.74 174.68 237.84"/><line class="cls-9" x1="256.04" y1="208.12" x2="281.25" y2="237.69"/><line class="cls-9" x1="235.97" y1="208.18" x2="235.97" y2="168.96"/><line class="cls-9" x1="256.1" y1="168.96" x2="256.1" y2="208.18"/></g></g></svg>