<svg xmlns="http://www.w3.org/2000/svg" viewBox="0 0 17.57 16.66"><defs><style>.cls-1{fill:#cea252;}</style></defs><title>Asset 26</title><g id="Layer_2" data-name="Layer 2"><g id="Layer_1-2" data-name="Layer 1"><path class="cls-1" d="M13.22,16.53S11.6,13.05,11,11.29a2.07,2.07,0,0,1,.23-2.24,20.12,20.12,0,0,1,6.36-4.4C15.94,1,11.33-.34,9.9.07c-.74.21-.12,6-.12,6S7.61.12,6.65.44c-5.45,1.82-7.89,7-6,11.43,1.7-.59,7.13-1.91,8.26-1.4a4.44,4.44,0,0,1,1.25,1.37c.35.55,2.48,4.82,2.48,4.82Z"/></g></g></svg>