<svg xmlns="http://www.w3.org/2000/svg" viewBox="0 0 64.59 65.01"><defs><style>.cls-1{fill:#cea252;}</style></defs><title>Asset 39</title><g id="Layer_2" data-name="Layer 2"><g id="Layer_1-2" data-name="Layer 1"><path class="cls-1" d="M15.42,30.15S15,24.36,15,21.54a3.12,3.12,0,0,1,1.5-3.05,30.21,30.21,0,0,1,11.34-2.87c-.38-6-6.2-10.37-8.46-10.55-1.16-.09-3.32,8.4-3.32,8.4s.06-9.54-1.48-9.59C5.91,3.58-.3,9.68,0,16.89,2.72,17,11.11,18,12.45,19.27a7,7,0,0,1,1.05,2.6c.2,1,1,8.15,1,8.15Z"/><path class="cls-1" d="M21.27,52.06s5.8-.25,8.62-.1a3.14,3.14,0,0,1,3,1.61A30.41,30.41,0,0,1,35.33,65c6.05-.16,10.59-5.81,10.86-8.06.13-1.15-8.28-3.63-8.28-3.63s9.53.41,9.64-1.12c.63-8.67-5.24-15.09-12.46-15.05-.16,2.7-1.47,11.05-2.84,12.34a6.85,6.85,0,0,1-2.64.95c-1,.17-8.17.66-8.17.66Z"/><path class="cls-1" d="M41.78,23.28s4.21-4,6.43-5.74a3.13,3.13,0,0,1,3.32-.76,30.21,30.21,0,0,1,9.37,7c4.45-4.1,4.15-11.35,2.87-13.21-.66-1-8.62,2.71-8.62,2.71s7.45-6,6.52-7.19C56.43-.84,47.79-1.82,42.38,3c1.66,2.14,6.17,9.29,6,11.17A6.69,6.69,0,0,1,47,16.58c-.62.76-5.72,5.87-5.72,5.87Z"/></g></g></svg>