<svg xmlns="http://www.w3.org/2000/svg" viewBox="0 0 123.75 83.45"><defs><style>.cls-1{fill:#d0d3ba;stroke-linecap:round;}.cls-1,.cls-2{stroke:#d0d3ba;stroke-linejoin:round;stroke-width:3px;}.cls-2{fill:#871b35;}</style></defs><title>Asset 43</title><g id="Layer_2" data-name="Layer 2"><g id="Layer_1-2" data-name="Layer 1"><path class="cls-1" d="M32,42.67c7.14-2.55,19.62-23.3,18.44-41.17A139.94,139.94,0,0,0,71.21,3.88c2.28,15.29,12.1,28,21.55,39.79"/><path class="cls-2" d="M121,42.39c1.77,0,1.66,3.46,0,3.46h-4.71s-.59,36.1-8.4,36.1H81.32c-3.35,0-3.63-3.58-4.57-3.58H47c-.94,0-1.22,3.58-4.57,3.58H15.9c-7.81,0-8.4-36.1-8.4-36.1H2.79c-1.66,0-1.77-3.46,0-3.46Z"/></g></g></svg>