<svg xmlns="http://www.w3.org/2000/svg" viewBox="0 0 186.17 127.13"><defs><style>.cls-1{fill:#5c968e;}.cls-1,.cls-2{stroke:#d0d3ba;stroke-linejoin:round;stroke-width:3px;}.cls-2{fill:#cea252;}</style></defs><title>Asset 46</title><g id="Layer_2" data-name="Layer 2"><g id="Layer_1-2" data-name="Layer 1"><path class="cls-1" d="M134.28,103.67s7-13.88,11-20.25c.91-1.45,2.67-4.94,7.46-4.79s18.49,3.83,28.49,10c7.53-14.34.93-32.73-3.69-36.43-2.38-1.9-18.81,14.32-18.81,14.32s13.33-21.69,10.08-24.06c-18.36-13.37-40.21-8.51-49.52,8.4,5.78,4.1,22.52,18.65,23.6,23.62.33,1.55-.54,5.23-1.34,7.46-.89,2.49-9.18,20-9.18,20Z"/><path class="cls-2" d="M89.84,124.57c11.67,2.4,74.42,5.45,66.76-49C154.41,60,142.23,35.61,123.66,47.74,120.12,23,101.11,2.23,81.22,1.53S35.38,12.71,28.75,42.82C14.9,44.24-1,59,1.83,91.43c3.27,37.35,32.42,38.28,41.51,26.31"/></g></g></svg>