<svg xmlns="http://www.w3.org/2000/svg" viewBox="0 0 190.94 195.54"><defs><style>.cls-1{fill:#cea252;}.cls-1,.cls-2{stroke:#d0d3ba;stroke-linejoin:round;stroke-width:3px;}.cls-2{fill:#5c968e;}</style></defs><title>Asset 45</title><g id="Layer_2" data-name="Layer 2"><g id="Layer_1-2" data-name="Layer 1"><path class="cls-1" d="M43.33,100.35s-5.13-11.62-7.09-17.5c-.45-1.33-1.73-4.25.71-7.48S48.36,64.54,57.08,60.69C51.92,48.49,37.35,44,32.81,45.39c-2.34.7-.38,19.94-.38,19.94s-6.85-19.79-9.9-18.71C5.28,52.69-2.42,70.09,3.44,84.78c5.36-2,22.54-6.35,26.13-4.65,1.12.53,3,2.93,4,4.57,1.1,1.83,7.83,16.11,7.83,16.11Z"/><path class="cls-1" d="M114.07,56.7S108.94,45.08,107,39.2c-.45-1.33-1.74-4.25.7-7.47s11.42-10.84,20.13-14.68C122.66,4.85,108.09.37,103.54,1.74c-2.34.7-.38,20-.38,20S96.32,1.9,93.26,3C76,9,68.31,26.45,74.18,41.13c5.36-2,22.53-6.35,26.13-4.65,1.12.53,3,2.93,3.94,4.57,1.1,1.83,7.84,16.11,7.84,16.11Z"/><path class="cls-2" d="M147.82,154c-21,22.33-42.66,31.67-72.71,27.21C58.25,198.88,13.24,201.44,8,168.55,3.38,140.1,30.62,124.2,45.06,127.62c-13.26-6.53-26.23-12.13-25.53-31.26C20.75,63.46,43.81,61.9,68.05,71c1.18-11.83,17.68-27.7,34.48-12.45-6.19-20.23,35.4-38.9,54.86-25.83,37.06,24.91,38.79,111.09,21.33,113.44"/></g></g></svg>