<svg xmlns="http://www.w3.org/2000/svg" viewBox="0 0 222.8 169.57"><defs><style>.cls-1{fill:#5c968e;}.cls-1,.cls-2{stroke:#d0d3ba;stroke-linejoin:round;stroke-width:3px;}.cls-2{fill:#cea252;}</style></defs><title>Asset 44</title><g id="Layer_2" data-name="Layer 2"><g id="Layer_1-2" data-name="Layer 1"><path class="cls-1" d="M176.34,110.57S183.87,100.51,188,96c.93-1,2.82-3.55,6.65-2.7s14.29,5.91,21.46,12.4c8-10.34,5.25-26.1,2.05-29.77-1.65-1.89-17.05,8.6-17.05,8.6S214.74,69.2,212.45,66.8c-12.88-13.53-31.06-13-40.85-.85,4.07,4.17,15.5,18.4,15.67,22.55,0,1.3-1.15,4.11-2.1,5.78-1,1.86-10.1,14.63-10.1,14.63Z"/><path class="cls-2" d="M50,95S41.7,85.57,38.13,80.61c-.81-1.13-2.88-3.49-1.49-7.35s7.73-14,14.92-20.47C43.12,42.84,28,43.28,24,46.05c-2,1.42,5.41,19.11,5.41,19.11S17.18,48.53,14.58,50.54C-.07,61.89-2.37,81,7.47,93,12,89.43,27.08,79.71,31,80.17c1.22.14,3.67,1.84,5.08,3.08C37.65,84.64,48.2,96.06,48.2,96.06Z"/><path class="cls-2" d="M55.69,137.4c2.36,41.08,63,41.31,56.12-1.88,15.5,25,24-2.6,24-2.6,14.24,25.67,65,30.18,72.35-10.52,2-11.31-1.3-36.35-31.21-49.74C189.34,70.55,209,44.72,183.47,15c-17.68-20.54-59.68-19.6-76.26,16.11.89-7.11-10-23.83-27.81-13.22C58,30.67,62.47,60.22,79.8,86.86c-11.73-12.64-42.09-12.33-52,4C21.52,101.13,15.9,153.27,55.69,137.4Z"/></g></g></svg>