<svg xmlns="http://www.w3.org/2000/svg" viewBox="0 0 174.93 173.32"><defs><style>.cls-1{fill:#cea252;stroke:#d0d3ba;stroke-linejoin:round;stroke-width:3px;opacity:0.99;}</style></defs><title>Asset 8</title><g id="Layer_2" data-name="Layer 2"><g id="Layer_1-2" data-name="Layer 1"><path class="cls-1" d="M83.71,171.82l4.6-.47s.65-44.85,8.28-51.1c16.92-13.87,70.1-45.42,76.84-56.14.22-7.44-8.57-15.47-10.34-15.58-6-.4-62.38,52-62.38,52s43.63-59.8,48.9-73.28c-2.45-6-6.81-8.3-12.84-11.28C120.16,28.23,93,86.92,93,86.92S102,27,98.85,5.83C92.89.6,83.81-.16,76,5c-3.76,17.26,3.84,83.3,3.84,83.3S62.06,26.47,46.2,15.07c-6.56-1-14.41.94-20.56,10.82,7.09,18.64,48.06,75.36,48.06,75.36S21.91,43.82,10.51,47.62C6.75,48.87-.7,59.41,2.12,67.87c13.48,14.8,59.5,37.64,72.46,51.4C81.26,126.36,83.71,171.82,83.71,171.82Z"/></g></g></svg>