<svg xmlns="http://www.w3.org/2000/svg" viewBox="0 0 142.6 170.25"><defs><style>.cls-1{fill:#cea252;stroke:#d0d3ba;stroke-linejoin:round;stroke-width:3px;opacity:0.99;}</style></defs><title>Asset 7</title><g id="Layer_2" data-name="Layer 2"><g id="Layer_1-2" data-name="Layer 1"><path class="cls-1" d="M49.82,117.13S9.39,95,4.07,86.13c-7-11.61,1.5-19.94,10-18.12s42.83,38.24,42.83,38.24S18,38.77,18.67,17C19,6,30.13-.08,38.73,8.53,58.79,24.41,68.9,112.88,68.9,112.88s-1.38-94.08,2.4-104c3.51-9.21,13.79-10.65,18.53.65,2.21,5.27,6.09,23.76,6.09,23.76S106,14.45,115.49,10c6-2.12,13.6.68,12.75,10.7C127.37,31,85,106.43,85,106.43s33.83-36.89,45-38.42c9.66-1.31,13.47,6.33,9.42,15.79C134.67,95,93.44,117.38,93.44,117.38s19.38-2.88,28,3.41c6.62,4.84,3.65,13.93-7.4,12.74s-26.63-9.26-33.37-6.93-7.27,42.15-7.27,42.15l-4.93-.12s3.1-41-7.75-42.44-19.63,9.3-32.17,9.47-14.06-10.75-5.78-16.32S49.82,117.13,49.82,117.13Z"/></g></g></svg>