<svg xmlns="http://www.w3.org/2000/svg" viewBox="0 0 790.47 1058.21"><defs><style>.cls-1{fill:#224a56;}</style></defs><title>Asset 31</title><g id="Layer_2" data-name="Layer 2"><g id="Layer_1-2" data-name="Layer 1"><path class="cls-1" d="M311.43,897.46c9.38-6.75,14.33-12.23,6.35-20.23,1.42-16.85-12.47-25.06-20.6-36.51-4.5-6.34-9-12.64-13.57-19,6-14-10.81-16.91-13.31-27.61-3.35-14.37-9.87-28.21-16.63-41.47-3.11-6.11-9.46-11.09-15.36-15.09-5-3.38-8.89-.38-7.74,5.48,4.11,21.08,8.23,42.07,19.49,61,4.17,7,5.91,15.65,7.9,23.75,1.67,6.77,2.93,12.84,10,16.71,6.48,3.53,6.15,7.63,0,14.25a58.15,58.15,0,0,0-3-5.76c-2.91-4.39-5.39-9.29-9.14-12.84-4.64-4.4-8.22-8-5.78-15.28,2.73-8.16-1.05-15-7.09-20.44-4.86-4.37-10.09-8.33-15.19-12.49,8.92-8.78,9.23-14.09-.1-23-4.88-4.68-6.46-9.28-5.92-15.84.39-4.73-1.18-9.65-2.1-14.44-.81-4.27-2.81-8.5-2.75-12.72.2-13.52-6.58-22.19-18.1-27.72-5.12-2.46-9.74-4.74-8.58-11.7.2-1.21-.72-2.6-1.07-3.92-4.14-15.65-8.33-31.29-12.3-47-.42-1.64.31-3.63.74-5.4.38-1.57,1.92-3.34,1.51-4.54-4.49-13.17,5.86-23.44,7.05-35.73.93-9.72,8-18.74,11.79-28.31,8.75-22.26,6.37-43.27-7.53-63-2-2.87-2.3-7-3.38-10.51,3.24,2.34,7.23,4.1,9.58,7.14,9.25,12,13.21,26.09,15.4,40.83a60.72,60.72,0,0,0,1.72,6.55l2.89.21c.71-3,2-6,2.06-9.06.32-18.82-8-34.06-19.52-48.32-3.26-4.05-4.46-9.95-6-15.19a127.22,127.22,0,0,1-3.54-16.64c-1.68-11.06-2.28-22.57-14.67-28-2-11.71-5.19-23.37-5.67-35.14-.78-19.2-6-35.52-21.06-48.54-6.42-5.55-10.79-13.45-16.28-20.13-2.81-3.42-5.7-8.53-9.16-9.09-2.65-.43-6.27,5.08-9.09,7.62L92.49,315.7c5.05-4.9,8.19-12.24,17.5-10.57,1.36.24,4.4-1.59,4.38-2.4,0-1.86-1.23-5-2.45-5.28-4.69-1-9.69-1.83-14.37-1.2a48.5,48.5,0,0,0-16.35,5c-3.15,1.7-4.89,6-8.71,11.12C49.85,317.84,24.68,323.12,0,305.52c5.23.53,9.69,1.08,14.18,1.39,3.39.24,6.8.14,10.2.23,3,.08,6.42-.72,8.82.5,7.67,3.92,14.37,1.49,21-2.15,2.46-1.36,4.48-3.52,6.7-5.31-2.18-2.66-4.11-5.58-6.65-7.84-1.2-1.07-3.54-.86-4.08-2.44-3.16-3.72-6.31-7.45-9.7-11.45a9.39,9.39,0,0,0,2.45-2c2.3-2.78,5.45-5.56,6-8.75.27-1.44-4.55-4.25-7.42-5.74-4.65-2.42-6-10.54-2-14.39,1.49-1.45,4.16-2.93,4.19-4.44.14-6.47,2.61-10,9.35-10.65,5.18-.53,9.7-3.31,15.19,1.31,3.48,2.92,10.65,4.65,14.58,3,4.62-1.89,8-7.69,10.81-12.46.61-1-3.18-5.5-5.7-7.35C82.75,213.23,77.08,210.12,72,207l4.6-19,17.88,4.71c-3,11.57-1.64,15.52,6.87,17.6,3,.73,8.44-.5,9.61-2.6,1.54-2.77,1.23-8.1-.57-10.83-2.13-3.22-3.26-5.05-2.06-9.2,1.11-3.84-.64-8.47-.84-12.76-.08-1.73.07-4.12,1.13-5,.9-.78,3.88-.51,4.87.42,5.84,5.48,12.46,4.66,18.28,1.36,8.24-4.67,15.9-1.41,23.76,0,4.34.78,8.55,2.21,14.48,3.78,2.63,6.15,5.9,14.07,9.46,21.86.74,1.63,2.53,2.78,3.85,4.14,4.14,4.26,8,8.8,12.52,12.68,4.11,3.57,8.95,6.29,13.27,9.63,2.81,2.17,5.8,4.42,7.77,7.28,4.4,6.37,7.72,13.54,12.52,19.55,1.72,2.16,6.48,2.8,9.78,2.62,11.92-.64,23.84-1.61,35.68-3.13,5.68-.72,6,1.95,5.64,6-.49,6.38,1.16,9.63,8.48,6.73,1.93-.76,5.43.21,7.14,1.65,3.3,2.78,5.49,6.87,8.77,9.68a190.22,190.22,0,0,0,19.75,15.2c4.07,2.64,7.18,4,4.74,10-.92,2.23,1.34,7.26,3.66,8.95a20.4,20.4,0,0,0,11.53,3.4c9.92-.07,19.82-1.25,29.74-1.6a35.42,35.42,0,0,1,10.34,1.48c6,1.66,11.85,4.11,17.92,5.62,7.36,1.82,15.06,3.52,18.26-8.59,1.62,3.17,2.62,4.35,2.83,5.66.92,5.75,4.57,4.8,7.84,2.91,9.72-5.63,11.51-20.32,2.46-27.41-9.22-7.21-6.94-16.46-6.74-25.41.17-7.41,2.13-14.8,2.13-22.2,0-13.82,5.65-18.94,22-16.6-22,28.31-7.87,53.95,2.56,79.92l3.05.28c1.73-2.52,3.46-5.05,6.39-9.3,1.22,3.89,2.28,6.33,2.7,8.87s-.42,5.69.52,8.06,3.21,5.75,5.34,6.13c1.75.31,5.51-2.79,6-4.94,1.5-6.23,1.88-12.74,2.54-19.16a63.7,63.7,0,0,0,0-6.91c2.58,0,5.37-.55,7.69.24a48.66,48.66,0,0,1,8,4c.64,6-.09,10.51,1.68,13.64,7,12.44,7.28,12.28-2.89,22.49-8.46-4.09-12.13-3.78-15.53,4.4-3.1,7.46-7.32,9.34-14.41,7.56a2.51,2.51,0,0,0-1.57.3,14.11,14.11,0,0,0-2.05,1.95c2,1.67,4.1,3.05,5.67,4.89,1.74,2,4.53,4.9,4.07,6.7-.74,3-3.52,5.56-5.83,7.94s-5.43,3.92-7.5,6.41c-3.33,4-4.6,10-11.44,10.19a4.07,4.07,0,0,0-2.78,2.53q-5.05,19.08-9.74,38.26c-1.46,5.89-.47,10.93,5.83,13.53,5.52,2.28,7.23,6.38,7.54,12.26.58,11,3.66,12.5,14.8,11.91A26.34,26.34,0,0,1,477,461.51c12,7.86,23.39,16.2,39.05,14.25,1.84-.23,4.91,3.84,6.3,6.5,4.84,9.32,8.64,19.21,14,28.22,2.79,4.73,7.58,9.34,14.4,6,5-2.44,7.54-11.81,4.86-18.4a184.59,184.59,0,0,0-9.16-19.21c-2.23-4.05-1.45-6.1,2.35-8.58,11.38-7.46,15.69-20.33,10.39-32.8-1.63-3.83-5.69-7.15-9.42-9.46-5.84-3.63-9.33-6.71-5.21-14.3,1.79-3.29,1-8.54.11-12.58-1.26-5.44-3.81-10.58-5.85-15.83-2.14-5.51-.61-8,5.6-8.43,5-.36,9.79-2.78,14.77-3.17,3.35-.26,9.18.51,9.9,2.37,3.11,8,9,8.58,16.44,7.82,2.66,7.29,5.39,14.33,7.79,21.48,1.84,5.52,4.16,9.24,10.17,4.4l5.64,6.23c10.23-9.74,12.23-21.66,11.86-35.78,2.21,1.67,3.85,2.7,5.24,4,6.41,5.94,13,11.68,19,18a84.61,84.61,0,0,1,11.66,15.21c3.79,6.48,14.82,13.08,23.38,12.59,2.33-.13,4.64-.51,5.91-.66-2.46,6.92-5,13.94-7.44,21l3.4,1.78c7.32-3.49,7.28-13.06,14.53-19.37,4.65,2.94,10.11,6.08,15.12,9.83,1.16.87,1.65,4.28.93,5.78-4.75,9.78-8.77,20.26-15.36,28.68-4.35,5.55-12.45,8.34-19.17,11.79-3.83,2-8.25,2.8-12.43,4.08-10.29,3.14-17.94,7.07-23.16,18.91-4.78,10.85-9,21.92-13.32,33-.85,2.19-.92,4.67-1.36,7l2.44,1c1.81-2.74,3.67-5.45,5.42-8.23,4.94-7.84,9.37-16,14.89-23.45,4.38-5.86,10.62-9.41,19-7.76.13,13.41.88,26.9,17.49,30.63,10.11,2.27,16.26-3,24.46-19.6,6.15,3.81,8.06,7.91,3.95,12.78-9.79,11.6-20.42,22.49-30.78,33.61-.45.48-1.53.39-4.35,1,.32-4.57.9-8.52.78-12.44-.07-2.61-1.13-5.19-1.74-7.78-2.44,1.36-5.36,2.26-7.21,4.18-4.86,5-8.65,11.24-14,15.68-20.3,17-17.09,25.8-8,40.38-5.95,2.57-11.81,5.18-17.73,7.66-7.13,3-9.45,8.79-11,16-2.13,9.63-6,18.87-8.48,28.43a37.06,37.06,0,0,0-.78,12.78c.24,2.51,2.2,4.95,3.66,7.24,9.08,14.22,8.08,12.23-3.62,22.88-8.14,7.41-15,16.25-22.44,24.43-2.21,2.41-4.36,4.89-6.76,7.1-9.74,8.91-12,16.43-6.58,28.47,4,8.94,9.45,17.2,14,25.87,4.72,8.9,10.34,17.62,8.24,28.48a56.17,56.17,0,0,1-2.25,6.54c-3.06-1.82-6.29-2.87-8.22-5.06-5.93-6.74-11.4-13.89-17-20.95-.63-.8-1.32-2.25-1-3,5.27-12.69-6.18-17.61-11.83-25-3-3.92-8-4.7-11.31-.39-3.87,5-7.56,3.58-12.09,1.6-13.87-6.05-28.29-5.37-42.68-2.52-2.52.5-4.63,3.08-6.93,4.7,1.68,1.92,3.23,4,5.05,5.75,2.4,2.34,5,4.46,7.54,6.67l-1.05,2c-7.42-1.74-14.8-3.68-22.28-5.11-2.79-.53-5.8.21-8.71.24-2.16,0-4.57.39-6.42-.42-7.94-3.45-14.6-2.13-21.16,3.56A92.23,92.23,0,0,1,423,800.26c-10.27,5.76-14.51,15-13.23,26.56.73,6.58.58,13.81-1.42,20-8.85,27.67-3.7,52.15,15.88,73.24,4.83,5.22,11.81,8.48,17.95,12.4a6.3,6.3,0,0,0,4.69.52c7.06-2.26,14-5,21.06-7.14a8.32,8.32,0,0,1,6.31,1c5.62,3.89,11.25,2.48,13.06-4,2.09-7.54,4-15.15,5.5-22.83,1.78-9.22,8.73-12.08,16.41-13.71,7.18-1.53,14.55-2.21,23.47-3.5-2.36,12-12.69,22.86-3.21,37.15-9.65-2.69-10.2,1.92-9.51,6.9,1.23,8.82,2.09,17.27-5.1,24.5-1.36,1.37-1.51,6.27-.29,7.33,1.83,1.6,5.49,2,8.14,1.6,12.36-2.12,24.58-5.08,37-7,13.79-2.21,23.69,6.34,24.1,20.17.26,9,.89,18.06.45,27.05-.56,11.5,3.65,20.68,13,26.6a128.38,128.38,0,0,0,26.32,12.81c8.19,2.83,14-3.1,18.47-9.23a19.79,19.79,0,0,1,20.21-7.81c8.37,1.59,14.54,7.89,17.41,17.27l-9.9,3.51c-.46-1.58-1.21-3.06-1.25-4.55-.15-5.35-2.53-9.83-7.82-9.75-5,.07-10,2.44-14.82,4.25-1.23.46-1.6,2.82-2.75,3.91-7.19,6.82-7.23,7,1.11,14.73l-8.59,6c-10.68-14.87-25-14.74-36.53-12.84-9.22-8.08-15.78-15.58-23.91-20.41-6.82-4-4.31,3.79-5.3,7.43l-5.83-2.12c-.19-1-.52-1.68-.34-2.06,4.24-8.47,1.15-14.62-5.92-19.76a111.41,111.41,0,0,1-13.37-10.76c-2.21-2.21-3-5.82-4.57-8.69-1.13-2-2.27-5.07-3.94-5.48-2.18-.53-6.29.36-7.1,1.91-2.4,4.64-5.63,3.19-9,2.57-11.45-2.09-23.12-3.41-34.28-6.54-5.3-1.49-9.7-6.33-14.38-9.81-7.37-5.46-14-12.4-22.17-16.11-4.76-2.16-12.9-1.1-17.63,1.71-12.14,7.21-21.55,1.63-31.45-4-2.36-1.34-4.56-3.62-7.05-4-11.07-1.57-19.07-8.54-27.93-14.34-4.92-3.23-11.49-3.82-17-6.37-3.69-1.71-7-4.53-10-7.28-2.78-2.48-4.8-5.8-7.59-8.26C324.54,908,318.51,903.29,311.43,897.46Z"/><path class="cls-1" d="M604.91,317.05c-7.67-3.61-13.87-7.18-20.53-9.36-3-1-7,.75-10.52,1.26,1,3.6.94,8.44,3.29,10.58,5.82,5.26,13.05,8.91,19.13,13.93,4.24,3.5,7.52,8.17,11.23,12.32l-2,2c-5.27-1.87-10.45-4.18-15.86-5.43-2.76-.64-5.95.62-8.94,1,1.95,2.59,3.39,6,5.95,7.63,4.77,3.08,10.21,5.11,15.3,7.72,1.31.67,2.36,1.84,5.35,4.25-17.09.3-32.2,2.55-43-11.57-3.62-4.71-8.19-5.74-13.84-4.25a45.58,45.58,0,0,1-12.83,1.95c-1.92-.07-4.26-2.74-5.34-4.78-.37-.71,2.3-3.39,4-4.67,1.22-.93,3.08-1,4.61-1.55,10.62-4,11.51-6.84,6.42-13.57.5-8.54,2.18-15.36.85-21.54a20.16,20.16,0,0,0-9.2-12.15c-9-4.73-18-8.76-24.23-17.43-3.63-5.08-8.94-3.6-13.24-.81-9,5.79-18.76,6.78-29.05,6.57-6.89-.14-11.46-3.31-12-9.78-.73-9.41-1.22-19.1.21-28.35,1.67-10.74,6.37-13.09,17.41-13.16,5.13,0,10.26-1.76,15.38-1.74,3.64,0,8.71.49,10.69,2.83,11.8,14,27.47,21.16,44,27.18,4.34,1.57,8.88,3.24,12.47,6a11.59,11.59,0,0,1,4,8.45c-.44,9.05,1.1,12.58,10.09,14.72,7.38,1.76,15,2.46,22.61,3.29,9.31,1,10.57,2.61,9.24,12C605.85,305.66,605.52,310.78,604.91,317.05Z"/><path class="cls-1" d="M326.64,271.52c5.77,1,11.53,2.2,17.34,2.85,2,.23,4.25-.89,6.38-1.4-1.33-1.82-2.29-4.53-4.07-5.27-4-1.65-8.37-2.25-12.56-3.42-2.36-.65-4.65-1.59-7-2.4l.06-2.35,13.3-3.71-11-8.36c1-4.18,1-9,3.29-12.13,2.43-3.36,7-5.16,11.12-7.93,2.91,5.3-1.72,16.64,6.48,11.94,4.23,2.61,7,5.42,10.17,5.85,1.78.24,4.1-3.4,7.13-6.16-.41,4.09-.8,7.66-1.11,11.23-.43,4.93.77,9.18,6.58,9.12s5.85-4.72,5.75-9a17,17,0,0,0-.77-4.85c-2.3-7-1.44-12.86,7.63-17.18.76,3.06,2.15,6,2.11,8.91-.1,8.93-1,17.86-1.09,26.78-.05,7.72,5.17,12.38,11.23,16,4.32,2.55,7.23,5.75,4.22,10.51-3.14,5-5.82,12.08-14.24,7.68a19,19,0,0,1-4.77-3.11c-4.95-5-8.83-5.07-15.53-1.19-5.93,3.44-14.49,2.5-21.92,2.9-.88.05-1.71-3.86-3-5.63a58.39,58.39,0,0,0-7.15-8.51c-3.18-3-6.85-5.4-10.3-8.06Z"/><path class="cls-1" d="M764.42,495.73l-50.83,12.12c1.41-17.87,2.7-34.36,4-50.86l2.59-.88c1.21,2.45,3.16,4.79,3.5,7.35,1.33,9.85,5.4,13.43,14.39,9.57,7.53-3.24,10.9-.41,14.76,5.09,1.73,2.46,5.76,3.36,7.32,5.87C762.27,487.4,763,491.66,764.42,495.73Z"/><path class="cls-1" d="M295,230.08c5.72-5,12-9.45,16.92-15.07,1.88-2.14.84-6.86,1.25-11.78,3.52.46,7.92.24,11.62,1.73,3.86,1.55,7.31,4.46,10.47,7.29s5.59,6.18,8.1,9c-8.18,5.78-15.61,10.87-22.83,16.23-2.09,1.55-3.39,4.13-5.42,5.78-2.77,2.26-5.89,4.07-8.34,5.72-3.49-7.08-6.09-12.39-8.7-17.7Z"/><path class="cls-1" d="M485.65,338.09c.59-.07,1.68-.57,2.14-.23,8.85,6.54,17.7,13.09,26.31,19.93,1.06.83.83,3.3,1.19,5-1.75.36-3.86,1.53-5.21.94-7.37-3.19-12.64-1.58-17.82,4.78-1.52,1.87-7.29.28-9.43.28C483.79,358.34,484.69,348.6,485.65,338.09Z"/><path class="cls-1" d="M416.17,265l-15-20.92c2.21-4.77,3.88-9.18,6.25-13.16a8.65,8.65,0,0,1,5.46-3.81c1.2-.15,3.85,2.48,4,4,1.1,10.78,1.72,21.6,2.5,32.41Z"/><path class="cls-1" d="M57,331c5.43-11.7,15.86-4.49,24-8.84C74,334,70.67,335.19,57,331Z"/><path class="cls-1" d="M412.69,299c1-4.64,1.79-8.19,3-13.85l12.22,16.18-2.34,3.05Z"/><path class="cls-1" d="M525.56,295.08c4.24,3.6,7.72,6.88,3.57,11.82-.83,1-4.41,1.13-5.47.22C518.79,302.89,521.34,299.1,525.56,295.08Z"/><path class="cls-1" d="M430.52,293.17c6.56,6.41,6.56,10.38-1.27,19.34C429.7,305.71,430.11,299.41,430.52,293.17Z"/><path class="cls-1" d="M734,137.32c-6.39.32-10.37-.11-13.94.91-2.69.77-4.86,3.39-7.26,5.19,2,2.39,3.89,6.63,6.09,6.8,5.47.45,11.1-.89,16.64-1.68,1.28-.18,2.47-1.06,6.05-2.69.46,7.51,2.42,14.37.87,20.29-2.32,8.82-7.6,16.81-10.7,25.48-2,5.61-3.65,11.92-3.17,17.72.91,10.85-.14,20.78-7.33,29.26-4.23,5-5.75,10.13-4.18,16.63,4.52,18.74,6.51,38.31,21.07,53.26,3,3.06,3.52,8.53,4.39,13.71-12-3.55-23-3.61-34.28.49-2.62,1-7.13-.89-9.77-2.81-13.09-9.53-28.81-15.84-37.12-31.34-2.16-4-7.7-6.08-10.9-9.73A108.19,108.19,0,0,1,638.08,262c-2.42-4.18-1.64-8.58,2.54-12.5,2.08-1.95,3.74-6.87,2.69-9-1.57-3.19-5.41-6.09-8.89-7.17-1.71-.53-5.25,2.92-7.1,5.25-2.48,3.12-4.63,9-8.76,4.68-2.57-2.72-1.49-9.21-1.35-14,0-1.17,3-2.08,4.28-3.42s3-3.12,2.68-4.28c-.34-1.39-2.53-2.4-4-3.4a3.51,3.51,0,0,0-2.37-.52c-11.4,2.39-14.4-6.26-19.1-13.65-6-9.38-12.32-18.75-19.89-26.83C568.05,165.72,557.23,164.46,543,171c-4,1.82-7.65,4.53-11.79,5.6-2.55.66-7.2-.16-8.2-1.88-1.19-2.07-.3-6.28,1.14-8.69,1.59-2.65,5.24-4,7.22-6.5A8.14,8.14,0,0,0,532.8,153c-.35-1.18-3.58-1.94-5.55-2s-4.34,1.43-6.37,1.16c-3.18-.43-8.09-1-8.9-2.91-1.19-2.79-.65-8.63,1.37-10.08,12.36-8.88,9.83-19.68,7.47-32.26-1.64-8.74,1.26-18.65,3.52-27.7,1.69-6.77,5.68-13,8.47-19.47,1.39-3.24,4-7.06,3.25-9.93-2.3-9.25,4.43-12.33,9.53-17.08,6-5.56,11.09-12,17-17.64,3.85-3.63,8.12-7.52,12.94-9.24,5.81-2.09,10.24.23,13.45,6.9C591.59,18.12,596.94,23,602.25,26c6.86,3.89,11.46.44,12.09-7.51.44-5.68.7-11.37,1-17.06L618.07,0c3.16,4.48,8.25,8.6,9.16,13.49,4,21.29,17.7,34.27,34.71,45.47,10.92,7.19,21.16,15.47,31.3,23.76a19.74,19.74,0,0,1,6.51,10c3.6,15.5,12.23,27.17,25,36.21C727.56,130.85,729.87,133.5,734,137.32Z"/><path class="cls-1" d="M426.22,178.65c4.72,1.88,9.38,4,14.19,5.6,12.69,4.32,25.45-6.29,23.76-19.62-.76-6-5.1-7.87-10.28-8.79-17.22-3-29.22-15.65-30.44-33.26a17,17,0,0,1,4.74-11.83c4.14-4,7,1,10,3.67,5.9,5.26,8.94,6,16.5,3.74-2.4-2.39-4.17-4.48-6.26-6.17-10.83-8.76-10.79-13.7-.14-22.13,6.63-5.25,13-10.85,19.35-16.43,10.24-9,21.89-12,35-8.21,8.05,2.29,10.55,6.86,8.31,14.79-3.17,11.21-6.23,22.47-10,33.48-1.26,3.69-5.3,6.38-6.7,10.05-1.62,4.22-3.93,10.46-2.08,13.29,5.05,7.73,3.09,13.89-1.11,20.4-3.35,5.18-6.87,10-.79,15.93.85.83-1.34,6.46-3.48,8.17-2.29,1.83-6.31,1.33-9.36,2.41-5.35,1.9-10.8,3.77-15.66,6.59-2,1.18-2.62,4.78-3.87,7.27,2.46.8,4.89,2.17,7.38,2.28,7.06.32,14.18-.22,21.21.34,2.14.17,4.09,2.8,6.13,4.3-1.58,1.74-2.83,4.11-4.79,5.12-12.48,6.46-25.71,7.31-38.95,3.22-2.54-.78-5.64-5.42-5.5-8.12.34-6.63-2.4-9.67-7.91-12.6-4.49-2.37-7.89-6.8-11.76-10.32Z"/><path class="cls-1" d="M411.89,163.36c-13.06-3.3-19.3-13.87-14.6-25.57C404.53,145.09,414.18,150.14,411.89,163.36Z"/><path class="cls-1" d="M435.07,168.53c-9.16-1.31-13.17-7.42-12.61-18.92Z"/><path class="cls-1" d="M558.69,873.93c11.15-20.52,30-22.65,49.65-19,23.71,4.38,47,11,70.8,16.69-8.46,10.23-21,7.65-32.22,11.28l1.91-8.43c-2.08-.16-3.72-.75-5-.31-5.55,1.87-9.7,1-13.6-4-1.81-2.31-5.89-3.36-9.13-3.89-5-.82-10.29-.22-15.3-1.1-5.66-1-12.29,2-16.41-6.22-2-4-16.66,1.82-21.24,8-2.34,3.13-4.64,6.29-7,9.43Z"/><path class="cls-1" d="M356.63,209.5l5.71-7.06c-4.9-.87-8.61-1.7-12.38-2.16-6.49-.78-8.26-4.06-4.59-9.33,2.84-4.1,6.56-7.59,9-10.37l14.91,14.08,8.06-12c3.32,7.1,6.83,14.58,10.61,22.65l-30.69,7.27Z"/><path class="cls-1" d="M331.79,182.38c-1.3-1-4.63-2.34-5.93-4.79-.86-1.62.43-5.77,2.1-7.07a113.73,113.73,0,0,1,16.33-10.4c1.49-.79,4.69-.23,5.91.94.91.87.14,3.8-.31,5.71C347.88,175.4,343.57,181.75,331.79,182.38Z"/><path class="cls-1" d="M688.32,892c4.12-.64,8.35-1,12.35-2.06a8.87,8.87,0,0,0,5.21-4c.45-.94-1.87-3.33-3.11-4.93-2-2.59-4.14-5.06-6.22-7.59a103.4,103.4,0,0,1,10.08-3.59,39.56,39.56,0,0,1,10.46-1.39c6.12.18,12.24.81,18.32,1.6a73.47,73.47,0,0,1,20.47,5.16c-4,1.33-7.85,3.17-11.93,3.88-7.45,1.3-13.24,4.37-16.81,11.4-2.31,4.52-5.23,6.25-11.23,4.12-4.88-1.73-11,.23-16.65.43-3.6.12-7.21,0-10.82,0Z"/><path class="cls-1" d="M395.26,184.68c11.23-2.69,15.75-.5,22.09,8.55,3,4.34,8,7.28,11.59,11.28a8.2,8.2,0,0,1,1.85,6.3c-.24,1.16-3.39,2.48-5.2,2.44C410.9,212.92,396.52,199.22,395.26,184.68Z"/><path class="cls-1" d="M666.18,908.17c-8.75,5.59-22.53,3.7-29.48-4C646.9,900.7,658.63,902.31,666.18,908.17Z"/><path class="cls-1" d="M369,170.37c-1.73-4.52-6.07-10.41-4.59-13.25,2.36-4.52,8.61-7,13.21-10.34l3.19,2.37q-4.08,10.66-8.17,21.32Z"/><path class="cls-1" d="M773.6,871.36c3.64-2.18,7.1-4.82,11-6.31,1.47-.56,4.4,1.14,5.76,2.64.56.61-.89,4.63-2,5-4.49,1.3-9.22,1.73-13.87,2.49Z"/><path class="cls-1" d="M39,191.71c9.38.84,6.27,8.91,10.2,15.35C37.18,205.69,45.62,194.14,39,191.71Z"/></g></g></svg>