<svg xmlns="http://www.w3.org/2000/svg" viewBox="0 0 435.17 267.76"><defs><style>.cls-1{fill:#808987;}.cls-2{fill:#cea252;}.cls-3,.cls-5{fill:#d0d3ba;}.cls-3,.cls-4,.cls-6{stroke:#d0d3ba;stroke-linecap:round;stroke-linejoin:round;stroke-width:3px;}.cls-4,.cls-6{fill:none;}.cls-6{stroke-dasharray:18.47 12.31;}</style></defs><title>Asset 32</title><g id="Layer_2" data-name="Layer 2"><g id="Layer_1-2" data-name="Layer 1"><rect class="cls-1" y="179.36" width="435.17" height="86.61"/><path class="cls-2" d="M121.11,12.51s-4.51.09-6.69-.08a2.42,2.42,0,0,1-2.29-1.31,23.43,23.43,0,0,1-1.7-8.91c-4.69,0-8.31,4.32-8.56,6.05-.12.9,6.35,3,6.35,3s-7.38-.49-7.49.7c-.64,6.71,3.79,11.79,9.39,11.89.17-2.09,1.34-8.54,2.43-9.52a5.24,5.24,0,0,1,2.06-.69c.75-.11,6.35-.36,6.35-.36Z"/><path class="cls-2" d="M77,40.79s-2.19-4.7-3-7.08a2.8,2.8,0,0,1,.3-3,27,27,0,0,1,8.61-5.95c-2.2-4.94-8.44-6.76-10.38-6.2-1,.28-.16,8.08-.16,8.08s-2.93-8-4.24-7.58c-7.38,2.46-10.67,9.51-8.16,15.46,2.29-.8,9.64-2.58,11.18-1.89a6.2,6.2,0,0,1,1.68,1.86c.47.74,3.35,6.52,3.35,6.52Z"/><path class="cls-2" d="M137,82.71s-3-3.17-4.29-4.85a2.35,2.35,0,0,1-.55-2.5,22.72,22.72,0,0,1,5.3-7c-3-3.36-8.5-3.17-9.91-2.22-.72.5,2,6.49,2,6.49s-4.45-5.62-5.38-4.93c-5.23,3.9-6,10.39-2.44,14.48,1.62-1.24,7-4.59,8.42-4.44a5,5,0,0,1,1.83,1c.57.47,4.39,4.32,4.39,4.32Z"/><path class="cls-2" d="M71.13,102.89s-.87-5.12-1-7.63a2.8,2.8,0,0,1,1.09-2.85A27,27,0,0,1,81.05,89c-.82-5.35-6.35-8.75-8.37-8.73-1,0-2.3,7.75-2.3,7.75s-.7-8.51-2.08-8.43c-7.76.42-12.8,6.35-12,12.75,2.42-.16,10,.07,11.28,1.14a6,6,0,0,1,1.14,2.23c.26.84,1.51,7.18,1.51,7.18Z"/><polygon class="cls-3" points="119.68 178.03 110.72 178.03 113.71 125.8 119.68 178.03"/><polyline class="cls-4" points="54.17 37.07 113.71 125.8 167.44 28.28"/><line class="cls-4" x1="117.85" y1="2.58" x2="148.7" y2="61.95"/><line class="cls-4" x1="179.88" y1="65.93" x2="136.43" y2="84.5"/><line class="cls-4" x1="171.25" y1="93.13" x2="128.47" y2="99.1"/><polyline class="cls-4" points="178.55 82.84 166.28 71.23 166.94 52"/><line class="cls-4" x1="144.39" y1="1.5" x2="129.79" y2="24.39"/><line class="cls-4" x1="140.08" y1="42.38" x2="158.98" y2="24.8"/><line class="cls-4" x1="121.5" y1="111.04" x2="104.92" y2="31.77"/><line class="cls-4" x1="126.97" y1="46.19" x2="113.04" y2="67.09"/><line class="cls-4" x1="135.93" y1="58.8" x2="120.01" y2="58.8"/><line class="cls-4" x1="100.61" y1="52.33" x2="109.56" y2="57.97"/><line class="cls-4" x1="99.61" y1="80.19" x2="116.19" y2="88.15"/><line class="cls-4" x1="83.36" y1="80.19" x2="95.96" y2="45.36"/><line class="cls-4" x1="72.08" y1="63.61" x2="82.7" y2="30.11"/><line class="cls-4" x1="90.57" y1="64.77" x2="105.17" y2="64.77"/><polyline class="cls-4" points="104.59 113.03 89.31 108.44 64.78 101.09"/><line class="cls-4" x1="80.04" y1="120.32" x2="89.31" y2="108.44"/><line class="cls-4" x1="77.72" y1="74.22" x2="45.22" y2="77.21"/><line class="cls-4" x1="65.12" y1="54.32" x2="42.23" y2="51"/><path class="cls-2" d="M330.23,12.51s-4.5.09-6.68-.08a2.43,2.43,0,0,1-2.3-1.31,23.46,23.46,0,0,1-1.69-8.91c-4.69,0-8.32,4.32-8.56,6.05-.12.9,6.35,3,6.35,3s-7.38-.49-7.5.7c-.64,6.71,3.8,11.79,9.39,11.89.18-2.09,1.35-8.54,2.43-9.52a5.36,5.36,0,0,1,2.06-.69c.76-.11,6.35-.36,6.35-.36Z"/><path class="cls-2" d="M286.11,40.79s-2.2-4.7-3-7.08a2.78,2.78,0,0,1,.31-3A27,27,0,0,1,292,24.73c-2.21-4.94-8.44-6.76-10.38-6.2-1,.28-.17,8.08-.17,8.08s-2.93-8-4.23-7.58c-7.38,2.46-10.67,9.51-8.17,15.46,2.3-.8,9.64-2.58,11.18-1.89a6.09,6.09,0,0,1,1.69,1.86c.47.74,3.35,6.52,3.35,6.52Z"/><path class="cls-2" d="M346.09,82.71s-3-3.17-4.29-4.85a2.37,2.37,0,0,1-.56-2.5,22.79,22.79,0,0,1,5.31-7c-3.06-3.36-8.51-3.17-9.91-2.22-.73.5,2,6.49,2,6.49s-4.44-5.62-5.37-4.93c-5.24,3.9-6,10.39-2.45,14.48,1.62-1.24,7-4.59,8.42-4.44a5,5,0,0,1,1.84,1c.57.47,4.39,4.32,4.39,4.32Z"/><path class="cls-2" d="M280.26,102.89s-.87-5.12-1.05-7.63a2.8,2.8,0,0,1,1.09-2.85A26.89,26.89,0,0,1,290.18,89c-.82-5.35-6.35-8.75-8.38-8.73-1,0-2.29,7.75-2.29,7.75s-.7-8.51-2.08-8.43c-7.76.42-12.81,6.35-12,12.75,2.42-.16,10,.07,11.28,1.14a6.12,6.12,0,0,1,1.13,2.23c.26.84,1.51,7.18,1.51,7.18Z"/><path class="cls-2" d="M358,98.28s3.65,3.68,5.25,5.64a2.79,2.79,0,0,1,.74,3,27,27,0,0,1-6.09,8.51c3.74,3.91,10.22,3.51,11.87,2.33.84-.61-2.59-7.66-2.59-7.66s5.47,6.55,6.56,5.7c6.1-4.81,6.82-12.56,2.45-17.31-1.89,1.52-8.2,5.68-9.88,5.55a6.07,6.07,0,0,1-2.22-1.17c-.69-.54-5.36-5-5.36-5Z"/><polygon class="cls-3" points="328.8 178.03 319.85 178.03 322.83 125.8 328.8 178.03"/><polyline class="cls-4" points="263.3 37.07 322.83 125.8 376.56 28.28"/><line class="cls-4" x1="326.98" y1="2.58" x2="357.83" y2="61.95"/><line class="cls-4" x1="389" y1="65.93" x2="345.55" y2="84.5"/><line class="cls-4" x1="380.38" y1="93.13" x2="337.59" y2="99.1"/><polyline class="cls-4" points="387.68 82.84 375.4 71.23 376.07 52"/><line class="cls-4" x1="353.51" y1="1.5" x2="338.92" y2="24.39"/><line class="cls-4" x1="349.2" y1="42.38" x2="368.11" y2="24.8"/><line class="cls-4" x1="330.63" y1="111.04" x2="314.04" y2="31.77"/><line class="cls-4" x1="336.1" y1="46.19" x2="322.17" y2="67.09"/><line class="cls-4" x1="345.06" y1="58.8" x2="329.14" y2="58.8"/><line class="cls-4" x1="309.73" y1="52.33" x2="318.69" y2="57.97"/><line class="cls-4" x1="308.74" y1="80.19" x2="325.32" y2="88.15"/><line class="cls-4" x1="292.49" y1="80.19" x2="305.09" y2="45.36"/><line class="cls-4" x1="281.21" y1="63.61" x2="291.82" y2="30.11"/><line class="cls-4" x1="299.7" y1="64.77" x2="314.29" y2="64.77"/><polyline class="cls-4" points="313.71 113.03 298.44 108.44 273.91 101.09"/><line class="cls-4" x1="289.17" y1="120.32" x2="298.44" y2="108.44"/><line class="cls-4" x1="286.85" y1="74.22" x2="254.34" y2="77.21"/><line class="cls-4" x1="274.24" y1="54.32" x2="251.36" y2="51"/><line class="cls-3" x1="1.95" y1="179.36" x2="433.23" y2="179.36"/><line class="cls-5" x1="1.95" y1="222.81" x2="433.23" y2="222.81"/><line class="cls-4" x1="1.95" y1="222.81" x2="11.39" y2="222.81"/><line class="cls-6" x1="23.7" y1="222.81" x2="417.63" y2="222.81"/><line class="cls-4" x1="423.78" y1="222.81" x2="433.23" y2="222.81"/><line class="cls-3" x1="1.95" y1="266.26" x2="433.23" y2="266.26"/></g></g></svg>