<svg xmlns="http://www.w3.org/2000/svg" viewBox="0 0 21.08 20.71"><defs><style>.cls-1{fill:#cea252;}</style></defs><title>Asset 33</title><g id="Layer_2" data-name="Layer 2"><g id="Layer_1-2" data-name="Layer 1"><path class="cls-1" d="M.1.46S3.76,4.15,5.35,6.11a2.79,2.79,0,0,1,.74,3A27.06,27.06,0,0,1,0,17.57c3.75,3.9,10.23,3.5,11.87,2.32.84-.6-2.58-7.66-2.58-7.66s5.47,6.56,6.55,5.7C22,13.12,22.66,5.37,18.29.62c-1.89,1.53-8.2,5.69-9.88,5.56A6.22,6.22,0,0,1,6.19,5C5.5,4.47.83,0,.83,0Z"/></g></g></svg>