<svg xmlns="http://www.w3.org/2000/svg" viewBox="0 0 135.73 73.02"><defs><style>.cls-1{fill:#871b35;}.cls-2{fill:#d0d3ba;}.cls-3{fill:none;stroke:#d0d3ba;stroke-linecap:round;stroke-linejoin:round;stroke-width:3px;}</style></defs><title>Asset 34</title><g id="Layer_2" data-name="Layer 2"><g id="Layer_1-2" data-name="Layer 1"><path class="cls-1" d="M134.23,46.71c0,9.25-4.75,13.63-7,13.63-4.57,13.38-22.91,16.38-29.67,0l-54.08,0c-4.72,14.61-23.9,15.32-29.24.1L9.8,60.15c-5.18,0-8.11-3.9-8.19-8.55L1.5,39.4c0-6.33,4-9.47,11.67-9.47,0,0,19.65-28.43,34.24-28.43l28.69.66C92,2.16,114.81,30,114.81,30,127.48,30,134,33.75,134.23,46.71Zm-15.59,9.78A6.43,6.43,0,0,0,112.26,50a6.43,6.43,0,1,0-.08,12.85A6.48,6.48,0,0,0,118.64,56.49ZM63.85,27.42H98.41c-8.67-9-16.84-16.1-24.38-16.1H63.85Zm-9.2,0V11.32l-5.36,0c-5.74,0-14.95,9.12-20.43,16.08ZM29,62.87A6.42,6.42,0,0,0,28.58,50a6.29,6.29,0,0,0-6.34,6.79A6.36,6.36,0,0,0,29,62.87Z"/><path class="cls-2" d="M112.26,50a6.43,6.43,0,1,1-6.58,6.57A6.32,6.32,0,0,1,112.26,50Z"/><path class="cls-2" d="M98.41,27.43H63.85V11.34H74C81.57,11.33,89.74,18.42,98.41,27.43Z"/><path class="cls-2" d="M54.65,11.32V27.41H28.86c5.48-7,14.69-16.08,20.43-16.08Z"/><path class="cls-2" d="M35.17,56.26A6.44,6.44,0,0,1,29,62.87a6.36,6.36,0,0,1-6.72-6A6.29,6.29,0,0,1,28.58,50,6.43,6.43,0,0,1,35.17,56.26Z"/><path class="cls-3" d="M76.1,2.16C92,2.16,114.81,30,114.81,30c12.67,0,19.17,3.73,19.42,16.69,0,9.25-4.75,13.63-7,13.63-4.57,13.38-22.91,16.38-29.67,0l-54.08,0c-4.72,14.61-23.9,15.32-29.24.1L9.8,60.15c-5.18,0-8.11-3.9-8.19-8.55L1.5,39.4c0-6.33,4-9.47,11.67-9.47,0,0,19.65-28.43,34.24-28.43Z"/><path class="cls-3" d="M98.41,27.43c-8.67-9-16.84-16.1-24.38-16.1H63.85V27.42Z"/><path class="cls-3" d="M54.65,11.32l-5.36,0c-5.74,0-14.95,9.12-20.43,16.08H54.65Z"/><path class="cls-3" d="M118.64,56.49A6.43,6.43,0,0,0,112.26,50a6.43,6.43,0,1,0-.08,12.85A6.48,6.48,0,0,0,118.64,56.49Z"/><path class="cls-3" d="M35.17,56.26A6.43,6.43,0,0,0,28.58,50a6.29,6.29,0,0,0-6.34,6.79,6.36,6.36,0,0,0,6.72,6A6.44,6.44,0,0,0,35.17,56.26Z"/></g></g></svg>