<svg xmlns="http://www.w3.org/2000/svg" viewBox="0 0 205.49 204.03"><defs><style>.cls-1{fill:#5c968e;}.cls-1,.cls-2,.cls-3{stroke:#d0d3ba;stroke-linejoin:round;stroke-width:3px;}.cls-1,.cls-2{stroke-linecap:round;}.cls-2,.cls-3{fill:none;}</style></defs><title>Asset 54</title><g id="Layer_2" data-name="Layer 2"><g id="Layer_1-2" data-name="Layer 1"><path class="cls-1" d="M165.14,23C111.89-19,41.06,6.69,16.79,47.94-9.12,92-2.16,146.14,38.14,180.35c44.88,38.12,112,20.71,136.67-4.54C208.12,141.76,222.47,68.13,165.14,23Z"/><path class="cls-2" d="M41.35,40.59A127,127,0,0,1,56.23,20.81C62.28,14.25,82.59,3.69,94.29,2"/><path class="cls-2" d="M116,2.25c2.15,2.74,15.39,40,13.29,46.83-7.72,12.2-47,22.62-53.46,29.7C80,69,72.1,48.13,60,48.27c-18.29.22-21.14,17.57-14.6,26.35A14.19,14.19,0,0,0,35,77.89"/><path class="cls-2" d="M20.34,161.14c2-3.29,5-12,3.06-30.37C21,108,52.8,83.65,57.29,92.6c-23.17,16.45-17.92,47.65-20,52.76,12,5.17,6.91-38.84,24.93-45.91,10.62-2,28.55,43,42,50.87-17.83,29.91-47.34,24.2-62.17,33.18"/><path class="cls-2" d="M143.14,9.68c-3.44.1-9.47,6.67-9.19,8.37.15.88,8.74,15.39,11.25,22s4.74,18,3.22,24.89c9.14-5.31,23.55-27.72,25.4-34.45"/><path class="cls-2" d="M178.68,35.54C177.25,41,172.83,51.59,169.41,56c-1.76,4.76,12,8.74,9.18,16.39-3.73,10.08-8.87,21-4,22.75,4.65,1.72,20.42-17,23.39-28.07"/><path class="cls-2" d="M197.57,138.3c-3.17,1.54-6,2.37-8,1.51-4.78,10.06-21.18,22.51-24.25,20,7.56-8.7,14.2-17.72,18.86-29.5s-6.8-14.07-11.83-11.91c-8.54,3.66-32.86,11.88-34.54,21.38C135.61,152,154.18,159.33,151.35,169c-2.33,7.59-32,30.58-40.12,33.07"/><path class="cls-3" d="M202.2,82.3c-.8,5.58-9,17.78-8.45,30.16.25,6.14,4.13,15.23,7,15.35"/></g></g></svg>