<svg xmlns="http://www.w3.org/2000/svg" viewBox="0 0 229.39 204.03"><defs><style>.cls-1{fill:#5c968e;}.cls-1,.cls-2{stroke:#d0d3ba;stroke-linecap:round;stroke-linejoin:round;stroke-width:3px;}.cls-2{fill:none;}</style></defs><title>Asset 14</title><g id="Layer_2" data-name="Layer 2"><g id="Layer_1-2" data-name="Layer 1"><path class="cls-1" d="M189,23C135.79-19,65,6.69,40.69,47.94,14.78,92,21.74,146.14,62,180.35c44.89,38.12,112,20.71,136.67-4.54C232,141.76,246.37,68.13,189,23Z"/><path class="cls-2" d="M65.25,40.59A127,127,0,0,1,80.13,20.81C86.19,14.25,106.49,3.69,118.19,2"/><path class="cls-2" d="M139.91,2.25c2.16,2.74,15.39,40,13.29,46.83-7.72,12.2-47,22.62-53.46,29.7C103.9,69,96,48.13,83.92,48.27c-18.29.22-21.14,17.57-14.59,26.35a14.17,14.17,0,0,0-10.45,3.27"/><path class="cls-2" d="M44.24,161.14c2-3.29,5-12,3.06-30.37C44.92,108,76.7,83.65,81.19,92.6c-23.17,16.45-17.92,47.65-20,52.76,12,5.17,6.91-38.84,24.93-45.91,10.62-2,28.55,43,42,50.87C110.3,180.23,80.79,174.52,66,183.5"/><path class="cls-2" d="M167,9.68c-3.44.1-9.47,6.67-9.19,8.37.15.88,8.74,15.39,11.25,22s4.75,18,3.22,24.89c9.14-5.31,23.56-27.72,25.41-34.45"/><path class="cls-2" d="M202.58,35.54C201.15,41,196.73,51.59,193.31,56c-1.76,4.76,12,8.74,9.18,16.39-3.73,10.08-8.87,21-4,22.75,4.65,1.72,20.42-17,23.39-28.07"/><path class="cls-2" d="M221.47,138.3c-3.17,1.54-6,2.37-8.05,1.51-4.78,10.06-21.18,22.51-24.25,20,7.56-8.7,14.2-17.72,18.86-29.5s-6.8-14.07-11.83-11.91c-8.54,3.66-32.86,11.88-34.54,21.38C159.51,152,178.08,159.33,175.25,169c-2.33,7.59-32,30.58-40.12,33.07"/><path class="cls-1" d="M65.15,40.53c-5.26-2.07-24.28-21.43-29-26.12C32.38,17.72,49.32,46.05,48.73,47c-2.78,4.52-10-2-11.18,2.19C36.13,51.47,41.47,55.81,45,62c-2.18,2.65-4.78.43-6.92,3s.91,7.12.76,10.86c-2.67.7-14.85-4.07-16.07.59-.84,3.22,5.34,9.37,3.87,12.43-11.08,3-27.21,12-24.93,16.21,9.55-.1,28.23,4.3,33.89,7.32"/></g></g></svg>