<svg xmlns="http://www.w3.org/2000/svg" viewBox="0 0 79.74 79.74"><defs><style>.cls-1{fill:none;stroke-linecap:round;stroke-miterlimit:10;}.cls-1,.cls-2{stroke:#dde2d9;stroke-width:3px;}.cls-2{fill:#e0695a;stroke-linejoin:round;}.cls-3{fill:#dde2d9;}</style></defs><title>Asset 55</title><g id="Layer_2" data-name="Layer 2"><g id="Layer_1-2" data-name="Layer 1"><line class="cls-1" x1="21.47" y1="21.47" x2="13" y2="13"/><line class="cls-1" x1="60.56" y1="21.55" x2="69.03" y2="13.09"/><line class="cls-1" x1="13.09" y1="69.03" x2="21.55" y2="60.56"/><line class="cls-1" x1="61.73" y1="72.72" x2="72.72" y2="61.73"/><line class="cls-1" x1="65.36" y1="76.35" x2="76.35" y2="65.36"/><line class="cls-1" x1="70.74" y1="78.24" x2="78.24" y2="70.74"/><path class="cls-2" d="M41.79,21c-7.28-.45-13.28,2.17-17.48,8.24A19,19,0,0,0,21.49,44.9c1.72,7.4,5.7,13.1,13.06,15.93a35.42,35.42,0,0,0,10.3,2.28,10.19,10.19,0,0,1,7.23,3.36c.51.57,1.07,1.08,1.61,1.62,2,2,3.62,2,5.66,0l4.35-4.35c1.58-1.59,3.18-3.16,4.75-4.76s1.59-3.35,0-5c-.71-.74-1.43-1.47-2.18-2.17a9.9,9.9,0,0,1-3.09-6.53,57.72,57.72,0,0,0-.88-5.85c-.83-3.89-2.08-7.65-4.79-10.68A22.39,22.39,0,0,0,41.79,21Z"/><path class="cls-1" d="M31.88,50.55a13.57,13.57,0,0,1,0-19.19"/><path class="cls-3" d="M36.81,55.67a1.5,1.5,0,0,0,0-3,1.5,1.5,0,0,0,0,3Z"/><line class="cls-1" x1="41.06" y1="13.47" x2="41.06" y2="1.5"/><line class="cls-1" x1="13.47" y1="41.06" x2="1.5" y2="41.06"/></g></g></svg>