<svg xmlns="http://www.w3.org/2000/svg" viewBox="0 0 51.32 58.51"><defs><style>.cls-1{fill:#e0695a;}.cls-2{fill:none;stroke:#dde2d9;stroke-linecap:round;stroke-linejoin:round;stroke-width:3px;}</style></defs><title>Asset 61</title><g id="Layer_2" data-name="Layer 2"><g id="Layer_1-2" data-name="Layer 1"><path class="cls-1" d="M39.07,20.17a4,4,0,1,1,7.82-1.38l1.6,9.07,1,6c1.23,7-1.93,18.76-1.93,18.76L22.57,57,2.29,33.16a4.17,4.17,0,0,1-.73-1.71,4.08,4.08,0,0,1,6.55-3.91l9.16,7.39-5-28.64a4.08,4.08,0,1,1,8-1.42L22.34,16.7a4,4,0,0,1,7.86-1.11l.43,2.46h0a4,4,0,1,1,7.82-1.38Z"/><path class="cls-2" d="M12.22,6.29a4.08,4.08,0,1,1,8-1.42"/><path class="cls-2" d="M2.29,33.16a4.17,4.17,0,0,1-.73-1.71,4.08,4.08,0,0,1,6.55-3.91"/><polyline class="cls-2" points="8.11 27.54 17.27 34.93 12.22 6.29"/><polyline class="cls-2" points="20.25 4.87 22.34 16.7 23.55 23.58"/><path class="cls-2" d="M31.8,24.66l-1.17-6.61-.43-2.46a4,4,0,0,0-7.86,1.11,2.51,2.51,0,0,0,0,.27"/><path class="cls-2" d="M40.05,25.75l-1-5.58-.62-3.5a4,4,0,1,0-7.82,1.38"/><path class="cls-2" d="M48.49,27.86l-1.6-9.07a4,4,0,1,0-7.82,1.38"/><path class="cls-2" d="M48.49,27.86l1,6c1.23,7-1.93,18.76-1.93,18.76L22.57,57,2.29,33.16"/></g></g></svg>