<svg xmlns="http://www.w3.org/2000/svg" viewBox="0 0 604.6 452.98"><defs><style>.cls-1{fill:#224a56;}</style></defs><title>Asset 29</title><g id="Layer_2" data-name="Layer 2"><g id="Layer_1-2" data-name="Layer 1"><path class="cls-1" d="M274.28,412.78c-3.47-1.33-6.86-3.24-10.45-3.77-1.82-.27-4.46,1.56-5.83,3.19-.55.66.82,3.94,2.14,5,4.06,3.18,3.44,6.17,0,8.89-4,3.21-8.37,6-12.58,8.94l-1.44-1.35c1.14-2.39,2.37-4.74,3.4-7.17,2.85-6.68.14-12.73-6.46-15.44-1.33-.54-2.11-2.47-3.11-3.78-1.74-2.26-3-5.5-5.26-6.66-17.92-9.1-29.7-23.16-35.76-42.24-2-6.45-10-8.74-15.79-5.19-3.37,2.05-7.34,3.1-10.88,4.92a29.57,29.57,0,0,0-7.69,5.12c-2.45,2.51-4.49,3.11-6.2-.07-4.07-7.55-11.68-7.45-18.46-8.56-5.18-.84-10.44,4.85-10.79,10.26-.17,2.66.19,6.67-1.3,7.66-3.55,2.39-8.19,4.87-12.16,4.54-7.06-.58-12.69.22-16.94,6.3a8.92,8.92,0,0,1-3.42,2.48c-6.33,3.12-10,7.17-6.85,14.87,1.22,3-1.09,4-3.69,6.13-6.77,5.57-16.37,4.62-23.43,11.27-5.66-1.52-12.43-3.52-19.29-5.12s-13.24,4.26-20.63,1.87c4.17-8.69-.3-15.61-8.7-16.66-4.35-.55-8.47-2.95-12.73-4.53,2.3-6.43,10.64-12.3,2.8-21.27.84-3.4,2-6.5,6.78-8.61,3.53-1.56,6.41-6.12,8.11-10a137.79,137.79,0,0,0,7-21.32c.55-2.15-1.19-4.87-2.18-8.42,2.15.6,3.7,1.42,5.25,1.39a36.07,36.07,0,0,0,6.87-1.07c1.55-.33,4.26-1.55,4.4-1.27,3.59,6.66,11.25,5.55,16.69,8.57,9.67,5.36,20.36,8.91,30.71,13,1.24.49,3.87.28,4.34-.51,3.87-6.52,12.4-10.53,10.68-20.66l4.46,2.9c.63-6.26,1.36-11.94,1.64-17.64,0-.89-1.9-1.89-3-2.81-1.45-1.27-4-2.35-4.22-3.78-2-13.68-4.08-16.18-17.62-20-.33-.1-.56-.54.53.64l7.52-5.57-2.74-3.12,24.69,12.19v-15.7c2.63,3.81,13.34,10.48,17.56,9.78,1-.18,1.7-2.74,3.3-5.57,3.56-.57,8.23-2.24,11.14-8.73,1.1-2.45,8.14-2.58,12.55-3.06,2.42-.26,5,.93,8.7,1.73-1-3.43-1.57-5.24-1.79-6l8.84-11.16c.78,1.33,2,3.41,3.24,5.48,1.94-3.11,3.88-6.22,6.27-10.07,2.4.25,6.45-2.89,9.4,1.78l5.88-4.32c.48-.71,1-1.42,1.45-2.12l3.61,7.22L207,240l4.37,2.18,1.52-1.08c-1.35-2.33-2.7-4.67-3.35-5.81-1.14-10.68-2.18-20.4-3.37-31.54,11.15,3,12.28-6.3,18-11.38.81,2.22,2.07,3.88,1.77,5.17-1.39,6.1-1.08,12.48-6.78,17.46-9.31,8.11-7.66,18.21,3.58,23.22,3.34,1.48,8,.56,11.94-.07,4.51-.73,7.29-.2,8.5,4.9,1,4.09,3.33,4.39,7.28,2.1a229.35,229.35,0,0,1,22.94-11.2c1.19-.53,4.28.46,4.75,1.53,2.57,5.74,7.62,4.94,11.39,3.46,2.12-.83,2.76-5.43,4-8.11l12.18-2.31c-.77-1.6-1.06-2.79-1.77-3.6-5.92-6.68-5-22.11,2.1-27.86,1.06-.86,4.08-.4,5.47.53s1.95,3.5,3.29,4.94c1,1,2.76,2.07,4,1.89a4.83,4.83,0,0,0,3.16-3,65.66,65.66,0,0,0,2.47-11.75c.54-5.27-3.1-5.06-6.24-4.14.58-2.89,1.12-5.64,2-10.17,3.14-3.22,9.26-3.32,15-2.23,6,1.15,10.43-.66,14.91-4.18,1.86-1.46,4.53-1.84,6.72-2.93a33.72,33.72,0,0,0,4.08-2.82c-1.41-1.17-3-3.47-4.21-3.31-4,.5-6.85.66-8.27-4.18-.34-1.17-5.14-2.57-5.92-1.82-4.31,4.15-11.47,2-15.24,7.6-1.32,2-5.42,2.1-8.27,3-.14,0-.41-.26-.54-.21-2.24.94-4.93,3.15-6.57,2.54s-2.07-4.6-3.87-5.95c-2.46-1.83-5.74-2.56-8.27-3.6.55-4.15,1.55-8.32,1.51-12.48,0-2.95-1.66-5.86-2.17-8.86-.22-1.28.14-3.36,1-4,7.34-5.48,10.77-13.61,15.62-20.9,2.51-3.77,5.28-6.38,3.78-10.88-.53-1.58-2.26-3.66-3.7-3.88-4.84-.77-9.8-.81-13.53-1-2.22,3.91-3.85,6.61-5.3,9.39-.64,1.24-1.53,2.79-1.28,4,1.67,8.07-3.39,14.23-8,18.58-3.12,3-5.55,11.25-13.23,7.46-.68,1.59-2.32,4.21-1.89,4.62,4.86,4.57,1.76,9.25.21,13.58-2.09,5.83-.88,8.94,4.95,11.59,2.36,1.07,4.28,3.1,7.15,5.26-6.34,4.81-8,14.6-18.49,14.43,3.22,11.08-1.23,20.4-4.81,29.91-8.5-2.26-12.13,0-13.07,8.12h-6.37c.32-4.36-5.07-8.11-.46-12.69.33-.33-.21-2-.77-2.69-3.8-4.77-4.62-10-3.22-15.86.27-1.09.31-2.81-.33-3.44-3.86-3.81-1.83-7.84-1.72-12.22.1-4-2.83-9.16-6.07-11.73-2.88-2.28-4,1.75-3.76,4.55s.77,5.68,1.41,10.16c-8.4-6.34-10.05,2.2-14.14,4.24-5.89,2.94-11.94,2.73-15-3.33-.63-1.26.13-3.25.32-4.89.26-2.29.6-4.57.83-6.86,0-.31-.64-.93-.6-1,8.66-7.84-2.41-16.64,1.22-24.7.79-1.76,1.21-4.2,2.6-5.08a76.5,76.5,0,0,1,13.09-6.76c9.84-3.79,19.44-7.71,24.33-17.93,6.78,3.69,6.85,3.55,9.13-3.72,1.75-5.59,3.35-11.34,6.06-16.47a21.42,21.42,0,0,1,8.27-8.11c3.1-1.74,5.18-3.4,4.39-6.88-1-4.3,1.79-5.46,4.63-7.31,2.62-1.72,4.64-4.37,6.83-6.7.65-.7.78-2,1.5-2.52,7.91-6.24,15.89-12.39,23.85-18.57a25.24,25.24,0,0,0,4.19-3.37c2.46-3,4.39-6.3,9.18-3.32,1,.62,3.28-.87,3.34-.89,3.56,1.47,5.92,2.69,8.43,3.42,3.29,1,5.8,1.8,5.8,6.28,0,5.9,3.9,7.87,9.46,6,1.75-.58,4-.09,5.92.44,2.49.71,5.12,3.22,7.19,2.75,11.67-2.62,20.87,4.92,31.34,7.05,6.35,1.3,10.25,7.18,9,11.82-1.46,5.6-9.18,9.15-14.61,9.44-9.22.5-17.22-2.34-25.36-5.69-1.07-.44-3.59,0-3.77.51-.44,1.32-.46,3.63.38,4.38,4.28,3.81,8.89,7.25,13.72,11.08,2,4.91,2.94,12.28,7.12,16.08,4,3.6,11.29,3.55,17.22,4.71.39.08,2.51-3.75,2-4.87-1-2.09-3.21-3.74-5.22-5.17a34.66,34.66,0,0,0-5.73-2.72c2.28-.2,4.72-1,6.8-.49,6.62,1.75,13,4.24,19.68,5.92,1.5.39,4.31-.88,5.08-2.22.62-1.06-.88-4.88-1.56-4.92-4.09-.18-5.72-2.83-7.77-5.7-1.11-1.56-3.75-2-5.79-3,1.51-10.7,4.45-14.8,10-14.58,1.15,2.16,2.31,5.74,3.16,5.67,3.05-.26,6-1.75,10.07-3.14-6.44-4.75-2.3-16.37-12.14-14.17l-7.6-18.1,16.12,2a20,20,0,0,1-.91,3.34c-1.63,2.6-5.19,5-2,8.4s6.9,6.19,11.8,4.24c3.91-1.55,4.78-5,5.56-9.18,1.05-5.75-1.42-13.95,8.5-15.68,1.89-.33,3-5.24,4.19-7.58,4.16,5.76,4.15,5.75,9.59-1.2,2.61-3.33,5.25-6.62,7.23-9.1,2.43.18,6.13,1.63,7.86.37,3.68-2.67,2.58-8.3-.78-11.23-1.58-1.37-2.23-3.8-3.75-6.55L482.26,0c-.13.57-.26,1.14-.38,1.71,3,1,6,1.88,8.93,3a25,25,0,0,1,4,2.34c1.92,1.18,3.81,2.4,6.39,2.69.86,1.54,2.19,3,2.46,4.62a25.58,25.58,0,0,1,.07,8.05c-.32,2.06-2.14,3.89-2.38,5.94-.7,5.89-.73,11.86-1.47,17.75a10,10,0,0,1-2.85,5.52c-3.09,3-2.25,5.1,1.12,6.38,3.81,1.46,4.47,4.13,5.41,7.78,1.05,4.06,3.4,8.77,6.68,11,5.44,3.78,6.29,9.52,9.13,14.48,5.06,8.87,7.6,19.12,15.91,26.34a14.68,14.68,0,0,1,4.87,14.68c-1.27,5.82-.72,12.22,0,18.24.69,5.64,4.56,7.19,9.82,4.87a28.24,28.24,0,0,1,3.24-1.65c1.59-.44,3.52-1.11,4.84-.56.81.33,1.42,3.09.9,4.18a6.24,6.24,0,0,1-3.94,3.16c-5,.79-6.55,3.41-5.54,8.11,1.11,5.1,4.44,6.43,8.51,4,3.5-2.1,6.3-5.36,10-8.61a24.15,24.15,0,0,1,2.36,4.94c1.33,4.74,1.93,9.71,3.46,14.38,2.3,7.06,6,8.11,12.71,3.88,4.82,6,11.1,3.51,17.54,2.41.2,1.25.71,2.43.49,3.46-1.1,5.26-12.15,10.95-17.26,9.11-1.07-.38-2.82-.75-3.46-.2-4.59,3.93-9.69,7.57-13.17,12.37-2.49,3.43-3.7,6-8.18,3.31-1.06-.64-3.59-.9-3.9-.4-2.94,4.84-6.46,2.06-9.81,1-5.2-1.68-10-1.5-14,2.78-.67.72-1.48,1.65-2.34,1.79-10.48,1.75-11.64,10.84-14.24,18.49-.77,2.25.63,5.23.87,6.8-3.79.94-8.46.75-9.53,2.62A9.66,9.66,0,0,0,512.33,264c-.16,3.67-1.12,6.89-.18,9.39s3.65,4.18,5.84,5.92a4.1,4.1,0,0,0,3.35.22c6.9-2.43,10.32-.11,11.87,7.46.37,1.78,2.77,3.14,4.93,5.42-2.36,1.75-5.13,3.27-7.17,5.47a14.75,14.75,0,0,0-3.2,6.48c-.79,3.36-.77,6.91-1.33,10.33-.52,3.18-.37,6.63,3.66,5.69,5.89-1.38,7.45,2.8,8.19,6.2,1.8,8.24,6.83,12.77,14.14,16,4,1.76,7.24,5,11.07,7.12a56.85,56.85,0,0,0,7.86,3.24c-1,8.69-1.92,17.37-2.94,26.63a8.1,8.1,0,0,1-2.18-2.05c-.55-1-.19-2.51-.75-3.51-1.28-2.34-3.12-6.51-4.29-6.37-2.83.36-5.75,2.37-8,4.44s-3.24,5-5.1,7.38c-3.3,4.17-8,4.49-12.29,1.48-5.1-3.56-10.34-6.8-17.13-5.8-.82.12-2.7-2.11-2.91-3.43a10.73,10.73,0,0,0-15.3-8.32c-1.42.65-2.94,1.08-4.56,1.66.46-9-8.8-18.12-17.65-18.15a19,19,0,0,1-7.57-1.88c-6.91-3.14-13.67-6.61-20.49-9.94-1.77-.86-3.55-1.69-6.2-2.94,2.9-4,6.14-7.25,7.57-11.11.77-2.06-1.59-5.27-2.69-8.43.3-.09,3-.15,4.08-1.49,1.71-2.06,2.37-5,3.48-7.58-2.22-.23-4.55-1-6.65-.6-10.24,2-16.83,10.18-25.33,15.16a34.54,34.54,0,0,1-8.3,3.54c-6,1.61-12,2.82-17.23,4-1.6-3.71-3.05-7-4.49-10.37-3.32,2.33-6.83,4.46-9.92,7.08-2.43,2-4.35,4.68-7.33,8l1.5,3.09c-9.11,2.48-1.26,9.6-3.66,13.94-.48.86-1.1,1.65-1.95,2.91l-5.19-3c0,3.24-.07,5.4,0,7.55.17,4.09,2.56,8.39-3.48,11.15-2,.9-1.86,5.84-3.2,8.69-1.74,3.69-.76,5.28,2.61,7.72,4,2.92,6.75,7.63,9.53,11l-17.74,10.12c-6.93-6.31-16-6.71-25.66-4.52-4.26,1-3.74,3-1.34,5.41a54.22,54.22,0,0,0,4.15,3.5c-7.16,4.73-7.71,4.53-11.91-1.75-.91-1.36-3-1.94-4.53-2.88-.65,1.78-1.83,3.56-1.81,5.33s1.14,3.4,2.1,4.9c1.56,2.48,3.81,4.37,1.59,8-.65,1.06,1.75,4.48,3.36,6.29,2.05,2.32,4.7,4.1,7.59,6.53l-6.47,4.59,3.55,4.71-5.74,2.26c.82,2.21,1.55,4.16,2.68,7.18l-6.72-4.81-3.39,3.24-2.56-6-3,.95c-.84-3.59-1.62-6.86-2.6-11,3.28.5,6.86,1.24,10.47,1.51,1.64.12,3.34-.68,5-1.06-.48-1.85-.39-4.64-1.56-5.35a28.05,28.05,0,0,0-9.8-3.7c-3.05-.48-6.31.38-10.09.7,3.74-3.76,4.06-5.49-1-8a31.18,31.18,0,0,1-11.79-11.33c-1.44-2.34.58-7,1.38-10.48,1.48-6.46-2.47-14.88-8.8-15.62-7-.81-10-6.44-15-9.54-2.64-1.63-5.17-3.81-8.06-4.57-4.11-1.08-6.14-3.16-6.88-7.27a59.11,59.11,0,0,0-3.14-11.18c-1.63-4.14-4.53-4.16-10.18-.85.71-1.56,1.43-3.12,2.14-4.69,1.8-4,.2-6.4-4.07-5.83a73.54,73.54,0,0,0-9.5,2,8,8,0,0,0-3.6,2.12c-5.08,5.44-1.17,20.35,5.67,23.2,1.94.81,3.65,3.18,4.59,5.23,1.65,3.61,2,7.9,4,11.23,3.42,5.69,8.86,8.14,16.39,6.34-2.68,7.19,2,8.86,6.86,10.7,4.52,1.71,9.15,3.45,13.16,6.06,2.21,1.44,3.24,4.7,4.8,7.14Z"/><path class="cls-1" d="M211.12,431.59c10.66.74,19.47,1.15,28.21,2.08,2.43.26,4.59,1.94,2.15,5.18-.88,1.16-.81,3-1.25,4.53-1.16,4-4.94,5.45-8.52,3.37-5.67-3.29-11.44-6.41-17-9.84C213.51,436.19,213,434.43,211.12,431.59Z"/><path class="cls-1" d="M121.42,210.21c3.3-5.93,3.3-5.93-6.58-7.45-.07-.38-.34-.92-.18-1.11,6.56-7.71,6.45-7.65,1-18.07-.84-1.61-.67-4.21,0-6,1.1-3.11,2.93-6,4.75-9.52h4.31c2.64-7.19,3.47-7.39,12.36-3.18-3.33,4-11.79,4-10.21,12.5h15.75c-4.11,8.29-9.74,12.54-19.4,14.64,2.6,1.93,4,3.68,5.8,4.17,6.26,1.73,8.6,5.44,7.16,11.77-.78,3.45-1.18,6.76,3.11,8.74,1.31.6,1.88,2.83,3,4.73-4.09,1.85-6.75,3.85-3.41,8.2.69.89-.16,3.29-.78,4.79-1.54,3.73-.39,5.42,3.55,5.4,1.21,0,2.64-.51,3.59,0,1.47.75,3.16,1.94,3.71,3.35.33.84-1.07,2.84-2.18,3.67-3,2.2-6.22,4.06-10.28,6.65l6.27,4.13-.11,1.13c-6.1,0-12.28.6-18.29-.14-9.12-1.13-18.11-3.33-27.21-4.75-1.78-.28-3.8.87-5.69,1.45-2.15.65-4.27,1.4-7.18,2.36,3-6.62,9-9.54,15.85-8.8,3.41.37,6.93.93,10.25.4,2.48-.4,4.7-2.41,8.46-4.48l-23.52-7,.11-1.38a20.83,20.83,0,0,1,3.56-.59c2.22,0,4.71.93,6.59.2,2.34-.9,4.18-3.1,6.23-4.74-1.45-1.67-2.89-3.35-5.09-5.9,1.42-.24,4-1.5,5.12-.72,6.1,4,9.21.11,11.19-4.39,1.16-2.64.21-6.21.21-9.36Z"/><path class="cls-1" d="M64.87,54c8.46-6.66,8.46-6.66,4.44-16.11,2.52.26,5.14-.26,6.1.77,4.2,4.49,6.88,2.62,9.54-2.25a54.28,54.28,0,0,1,4.52,4.08,13.06,13.06,0,0,0,11.28,4.7,25.82,25.82,0,0,1,8.92,1.28c4.42,1.41,7.93,2.53,6.18,9.57-1.23,5-.5,10.23-6.28,11.93-4.43,1.3-9.28,1.33-14,1.63-4,.26-8.07.06-12.11.15-4.93.12-8.77-.42-10.68-6.43C71.68,59.77,67.62,57.12,64.87,54Z"/><path class="cls-1" d="M71.22,213V195.58c2.46,2.34,3.42,3.73,4.74,4.38,1.63.81,3.92,1.83,5.28,1.24a5.7,5.7,0,0,0,2.6-4.65c-.47-5.34,2.62-5.78,6.37-5.06a27.67,27.67,0,0,1,7.35,2.75c4.53,2.36,5,8.26,2,12.32-3.24,4.43-6.32,9.25-8.09,14.38s-4,7.4-9.53,6.71c-6.19-.78-12.47-.87-18.67-1.64a7,7,0,0,1-4.79-2.8c-.51-.92.76-3.77,2-4.56A117.86,117.86,0,0,1,71.22,213Z"/><path class="cls-1" d="M185.07,414.51l-9.39,1.56c-2.11-1.71-.74-4.46,1-7.36,1.44-2.34,3.63-4.72-.79-6.82-1.11-.53-1.72-3.63-1.34-5.26.25-1,2.69-1.72,4.26-2.22,1.31-.42,2.81-.22,4.18-.52,4.23-.9,7.36,2,6.27,6.15C188,405,186.43,409.91,185.07,414.51Z"/><path class="cls-1" d="M191.31,372.47l-5.4,13.72c-5.56-5.6-5.29-6.57,3.25-14.56Z"/><path class="cls-1" d="M436.62,327.48c2.2,7.27,1.57,7.79-4.56,8.88-2.4.42-4.42,3.07-6.6,4.73-2.4,1.83-4.63,4.89-7.19,5.18-2.18.24-5.08-2.33-7-4.3s-3.25-4.94-4.82-7.46l-2.08.79c2.9-2,5.71-4.14,8.76-5.86a4.15,4.15,0,0,1,3.66.45c8.05,6.07,9.49,6.09,17-.25C434.55,329,435.37,328.43,436.62,327.48Z"/><path class="cls-1" d="M233.33,215.64c-.54,3-1.13,6.24-1.9,10.45-2.56-.93-5-1.26-6.68-2.57-2.25-1.76-1.95-3.6,1.17-4.62A78.51,78.51,0,0,0,233.33,215.64Z"/><path class="cls-1" d="M302.28,185.79l4.44-7.61,1.75-.3c.56,2.26,2.24,5.13,1.42,6.62-1,1.77-4.11,2.35-6.31,3.44Z"/></g></g></svg>