<svg xmlns="http://www.w3.org/2000/svg" viewBox="0 0 554.87 140.55"><defs><style>.cls-1{fill:#5c968e;}.cls-2{fill:#d0d3ba;}.cls-3{fill:none;stroke:#d0d3ba;stroke-linejoin:round;stroke-width:3px;}</style></defs><title>Asset 30</title><g id="Layer_2" data-name="Layer 2"><g id="Layer_1-2" data-name="Layer 1"><path class="cls-1" d="M553.13,139.06c0-32.69-11-53.57-25.81-69.26l0-7a13.68,13.68,0,0,0-4.77-10.5h-159c-.39-15.74-10.23-27.34-21.46-34.24V12s.72-5.61-4.77-10.5H217.08C211.59,6.4,212.31,12,212.31,12v6.08c-11.23,6.9-21.07,18.5-21.46,34.24h-159A13.68,13.68,0,0,0,27,62.83l0,7C12.25,85.49,1.26,106.37,1.26,139.06H264v.11l.07-.11H553.13Z"/><path class="cls-2" d="M191.07,62.82V53.28c0-.32,0-.65,0-1H363.79c0,.31,0,.64,0,1V69.8l.09.09-.09.09H191.07l-.09-.09.09-.09Z"/><path class="cls-3" d="M277.44,1.5h60.12a13.17,13.17,0,0,1,4.79,10,4.57,4.57,0,0,1,0,.48v6.08l.11.07c1.32.81,2.62,1.7,3.89,2.64,9.47,7.06,17.12,17.7,17.46,31.53,0,.31,0,.64,0,1V69.8l.09.09c1.84,1.92,3.59,3.89,5.25,5.93,13,15.84,20.43,35.48,20.43,63.23H277.44"/><polyline class="cls-3" points="277.45 11.52 288.88 11.52 300.33 11.52 311.79 11.52 323.24 11.52 334.69 11.52 342.33 11.52"/><polyline class="cls-3" points="277.8 18.32 288.88 18.32 300.33 18.32 311.79 18.32 323.24 18.32 334.69 18.32 342.33 18.32"/><polyline class="cls-3" points="277.45 69.98 300.33 69.98 323.24 69.98 346.14 69.98 363.8 69.98"/><path class="cls-3" d="M277.44,52.32H522.82a13.67,13.67,0,0,1,4.77,10.5l0,7c.67.71,1.34,1.43,2,2.17,13.81,15.44,23.82,35.87,23.82,67.08H389.57"/><polyline class="cls-3" points="363.8 69.8 369.05 69.8 380.5 69.8 391.95 69.8 403.41 69.8 414.86 69.8 426.31 69.8 437.76 69.8 449.22 69.8 460.67 69.8 472.12 69.8 483.57 69.8 495.02 69.8 506.48 69.8 517.93 69.8 527.56 69.8"/><polyline class="cls-3" points="527.59 62.82 517.93 62.82 506.48 62.82 495.02 62.82 483.57 62.82 472.12 62.82 460.67 62.82 449.22 62.82 437.76 62.82 426.31 62.82 414.86 62.82 403.41 62.82 391.95 62.82 380.5 62.82 369.05 62.82 363.8 62.82 363.56 62.82"/><polyline class="cls-3" points="277.43 69.62 277.43 69.98 277.43 82.63 277.43 82.9"/><polyline class="cls-3" points="300.33 69.62 300.33 69.98 300.33 139.05 300.33 139.41"/><polyline class="cls-3" points="323.24 69.62 323.24 69.98 323.24 139.05 323.24 139.41"/><polyline class="cls-3" points="346.14 69.62 346.14 69.98 346.14 139.05 346.14 139.41"/><line class="cls-3" x1="277.43" y1="18.32" x2="277.43" y2="52.32"/><line class="cls-3" x1="300.34" y1="18.32" x2="300.34" y2="52.32"/><line class="cls-3" x1="323.24" y1="18.32" x2="323.24" y2="52.32"/><polyline class="cls-3" points="277.43 11.29 277.43 11.52 277.43 18.08 277.43 18.32"/><polyline class="cls-3" points="288.88 11.29 288.88 11.52 288.88 18.32"/><polyline class="cls-3" points="300.33 11.29 300.33 11.52 300.33 18.08 300.33 18.32"/><polyline class="cls-3" points="311.79 11.29 311.79 11.52 311.79 18.32"/><polyline class="cls-3" points="323.24 11.29 323.24 11.52 323.24 18.08 323.24 18.32"/><polyline class="cls-3" points="334.69 11.29 334.69 11.52 334.69 18.32"/><line class="cls-3" x1="346.14" y1="21.04" x2="346.14" y2="52.32"/><polyline class="cls-3" points="369.05 75.89 369.05 139.05 369.05 139.41"/><polyline class="cls-3" points="391.95 69.62 391.95 69.8 391.95 139.05 391.95 139.41"/><polyline class="cls-3" points="414.86 69.62 414.86 69.8 414.86 139.05 414.86 139.41"/><polyline class="cls-3" points="437.76 69.62 437.76 69.8 437.76 139.05 437.76 139.41"/><polyline class="cls-3" points="460.67 69.62 460.67 69.8 460.67 139.05 460.67 139.41"/><polyline class="cls-3" points="483.57 69.62 483.57 69.8 483.57 139.05 483.57 139.41"/><polyline class="cls-3" points="506.48 69.62 506.48 69.8 506.48 139.05 506.48 139.41"/><polyline class="cls-3" points="529.38 72.11 529.38 139.05 529.38 139.41"/><line class="cls-3" x1="369.05" y1="62.82" x2="369.05" y2="69.5"/><line class="cls-3" x1="380.5" y1="62.82" x2="380.5" y2="69.5"/><line class="cls-3" x1="391.95" y1="62.82" x2="391.95" y2="69.5"/><line class="cls-3" x1="403.41" y1="62.82" x2="403.41" y2="69.5"/><line class="cls-3" x1="414.86" y1="62.82" x2="414.86" y2="69.5"/><line class="cls-3" x1="426.31" y1="62.82" x2="426.31" y2="69.5"/><line class="cls-3" x1="437.76" y1="62.82" x2="437.76" y2="69.5"/><line class="cls-3" x1="449.22" y1="62.82" x2="449.22" y2="69.5"/><line class="cls-3" x1="460.67" y1="62.82" x2="460.67" y2="69.5"/><line class="cls-3" x1="472.12" y1="62.82" x2="472.12" y2="69.5"/><line class="cls-3" x1="483.57" y1="62.82" x2="483.57" y2="69.5"/><line class="cls-3" x1="495.03" y1="62.82" x2="495.03" y2="69.5"/><line class="cls-3" x1="506.48" y1="62.82" x2="506.48" y2="69.5"/><line class="cls-3" x1="517.93" y1="62.82" x2="517.93" y2="69.5"/><path class="cls-3" d="M277.44,1.5H217.31a13.23,13.23,0,0,0-4.8,10c0,.31,0,.48,0,.48v6.08l-.11.07c-1.32.81-2.63,1.7-3.89,2.64-9.47,7.06-17.12,17.7-17.46,31.53,0,.31,0,.64,0,1V69.8l-.09.09c-1.84,1.92-3.59,3.89-5.25,5.93-13,15.84-20.43,35.48-20.43,63.23H277.44"/><polyline class="cls-3" points="277.42 11.52 265.99 11.52 254.53 11.52 243.08 11.52 231.63 11.52 220.18 11.52 212.54 11.52"/><polyline class="cls-3" points="277.8 18.32 277.43 18.32 277.07 18.32 265.99 18.32 254.53 18.32 243.08 18.32 231.63 18.32 220.18 18.32 212.54 18.32"/><polyline class="cls-3" points="277.45 69.98 277.43 69.98 277.42 69.98 254.53 69.98 231.63 69.98 208.72 69.98 191.06 69.98"/><path class="cls-3" d="M277.44,52.32H32.05a13.67,13.67,0,0,0-4.78,10.5l0,7c-.67.71-1.34,1.43-2,2.17C11.51,87.41,1.5,107.84,1.5,139.05H165.3"/><polyline class="cls-3" points="191.06 69.8 185.82 69.8 174.37 69.8 162.91 69.8 151.46 69.8 140.01 69.8 128.56 69.8 117.1 69.8 105.65 69.8 94.2 69.8 82.75 69.8 71.3 69.8 59.84 69.8 48.39 69.8 36.94 69.8 27.31 69.8"/><polyline class="cls-3" points="27.27 62.82 36.94 62.82 48.39 62.82 59.84 62.82 71.3 62.82 82.75 62.82 94.2 62.82 105.65 62.82 117.1 62.82 128.56 62.82 140.01 62.82 151.46 62.82 162.91 62.82 174.37 62.82 185.82 62.82 191.06 62.82 191.31 62.82"/><polyline class="cls-3" points="254.53 69.62 254.53 69.98 254.53 139.05 254.53 139.41"/><polyline class="cls-3" points="231.63 69.62 231.63 69.98 231.63 139.05 231.63 139.41"/><polyline class="cls-3" points="208.72 69.62 208.72 69.98 208.72 139.05 208.72 139.41"/><line class="cls-3" x1="254.53" y1="18.32" x2="254.53" y2="52.32"/><line class="cls-3" x1="231.63" y1="18.32" x2="231.63" y2="52.32"/><polyline class="cls-3" points="265.99 11.29 265.99 11.52 265.99 18.32"/><polyline class="cls-3" points="254.53 11.29 254.53 11.52 254.53 18.08 254.53 18.32"/><polyline class="cls-3" points="243.08 11.29 243.08 11.52 243.08 18.32"/><polyline class="cls-3" points="231.63 11.29 231.63 11.52 231.63 18.08 231.63 18.32"/><polyline class="cls-3" points="220.18 11.29 220.18 11.52 220.18 18.32"/><line class="cls-3" x1="208.72" y1="21.04" x2="208.72" y2="52.32"/><polyline class="cls-3" points="185.82 75.89 185.82 139.05 185.82 139.41"/><polyline class="cls-3" points="162.91 69.62 162.91 69.8 162.91 139.05 162.91 139.41"/><polyline class="cls-3" points="140.01 69.62 140.01 69.8 140.01 139.05 140.01 139.41"/><polyline class="cls-3" points="117.1 69.62 117.1 69.8 117.1 139.05 117.1 139.41"/><polyline class="cls-3" points="94.2 69.62 94.2 69.8 94.2 139.05 94.2 139.41"/><polyline class="cls-3" points="71.3 69.62 71.3 69.8 71.3 139.05 71.3 139.41"/><polyline class="cls-3" points="48.39 69.62 48.39 69.8 48.39 139.05 48.39 139.41"/><polyline class="cls-3" points="25.49 72.11 25.49 139.05 25.49 139.41"/><line class="cls-3" x1="185.82" y1="62.82" x2="185.82" y2="69.5"/><line class="cls-3" x1="174.37" y1="62.82" x2="174.37" y2="69.5"/><line class="cls-3" x1="162.91" y1="62.82" x2="162.91" y2="69.5"/><line class="cls-3" x1="151.46" y1="62.82" x2="151.46" y2="69.5"/><line class="cls-3" x1="140.01" y1="62.82" x2="140.01" y2="69.5"/><line class="cls-3" x1="128.56" y1="62.82" x2="128.56" y2="69.5"/><line class="cls-3" x1="117.1" y1="62.82" x2="117.1" y2="69.5"/><line class="cls-3" x1="105.65" y1="62.82" x2="105.65" y2="69.5"/><line class="cls-3" x1="94.2" y1="62.82" x2="94.2" y2="69.5"/><line class="cls-3" x1="82.75" y1="62.82" x2="82.75" y2="69.5"/><line class="cls-3" x1="71.29" y1="62.82" x2="71.29" y2="69.5"/><line class="cls-3" x1="59.84" y1="62.82" x2="59.84" y2="69.5"/><line class="cls-3" x1="48.39" y1="62.82" x2="48.39" y2="69.5"/><line class="cls-3" x1="36.94" y1="62.82" x2="36.94" y2="69.5"/><polyline class="cls-3" points="290.44 95.75 290.44 109.34 290.44 124.38 290.44 139.05 290.44 139.17"/><path class="cls-3" d="M290.44,95.75a13.74,13.74,0,0,0-.08-1.44,13.12,13.12,0,0,0-12.93-11.68h-.12a13.11,13.11,0,0,0-13,11.68,13.74,13.74,0,0,0-.08,1.44v43.42"/><polyline class="cls-3" points="264.07 94.31 264.27 94.31 290.36 94.31 290.44 94.31"/><polyline class="cls-3" points="264.07 109.34 264.19 109.34 290.44 109.34"/><polyline class="cls-3" points="264.07 124.38 264.19 124.38 290.44 124.38"/></g></g></svg>