<svg xmlns="http://www.w3.org/2000/svg" viewBox="0 0 683.42 637.15"><defs><style>.cls-1{fill:#224a56;}</style></defs><title>Asset 35</title><g id="Layer_2" data-name="Layer 2"><g id="Layer_1-2" data-name="Layer 1"><path class="cls-1" d="M0,309.93c3.48.21,7,.22,10.42.7,3.61.5,7.15,1.45,10.73,2.2l.77-1.34a72.69,72.69,0,0,0-4.33-6.32C9,295,5.18,283.06,4.51,270.09,4,260.08,4.06,250,4.37,240c.19-5.79,3.54-9.13,9.64-10.08,2.79-.43,5.57-2.29,7.9-4.09,4.82-3.69,9.25-7.88,14-11.69A67.55,67.55,0,0,1,63.15,201c11.83-2.88,23-8.7,34.26-13.62,8.51-3.7,17.07-7.49,25-12.22,4.67-2.77,8.59-7.12,12.13-11.35a121.26,121.26,0,0,0,10.5-15.41c.82-1.37.6-3.93-.09-5.53-2-4.55-4.67-8.65,0-13.43,1.45-1.48,1-4.7,1.73-7,1.77-5.84,4.9-6.86,9.6-3,4,3.29,7.82,6.86,11.72,10.3l1.64-.83c-.76-4.69-1.75-9.37-2.19-14.09-.23-2.44.54-5,.85-7.46,2.54.4,5.17.49,7.59,1.26,3.32,1,6.47,2.61,9.7,3.95l1.24-1.12c-1.71-4.46-3.26-9-5.18-13.37-1.77-4-1.32-7.07,2.51-9.78Q206,72.77,227.61,57c3.33-2.41,5.79-.77,8,1.43,4.32,4.28,8.43,8.76,12.66,13.12,2.14,2.2,4.27,3,7.82,2.87,4.58-.12,9.27,2.4,13.85,4,3.58,1.21,7.12,3.18,10.39-1.57-2-1.78-4.41-3.21-5.73-5.33s-3-5.86-2-7.3c7.38-11.43,15.2-22.6,23.23-33.6,3.43-4.7,8.68-5.59,14.35-4.88a94.12,94.12,0,0,0,14.69,1c1.84-.06,5-2.09,5.07-3.4.15-1.94-1.42-4.67-3.11-5.93-3.49-2.6-7.53-4.45-11.35-6.61l.48-2.36c2.18-.24,4.59-1.2,6.51-.6,18,5.7,37.34,6.44,54.53,15,3.35,1.66,6.3,1.67,9.28-1.31a8.24,8.24,0,0,1,6.11-2.05,117.94,117.94,0,0,1,19.39,4.12c1.71.54,3.87,5,3.2,6.59a50.74,50.74,0,0,1-8.09,12.44c-1.88,2.21-5.1,3.23-7.5,5.05-1.12.85-2.73,2.76-2.43,3.49,3,7.19-2.59,11.26-5.58,16.26a25.13,25.13,0,0,1-1.62,2.35c-2.57,3.37-2.08,5.45,1.62,8.22,12,9,23.58,18.52,35.25,27.93,12.15,9.8,24.6,19.1,39.77,23.84,9.18,2.87,15.47,1,19.05-8.09a148.9,148.9,0,0,0,8.85-32.72c3.22-22.5,4.14-45.42,13.05-66.75C510.5,14.55,514.71,7.38,518.45,0h2.28c6.38,16.81,13.08,33.51,19,50.49,1.69,4.85,1.23,10.5,1.4,15.8.16,4.65,1.71,7.3,6.87,6.42,4.61-.78,7.93,1.36,11,4.62,6.37,6.85,10,14.41,8.94,24.15A47.57,47.57,0,0,0,572,126.74c3.81,8.57,3.77,18.81,5.69,28.26a80.49,80.49,0,0,0,3.81,13c1.21,3.1,3.51,4.11,7.34,3.34a13.16,13.16,0,0,1,9.2,2,144,144,0,0,1,16.47,14c2,1.95,3.3,5,4.12,7.78.59,2-1,4.85-.12,6.64,5.39,11.34,11.18,22.5,16.84,33.72,6.34-3.17,10.71-1.32,13,5.31a2.22,2.22,0,0,1,.14.55c.15,13.55,8.69,22.86,17.08,31.74,14.64,15.51,19.84,33.22,17.08,54.28-2.33,17.81-1.75,36-7,53.47A214.07,214.07,0,0,1,653.62,430a22.36,22.36,0,0,1-5.26,5.92c-7.5,5.88-12,13.57-14.28,22.67-2.34,9.28-6.81,17-14.46,23.15-9.23,7.47-11.34,18.52-12.25,29.65-1.14,13.85-1,13.74-14.66,12.11-2.64-.31-5.45.7-8.18,1.15-1.29.21-2.67,1-3.83.73-10.21-2.37-16.79,3.22-23.15,9.93-3,3.14-6.64,5.63-10,8.34-3.87,3.06-8.11,2.67-10.35-1.31-6.45-11.48-16.36-12.89-28.32-12.77-13.58.14-27.23-1.61-40.73-3.45-3.3-.45-6.54-4.08-9-6.92-3.92-4.43-6.2-10.36-13.66-10.74-1.6-.09-4-4.07-4.28-6.47-.81-6.94-.71-14-1-21-.13-3.36-.29-6.72-.43-9.82-.95-.36-1.37-.68-1.62-.59-9.21,3.57-10.27,3-13.14-6.91a60.37,60.37,0,0,0-2.45-8.15c-1-2.17-2.38-5.31-4.16-5.76-6.55-1.66-5.07-6.07-4.24-10.26,1.35-6.73,3-13.4,4.49-20.1l-1.4-.62-33.5,33c-2.28-4.56-4.29-7.72-5.5-11.16-4.43-12.62-14-21.61-22.57-31-3.16-3.47-9.36-4.29-14.28-6-5.68-1.93-11.94-2.62-17.13-5.4-7.1-3.81-14.06-4.74-21.87-3.75-18.29,2.33-36.25,5.54-53.42,12.81-6.29,2.66-13.7,2.54-20.45,4.27-4.27,1.09-9,2.43-12.22,5.14-6.09,5.06-11.41,11.1-16.82,16.94-7.06,7.6-14.84,11.58-26,11-10.81-.52-21.75,3.08-32.67,3.35-9.91.25-15.7,5.26-20.56,12.75-1.44,2.23-3.18,4.26-4.76,6.39-4.32,5.86-9,8.47-17,6-7.26-2.23-15.36-1.75-23.1-2.43-8-.7-15.22-2.94-20.68-9.32-3.24-3.78-3-6.87,1.53-9.11,4.9-2.44,7.46-5.44,4.76-11.24-.87-1.88-.67-4.59-.15-6.72,3.09-12.73-1.51-23.6-8.31-33.73-4.3-6.41-7.55-12.81-8.61-20.69-.66-5-3.4-10-6.21-14.32-5.63-8.68-12.86-16.14-15.32-26.93-1-4.41-6.09-8-9.51-11.73-4.17-4.6-8.53-9-12.81-13.51ZM415.81,446.11c5.77,1.31,8,5.75,9.43,10.88.91,3.29,1.91,6.55,2.91,9.81,1.13,3.65,3,4.86,6.75,2.68,4.58-2.64,6.61-1.54,7.14,3.67.39,4,.11,8,.27,11.94.22,5.68.37,11.37,1,17,.18,1.6,1.83,4.34,2.82,4.35,8.2.1,10.75,6.77,14.89,11.78,1.94,2.36,4.63,5.36,7.26,5.67,13.91,1.67,27.94,3.68,41.89,3.43,12.2-.22,21.9,1.84,28.22,13.18,1.87,3.35,5.12,3.71,8.2,1.07,4.76-4.06,9.34-8.32,14.2-12.25,2.9-2.35,6-5.62,9.33-6.07A181.53,181.53,0,0,1,596.89,522c7.48.12,7.62.48,8-7,.08-1.52.07-3,.26-4.55,1.41-11.27,3.53-22.57,12.8-30.14,7.66-6.25,12-13.92,14.4-23.16,2.33-9.08,6.84-16.77,14.32-22.67A20.2,20.2,0,0,0,652.2,428c6.12-12.18,12.62-24.23,17.71-36.84,10.59-26.26,10-54.26,11-81.88.33-8.89-3-17.08-8.83-24.11-5.06-6.16-9.69-12.69-15-18.67-5.55-6.33-9.23-13.2-10.09-21.73-.27-2.71-2.34-5.39-4.06-7.74-.55-.75-3.28-1.07-3.84-.48-3.68,3.88-5.5.48-7-1.87-1.83-2.84-2.9-6.15-4.41-9.2-3.57-7.22-7.24-14.4-10.78-21.64-.56-1.14-1.18-2.68-.85-3.75,2-6.48-1.61-10.52-5.92-14.21-4.61-4-9.22-7.94-14.19-11.41a8.65,8.65,0,0,0-6.7-1.08c-5.22,1.67-8.28-.6-9.94-4.88a87.53,87.53,0,0,1-3.91-14.18c-1.78-8.91-1.45-18.74-5.25-26.62a47,47,0,0,1-4.49-26.35A25.08,25.08,0,0,0,557.12,79a16.43,16.43,0,0,0-9.33-3.88c-6.52-.41-9-1.67-8.72-8.28.37-10.2-2.43-19.35-6.71-28.41-2.91-6.14-4.86-12.74-7.14-19.17-2-5.49-3.77-11-6.17-18.12-2.52,5-4.59,8.57-6.17,12.35-8.7,20.83-13.39,42.54-15,65.09-1.1,15.12-3.1,30.25-10.25,44-5,9.64-11.83,12.38-22.14,9.12-12.87-4.06-24-11.31-34.45-19.55-14.33-11.24-28.66-22.48-42.75-34-1.48-1.22-2.09-4.65-1.65-6.75.52-2.43,2.62-4.53,4.06-6.75,2.6-4,6.58-7.47,4.09-13.31-.48-1.13,1.41-3.84,2.85-5.07,2.42-2.08,5.85-3.1,8-5.39a50.82,50.82,0,0,0,7.39-11c.47-.91-1.29-4.19-2.56-4.57a118,118,0,0,0-16.64-3.59c-2-.29-4.83.25-6.17,1.56-3.66,3.58-7.23,3.12-11.46,1.46-7.56-3-15.12-6.05-22.92-8.22-8.71-2.43-17.69-3.89-26.56-5.77-2.3-.49-4.61-.95-6.91-1.43,2.76,3,6.39,4.33,9,6.76,1.92,1.81,3.65,5.25,3.29,7.63-.3,1.93-3.68,4.45-6,4.78a38.75,38.75,0,0,1-13.5-.37c-7.68-1.66-13.59.64-18,6.72-5.86,8.14-11.42,16.51-16.93,24.9-4.66,7.09-4.43,7.05,1.78,13.14,1.35,1.33,2.73,4.47,2.08,5.55-1.05,1.75-3.9,3.58-5.79,3.39-3.46-.35-6.73-2.26-10.14-3.3-3-.92-6.44-2.73-9.12-2-4.37,1.15-6.89-.55-9.48-3.19-4.25-4.35-8.43-8.75-12.64-13.13-1.91-2-3.66-2.72-6.36-.78-11.25,8.08-22.78,15.77-34,23.91-12.07,8.75-11.87,8.86-6.79,23,.81,2.24.36,4.92.49,7.4-2.54-.32-5.17-.31-7.58-1-3.47-1.05-6.76-2.65-11.55-4.59,1.18,7,2.24,12.34,2.89,17.72.21,1.68-.34,4.74-1.19,5a7.21,7.21,0,0,1-5.56-1.11c-3.2-2.33-5.92-5.32-8.95-7.9-4.33-3.68-6.31-2.89-7.45,2.78-.41,2-.25,4.59-1.43,6-3.37,4-2,7.35-.11,11.35,1,2.2,1.37,5.73.28,7.67a99.91,99.91,0,0,1-10.87,15.79c-3.69,4.36-7.77,8.82-12.6,11.68a233,233,0,0,1-26,12.71C86.23,194.6,75,200.1,63.2,203.19c-8.9,2.33-16.84,5.52-23.92,11.08-5.38,4.22-10.37,8.92-15.77,13.1-2.48,1.93-5.42,4.12-8.35,4.47-6.58.79-9,4.81-9.07,10.38C5.67,265,4.52,288.08,21.54,306.83c1.38,1.52,1.28,4.38,1.87,6.62-2.32.32-4.74,1.2-6.95.82-4.59-.79-9.06-2.24-13.59-3.42l-1.09,1.54c3.59,3.76,7.26,7.45,10.74,11.3,4.16,4.61,10.28,8.78,11.79,14.19,2.74,9.81,8.88,17,14.1,25,3.23,5,6.39,10.53,7.43,16.22a54,54,0,0,0,8.72,20.65c6.81,10.29,11.6,21.36,8.42,34.3a11.61,11.61,0,0,0,.12,6.74c2.65,6.29.48,10.15-5.27,12.82-3.87,1.79-3.72,4.14-.95,7,4.91,5.08,11,7.16,17.85,7.74,7.74.66,15.91,0,23.12,2.36,8.42,2.74,12.91-.36,17.08-6.53.95-1.41,2.14-2.68,3-4.13,5.37-8.73,12.24-14.14,23.35-14.4,11.31-.26,22.58-3.42,33.84-3.3,8.67.09,15-2.47,20.68-8.4,5.89-6.17,11.44-12.8,18-18.17,4-3.27,9.52-5.1,14.65-6.56,6.87-2,14.37-2,21-4.51,14.8-5.63,29.75-9.95,45.59-11.49,10.39-1,20.42-3.23,30.32,3,4.59,2.88,10.55,4.05,16.05,4.89,8.31,1.27,14.76,4.64,20.23,11.26,8.25,10,16.39,19.88,20.77,32.3a16.67,16.67,0,0,0,2.11,3.14l33.18-32.65,1.92,1.12C422,426.45,415.09,435.75,415.81,446.11Z"/><path class="cls-1" d="M569.9,591.45c1.92,18.13-10.32,29.6-20.3,41.77-5.4,6.59-12.85,4.27-18.2-2.45-7.27-9.12-9.8-19.19-10.88-30.45-.59-6.18-4.49-12-6.27-18.14-.81-2.77-1.28-7.29.23-8.64,1.71-1.53,6.07-1.19,8.8-.26A74.61,74.61,0,0,1,537.07,580c6.79,4,13.56,4.27,20.64,1.1,1.21-.54,2.47-1,3.71-1.43,6.76-2.45,8.59-1.11,8.48,6.12C569.88,587.65,569.9,589.55,569.9,591.45Zm-2.49-11.34c-3.33,1-6,1.47-8.26,2.6-8.22,4-16,3.43-23.75-1.3a68,68,0,0,0-11.68-5.81c-2.45-.89-5.37-.51-8.08-.71.25,2.52.07,5.17.84,7.52,1.95,5.91,5.65,11.56,6.23,17.54,1,10.84,3.2,20.6,10.32,29.38,5.19,6.41,10.38,7.79,16,1.55,3.4-3.79,5.85-8.44,9.31-12.17C568.4,607.85,567.83,594.65,567.41,580.11Z"/><path class="cls-1" d="M415.81,446.11c-.72-10.36,6.22-19.66,3.83-29.81l-1.92-1.12-33.18,32.65a16.67,16.67,0,0,1-2.11-3.14c-4.38-12.42-12.52-22.32-20.77-32.3-5.47-6.62-11.92-10-20.23-11.26-5.5-.84-11.46-2-16.05-4.89-9.9-6.22-19.93-4-30.32-3-15.84,1.54-30.79,5.86-45.59,11.49-6.6,2.52-14.1,2.55-21,4.51-5.13,1.46-10.63,3.29-14.65,6.56-6.58,5.37-12.13,12-18,18.17-5.66,5.93-12,8.49-20.68,8.4-11.26-.12-22.53,3-33.84,3.3-11.11.26-18,5.67-23.35,14.4-.89,1.45-2.08,2.72-3,4.13-4.17,6.17-8.66,9.27-17.08,6.53-7.21-2.34-15.38-1.7-23.12-2.36-6.82-.58-12.94-2.66-17.85-7.74-2.77-2.87-2.92-5.22.95-7,5.75-2.67,7.92-6.53,5.27-12.82a11.61,11.61,0,0,1-.12-6.74c3.18-12.94-1.61-24-8.42-34.3a54,54,0,0,1-8.72-20.65c-1-5.69-4.2-11.25-7.43-16.22-5.22-8-11.36-15.21-14.1-25-1.51-5.41-7.63-9.58-11.79-14.19-3.48-3.85-7.15-7.54-10.74-11.3l1.09-1.54c4.53,1.18,9,2.63,13.59,3.42,2.21.38,4.63-.5,7-.82-.59-2.24-.49-5.1-1.87-6.62C4.52,288.08,5.67,265,6.09,242.22c.11-5.57,2.49-9.59,9.07-10.38,2.93-.35,5.87-2.54,8.35-4.47,5.4-4.18,10.39-8.88,15.77-13.1,7.08-5.56,15-8.75,23.92-11.08,11.81-3.09,23-8.59,34.32-13.48a233,233,0,0,0,26-12.71c4.83-2.86,8.91-7.32,12.6-11.68A99.91,99.91,0,0,0,147,149.53c1.09-1.94.73-5.47-.28-7.67-1.85-4-3.26-7.36.11-11.35,1.18-1.39,1-3.95,1.43-6,1.14-5.67,3.12-6.46,7.45-2.78,3,2.58,5.75,5.57,8.95,7.9a7.21,7.21,0,0,0,5.56,1.11c.85-.24,1.4-3.3,1.19-5-.65-5.38-1.71-10.71-2.89-17.72,4.79,1.94,8.08,3.54,11.55,4.59,2.41.73,5,.72,7.58,1-.13-2.48.32-5.16-.49-7.4-5.08-14.11-5.28-14.22,6.79-23,11.21-8.14,22.74-15.83,34-23.91,2.7-1.94,4.45-1.22,6.36.78,4.21,4.38,8.39,8.78,12.64,13.13,2.59,2.64,5.11,4.34,9.48,3.19,2.68-.7,6.1,1.11,9.12,2,3.41,1,6.68,2.95,10.14,3.3,1.89.19,4.74-1.64,5.79-3.39.65-1.08-.73-4.22-2.08-5.55-6.21-6.09-6.44-6.05-1.78-13.14,5.51-8.39,11.07-16.76,16.93-24.9,4.37-6.08,10.28-8.38,18-6.72a38.75,38.75,0,0,0,13.5.37c2.29-.33,5.67-2.85,6-4.78.36-2.38-1.37-5.82-3.29-7.63-2.59-2.43-6.22-3.74-9-6.76,2.3.48,4.61.94,6.91,1.43,8.87,1.88,17.85,3.34,26.56,5.77,7.8,2.17,15.36,5.26,22.92,8.22,4.23,1.66,7.8,2.12,11.46-1.46,1.34-1.31,4.19-1.85,6.17-1.56a118,118,0,0,1,16.64,3.59c1.27.38,3,3.66,2.56,4.57a50.82,50.82,0,0,1-7.39,11c-2.11,2.29-5.54,3.31-8,5.39-1.44,1.23-3.33,3.94-2.85,5.07,2.49,5.84-1.49,9.28-4.09,13.31-1.44,2.22-3.54,4.32-4.06,6.75-.44,2.1.17,5.53,1.65,6.75,14.09,11.54,28.42,22.78,42.75,34,10.49,8.24,21.58,15.49,34.45,19.55,10.31,3.26,17.15.52,22.14-9.12,7.15-13.79,9.15-28.92,10.25-44,1.65-22.55,6.34-44.26,15-65.09,1.58-3.78,3.65-7.35,6.17-12.35,2.4,7.08,4.22,12.63,6.17,18.12,2.28,6.43,4.23,13,7.14,19.17,4.28,9.06,7.08,18.21,6.71,28.41-.24,6.61,2.2,7.87,8.72,8.28A16.43,16.43,0,0,1,557.12,79a25.08,25.08,0,0,1,8.58,22.37,47,47,0,0,0,4.49,26.35c3.8,7.88,3.47,17.71,5.25,26.62a87.53,87.53,0,0,0,3.91,14.18c1.66,4.28,4.72,6.55,9.94,4.88a8.65,8.65,0,0,1,6.7,1.08c5,3.47,9.58,7.46,14.19,11.41,4.31,3.69,7.93,7.73,5.92,14.21-.33,1.07.29,2.61.85,3.75,3.54,7.24,7.21,14.42,10.78,21.64,1.51,3.05,2.58,6.36,4.41,9.2,1.51,2.35,3.33,5.75,7,1.87.56-.59,3.29-.27,3.84.48,1.72,2.35,3.79,5,4.06,7.74.86,8.53,4.54,15.4,10.09,21.73,5.26,6,9.89,12.51,15,18.67,5.8,7,9.16,15.22,8.83,24.11-1,27.62-.42,55.62-11,81.88-5.09,12.61-11.59,24.66-17.71,36.84a20.2,20.2,0,0,1-5.52,6.42c-7.48,5.9-12,13.59-14.32,22.67C630,466.32,625.62,474,618,480.24c-9.27,7.57-11.39,18.87-12.8,30.14-.19,1.5-.18,3-.26,4.55-.39,7.5-.53,7.14-8,7a181.53,181.53,0,0,0-26.79,1.31c-3.33.45-6.43,3.72-9.33,6.07-4.86,3.93-9.44,8.19-14.2,12.25-3.08,2.64-6.33,2.28-8.2-1.07-6.32-11.34-16-13.4-28.22-13.18-13.95.25-28-1.76-41.89-3.43-2.63-.31-5.32-3.31-7.26-5.67-4.14-5-6.69-11.68-14.89-11.78-1,0-2.64-2.75-2.82-4.35-.61-5.64-.76-11.33-1-17-.16-4,.12-8-.27-11.94-.53-5.21-2.56-6.31-7.14-3.67-3.78,2.18-5.62,1-6.75-2.68-1-3.26-2-6.52-2.91-9.81C423.81,451.86,421.58,447.42,415.81,446.11Z"/><path class="cls-1" d="M567.41,580.11c.42,14.54,1,27.74-9.09,38.6-3.46,3.73-5.91,8.38-9.31,12.17-5.6,6.24-10.79,4.86-16-1.55-7.12-8.78-9.27-18.54-10.32-29.38-.58-6-4.28-11.63-6.23-17.54-.77-2.35-.59-5-.84-7.52,2.71.2,5.63-.18,8.08.71a68,68,0,0,1,11.68,5.81c7.75,4.73,15.53,5.31,23.75,1.3C561.45,581.58,564.08,581.13,567.41,580.11Z"/></g></g></svg>