<svg xmlns="http://www.w3.org/2000/svg" viewBox="0 0 227.28 318.23"><defs><style>.cls-1,.cls-2{fill:none;}.cls-1,.cls-2,.cls-3{stroke:#d0d3ba;stroke-linejoin:round;stroke-width:3px;}.cls-2{stroke-linecap:round;}.cls-3{fill:#cea252;}</style></defs><title>Asset 41</title><g id="Layer_2" data-name="Layer 2"><g id="Layer_1-2" data-name="Layer 1"><polygon class="cls-1" points="208.86 1.5 204.13 51.7 225.23 54.98 225.59 3.68 208.86 1.5"/><polygon class="cls-1" points="220.87 82.35 225.78 86.44 177.76 127.92 164.66 130.46 103 223.96 62.07 266.52 39.7 316.73 11.87 300.36 21.69 290.53 26.06 257.79 33.7 252.88 35.88 231.6 46.25 198.86 16.23 187.94 1.5 137.74 17.32 67.89 72.98 77.71 76.81 60.8 149.38 75.53 151.56 70.62 220.87 82.35"/><line class="cls-2" x1="225.23" y1="54.98" x2="220.87" y2="82.35"/><polygon class="cls-3" points="161.28 135.6 134.38 116.46 124.83 129.56 151.29 150.29 161.28 135.6"/></g></g></svg>