<svg xmlns="http://www.w3.org/2000/svg" viewBox="0 0 744.62 372.84"><defs><style>.cls-1{fill:#5c968e;}</style></defs><title>Asset 58</title><g id="Layer_2" data-name="Layer 2"><g id="Layer_1-2" data-name="Layer 1"><circle class="cls-1" cx="733.62" cy="282" r="11"/><circle class="cls-1" cx="640.38" cy="298.05" r="11"/><circle class="cls-1" cx="542.8" cy="314.42" r="11"/><circle class="cls-1" cx="448.44" cy="330.22" r="11"/><circle class="cls-1" cx="360.78" cy="346.06" r="11"/><circle class="cls-1" cx="275.35" cy="361.84" r="11"/><circle class="cls-1" cx="676.74" cy="212.74" r="11"/><circle class="cls-1" cx="578.47" cy="230.49" r="11"/><circle class="cls-1" cx="480.54" cy="248.03" r="11"/><circle class="cls-1" cx="388.45" cy="262.38" r="11"/><circle class="cls-1" cx="301.11" cy="279.16" r="11"/><circle class="cls-1" cx="209.23" cy="297.45" r="11"/><circle class="cls-1" cx="619.16" cy="145.85" r="11"/><circle class="cls-1" cx="553.11" cy="81.56" r="11"/><circle class="cls-1" cx="490.98" cy="11" r="11"/><circle class="cls-1" cx="393.77" cy="27.22" r="11"/><circle class="cls-1" cx="301.86" cy="45.89" r="11"/><circle class="cls-1" cx="212.19" cy="60.05" r="11"/><circle class="cls-1" cx="112.45" cy="78.28" r="11"/><circle class="cls-1" cx="11" cy="94.65" r="11"/><circle class="cls-1" cx="452.6" cy="92.97" r="11"/><circle class="cls-1" cx="357.8" cy="112.01" r="11"/><circle class="cls-1" cx="267.72" cy="129.78" r="11"/><circle class="cls-1" cx="174.56" cy="144.94" r="11"/><circle class="cls-1" cx="76.46" cy="166.32" r="11"/><circle class="cls-1" cx="515.43" cy="163.6" r="11"/><circle class="cls-1" cx="421.68" cy="176.88" r="11"/><circle class="cls-1" cx="326.75" cy="197.41" r="11"/><circle class="cls-1" cx="237.57" cy="210.9" r="11"/><circle class="cls-1" cx="141.66" cy="225.82" r="11"/></g></g></svg>