<svg xmlns="http://www.w3.org/2000/svg" viewBox="0 0 936.06 432.3"><defs><style>.cls-1{fill:none;stroke:#dde2d9;stroke-linecap:round;stroke-linejoin:round;stroke-width:3.43px;}</style></defs><title>Asset 60</title><g id="Layer_2" data-name="Layer 2"><g id="Layer_1-2" data-name="Layer 1"><path class="cls-1" d="M917.06,17.66,820.3,96,751.39,2.34,689,95.4,622.64,8.11,552.13,92.76,474.45,7,399.57,95.21,326.92,1.71l-69.39,98.83S174.13,1.42,178.05,1.71s-88,102.18-88,102.18L18.33,2.87"/><polyline class="cls-1" points="934.34 88.11 833.33 163.87 753.58 93.43 692.43 171.85 632.62 96.08 554.2 175.83 479.77 86.78 397.36 175.83 328.25 90.77 255.14 174.5 175.83 101.84 90.32 179.82 3.93 101.84"/><polyline class="cls-1" points="930.8 158.11 831.55 246.72 758.01 174.5 683.57 259.57 622.43 177.61 537.37 255.58 478.88 174.06 398.69 266.22 324.7 179.38 239.63 252.04 172.29 182.92 76.59 264.44 7.03 190.46"/><polyline class="cls-1" points="923.27 239.19 841.74 339.32 756.68 258.24 680.92 337.99 617.12 259.57 545.34 340.65 473.57 260.9 389.83 344.64 306.09 266.22 235.65 339.32 165.2 272.86 76.15 335.33 1.71 262.23"/><polyline class="cls-1" points="930.36 327.8 843.52 430.59 758.45 331.35 682.25 419.96 611.8 343.31 536.04 420.4 465.59 336.66 395.15 419.96 307.86 343.75 233.43 416.41 166.09 354.38 81.02 411.1 4.82 356.16"/></g></g></svg>