<svg xmlns="http://www.w3.org/2000/svg" viewBox="0 0 1057.21 533.71"><defs><style>.cls-1{fill:none;stroke:#cea252;stroke-linecap:round;stroke-linejoin:round;stroke-width:3.43px;}</style></defs><title>Asset 59</title><g id="Layer_2" data-name="Layer 2"><g id="Layer_1-2" data-name="Layer 1"><path class="cls-1" d="M1.71,166.63a62.52,62.52,0,0,0,87.11-15.36,62.55,62.55,0,0,1,87.11-15.36"/><path class="cls-1" d="M175.93,135.91A62.52,62.52,0,0,0,263,120.55a62.56,62.56,0,0,1,87.12-15.36"/><path class="cls-1" d="M350.16,105.19a62.54,62.54,0,0,0,87.11-15.35,62.52,62.52,0,0,1,87.11-15.36"/><path class="cls-1" d="M524.38,74.48a62.55,62.55,0,0,0,87.11-15.36A62.52,62.52,0,0,1,698.6,43.76"/><path class="cls-1" d="M698.6,43.76a62.33,62.33,0,0,0,46.73,10.36A62.37,62.37,0,0,0,785.71,28.4,62.52,62.52,0,0,1,872.82,13"/><path class="cls-1" d="M53.21,238.05a62.55,62.55,0,0,0,87.11-15.36,62.55,62.55,0,0,1,87.11-15.36"/><path class="cls-1" d="M227.43,207.33A62.55,62.55,0,0,0,314.54,192a62.56,62.56,0,0,1,87.12-15.36"/><path class="cls-1" d="M401.66,176.61a62.55,62.55,0,0,0,87.11-15.36,62.55,62.55,0,0,1,87.11-15.36"/><path class="cls-1" d="M575.88,145.89A62.55,62.55,0,0,0,663,130.53a62.55,62.55,0,0,1,87.11-15.36"/><path class="cls-1" d="M750.1,115.17a62.55,62.55,0,0,0,87.11-15.36,62.55,62.55,0,0,1,87.11-15.36"/><path class="cls-1" d="M90,307.79a62.52,62.52,0,0,0,87.11-15.36,62.55,62.55,0,0,1,87.11-15.36"/><path class="cls-1" d="M264.24,277.07a62.52,62.52,0,0,0,87.11-15.36,62.55,62.55,0,0,1,87.11-15.36"/><path class="cls-1" d="M438.46,246.35A62.52,62.52,0,0,0,525.57,231a62.55,62.55,0,0,1,87.11-15.36"/><path class="cls-1" d="M612.68,215.63a62.52,62.52,0,0,0,87.11-15.36,62.55,62.55,0,0,1,87.11-15.36"/><path class="cls-1" d="M786.9,184.91A62.52,62.52,0,0,0,874,169.55a62.56,62.56,0,0,1,87.12-15.36"/><path class="cls-1" d="M124,378a62.55,62.55,0,0,0,87.11-15.36,62.55,62.55,0,0,1,87.11-15.36"/><path class="cls-1" d="M298.26,347.3a62.55,62.55,0,0,0,87.11-15.36,62.55,62.55,0,0,1,87.11-15.36"/><path class="cls-1" d="M472.48,316.58a62.55,62.55,0,0,0,87.11-15.36,62.55,62.55,0,0,1,87.11-15.36"/><path class="cls-1" d="M646.7,285.86a62.55,62.55,0,0,0,87.11-15.36,62.55,62.55,0,0,1,87.11-15.36"/><path class="cls-1" d="M820.92,255.14A62.55,62.55,0,0,0,908,239.78a62.55,62.55,0,0,1,87.11-15.36"/><path class="cls-1" d="M146.19,456.41a62.55,62.55,0,0,0,87.11-15.36,62.55,62.55,0,0,1,87.11-15.36"/><path class="cls-1" d="M320.41,425.69a62.55,62.55,0,0,0,87.11-15.36A62.55,62.55,0,0,1,494.63,395"/><path class="cls-1" d="M494.63,395a62.55,62.55,0,0,0,87.11-15.36,62.55,62.55,0,0,1,87.11-15.36"/><path class="cls-1" d="M668.85,364.25A62.55,62.55,0,0,0,756,348.89a62.55,62.55,0,0,1,87.11-15.36"/><path class="cls-1" d="M843.07,333.53a62.55,62.55,0,0,0,87.11-15.36,62.55,62.55,0,0,1,87.11-15.36"/><path class="cls-1" d="M184.39,520.67a62.55,62.55,0,0,0,87.11-15.36A62.55,62.55,0,0,1,358.61,490"/><path class="cls-1" d="M358.61,490a62.55,62.55,0,0,0,87.11-15.36,62.55,62.55,0,0,1,87.11-15.36"/><path class="cls-1" d="M532.83,459.23a62.55,62.55,0,0,0,87.11-15.36,62.55,62.55,0,0,1,87.11-15.36"/><path class="cls-1" d="M707.05,428.51a62.55,62.55,0,0,0,87.11-15.36,62.55,62.55,0,0,1,87.11-15.36"/><path class="cls-1" d="M881.27,397.79a62.55,62.55,0,0,0,87.11-15.36,62.55,62.55,0,0,1,87.11-15.36"/></g></g></svg>