<svg xmlns="http://www.w3.org/2000/svg" viewBox="0 0 1361.35 1100.99"><defs><style>.cls-1{fill:#224a56;}</style></defs><title>Asset 23</title><g id="Layer_2" data-name="Layer 2"><g id="Layer_1-2" data-name="Layer 1"><path class="cls-1" d="M902.67,276.14c19.45,16.56,29.1,16.13,47.41-1.55a15.35,15.35,0,0,0,2.09-2.1c9.5-13.71,34.42-1.76,39.09-23.56,4.17-19.47,22.79-20.27,36.41-26.62,6.78-3.16,16-.75,24-1.8,5.78-.76,11.36-3.08,17-4.7-1.74-5.16-2.38-11.15-5.48-15.28-4.67-6.24-11-11.23-16.75-16.69-14.39-13.77-25.79-13.48-36.06-1.89l-35.32,2c.92-18.48,8.46-36.66,18.36-56.2,20.75,12.46,32.73-10,50.32-12.32,1.56-.21,4.16-5.28,3.55-7.28-6.22-20.49,4-36,15.12-51.08,7.75-10.47,4.32-25-8.61-33.32,9.33-16.1,27.42-15.75,41.81-21.73,11.27-4.68,23.5,0,35,.52,35.29,1.47,39.7,30.41,53,51.3,9.08,14.23,15,30.42,23.45,45.11,2.12,3.7,8.66,7.38,12.77,7a76,76,0,0,1,48.52,11.2c5.18,3.22,9.07,10.76,10.65,17.06,2.85,11.39,6.5,17.23,20.09,13.87,13.76-3.41,27.54-3.42,36.07-18.57,4.19-7.44,14.34-11.53,26.13-16.2-3.49,33.29-7,66.59-10,95.22-14.59,7-26.12,12.47-37.6,18-8.62,4.18-6.42,9.3-3.28,16.85A151.07,151.07,0,0,1,1320.72,281c1.39,10.42-8.42,14.64-25.35,11.76-2.3,17.15-11,29-28.35,34.71-2.23.73-1.08,11.77-1.72,21.41-5.75-1.27-13-2.06-19.62-4.56-7-2.66-11.07-2.66-15.79,4.61-7.62,11.75-17.61,21.94-25.76,33.38-12,16.79-28,27.46-46.54,35.79-8.3,3.73-15,11-22.76,16.85-8.66-3.61-8.83-9.86-4.11-17.25a52.52,52.52,0,0,1,5.61-6.88c9-10,9.42-21.86-1.75-27.6-6.67-3.43-21.47-1-26.62,4.41-14.85,15.71-26,34.85-40.07,51.41-3.83,4.52-13.48,7.67-19.22,6.29-14.29-3.43-15.55,5.06-15.61,14.38-.08,12.66,12.13,25.17,24.72,24.38,10.38-.65,11.23,3.83,11.42,12.1.12,5.13,2.31,13.76,5.21,14.52,5.83,1.52,13.14-.35,19.16-2.61,3.74-1.41,6.72-5.78,9.21-9.38,6.52-9.44,13.82-12.66,24.59-6.15,3.81,2.32,9.25,2.83,13.89,2.64,4.47-.19,8.87-2.35,14.81-4.08-.69,5.84-1.13,9.52-1.51,12.73-18.68,3.06-32.45,8-43.06,27-6.86,12.29-17.73,24.72-26.8,37.09-5.71,7.78-2.64,15.33,4.66,16.3,27.61,3.68,28.62,29.87,41.37,46,7.1,9,13.36,19,21.76,26.63,10.62,9.63,11.47,27.91-.48,36.11-7.45,5.11-15.65,9.1-23.19,14.07-2.6,1.72-4.24,4.89-6.32,7.4,2.82,2.25,5.34,5.53,8.56,6.49,3.56,1.06,7.76-.1,11.68-.12,9.33-.06,18.66,0,32,0l-11.7,13,4.16.51v35.1c-14.26,5-27,7.81-27.09,26.1,0,10.25-3.56,20.25-16.7,25.19-4.41,1.66-4.88,16.16-5.53,24.9-1.17,16.06-18.12,41-32.61,46.18-9.2,3.31-9.42,4.12-3.13,16.31L1040,935.55c-.83.54-2.17.93-2.39,1.66-7.57,25.32-31.11,17.58-48,22.16-11.11,3-23.68.57-37.09.57v20.9l-14.11-11c1.14,16.47-9.82,17.87-19.76,20.68-17.21,4.88-34.43,9.72-51.51,15-10,3.12-12.4,16.74-6,31.39-13.1-4.81-18-12.85-11.73-22.74,8.34-13.1-6.56-14.93-8.59-25.76-4.34,5.36-6.84,8.46-8.84,10.94-6.24-3.35-12.19-7.13-18.61-9.74-3-1.23-7.89-1.58-10.33.05-14.49,9.66-35.25,6-44-9.05-1.62-2.79-.67-8.39,1.09-11.58,5.92-10.67.92-15.55-8.82-15.68-11.13-.14-20.55-1.32-29.06-10-2.81-2.87-12.77-2.41-16.8.37-7.45,5.15-12.71,13.28-23.59,11.65-3.85-.58-7.92.06-11.86.43-6.48.61-12.93,1.46-22.9,2.61l-5.46-3.89c-10.63,2-18.31,4.23-26.12,4.81-12.5.92-10.8,9-9.6,17,1.24,8.31,2.72,16.59,4.09,24.88l-6.4,1.61c-1.34-4-3.26-8-3.9-12.1-1.38-9.08-3.65-14-14.33-8.3-8.68,4.61-16.57,6-21.72-7.6-2.53-6.68-13.94-10-21.81-15.17,1.62-2.2,3.69-4.8,5.55-7.54,10.45-15.35,10-14.48-6.33-23.43-12.33-6.78-7.31-17-.64-26.09C530.15,890.29,518,899,507,898.47c-6.47-15.75.26-25.79,13.43-33.84,19.35-11.83,33.35-43.73,26.25-65.12-4.19-12.59-13.29-23.67-21-34.86-1.51-2.19-6.89-2.57-10.41-2.37-8.44.49-16.84,1.83-22.6,2.51-1.79-12.13-1.76-20.85-4.55-28.54-3.6-9.91-11.16-10.77-20.45-5.69-4,2.19-11.51,4-14,1.92-11.38-9.7-20-2.73-31,1.07-19.67,6.78-35.7,21.89-57.12,24-1.95.19-4.18,1.18-5.78.54-9.71-3.91-20.6-6.46-28.64-12.66-24.9-19.22-38.7-11.12-50.32,14.27l-4.09-.46c.57-3.78,1.42-7.55,1.63-11.35.29-5,1.73-11-.5-14.66-1.51-2.47-8.48-1.57-13-2.22-11.75-1.71-24.32-1.42-35.05-5.71-12.88-5.15-24.61-13.62-36-21.77-8.3-5.93-12.36-17.27-24.45-18.91-1.43-.2-3-5.8-3-8.91-.07-8.33-2.84-13.38-12.07-12.92-1.75.09-4.39.14-5.17-.89-9.31-12.34-18.75-24.63-27.34-37.47-7.86-11.77-15.27-14-28.76-6.66-13.76-16.33-28-32.43-41.13-49.37-3.06-4-3.08-10.78-3.23-16.31-.14-5.31,1.36-10.67,1.59-12.21,8.77-1,20.56.58,22.84-3.35,3.62-6.21,4-18.1.15-24.06-6.73-10.53-4.13-17.69,1.27-26.63,2.17-3.59,3.8-11.21,1.94-12.91-11.14-10.17-8.11-22-5.9-32.17L29.62,407.72C47,378.35,15.29,373.64,0,354.09c17.63,11.21,24.8,8.57,22.62-8.31-.11-.85.78-1.79,1.09-2.73,8-23.62,7-25.5-16.6-30.92.4-6.05.81-12.12,1.39-20.83,10.66-4.8,22.51-11.56,35.26-15.19,5.33-1.51,13.42,2.38,18.73,6,8.37,5.76,16.2,8.62,25,2.4,4.36-3.08,8-7.26,12.92-11.89,11.29,10.07,22.06,7.15,34.74,1.32,9.83-4.51,22.31-3,33.49-4.86,9.22-1.56,17.84-3.08,19.51-16.13.83-6.5,9.36-11.69,13-18.24a49.66,49.66,0,0,0,5.71-18c1.44-11.93,1.7-24,2.51-36.92,14,4,31.1-6.91,43.41,9.2.67.87,10.31-3.54,10.21-3.87-6.27-21.66,13.21-31.14,21.38-45.81.67-1.21,2.06-2,2.83-2.76,10.2,5.63,20,11.44,30.12,16.51,8.84,4.42,25.81-4.83,27.91-14.83.92-4.34.2-9.57,2.42-13a45.48,45.48,0,0,1,13.05-12.8c6.76-4.37,14.42-7.33,21.69-10.9l-1.58-3.91L393.28,101c.32.59,1.14,1.38,1.06,2.08-1.55,14.28,8.77,33.36,22.39,37.65,12.72,4,17.77,11.32,21.33,24.22,5.27,19.06,6.12,35.54-5.82,52.5-2.1,3,2.66,14.87,7.26,17.67,9.44,5.73,21.07,7.74,31.53,11.94,9.74,3.9,20.21,7.21,28.46,13.34,16.94,12.59,31.33,27,34,50.45,1.59,14,11,22,27.6,23,30.45,1.84,60.74,6.59,91.08,10.29,3.36.41,8.06.78,9.66,3,16.94,23.22,46,22.49,68.47,34.55,4.36,2.34,13.16.08,18.12-3,26.28-16.18,54.08-21.52,85-19.6,15.08.94,32.31-3.06,40.49-21.19,2-4.37,9.07-6.54,14-9.47,8.38-5,14.92-10.62,7.93-21.23C886,292.24,886.28,290.39,902.67,276.14Z"/><path class="cls-1" d="M1165.3,973.48c-6.38-12.57-12-24.07-18-35.31-5.69-10.57-6.46-20.44,1.64-30.25,3.44-4.16,7.17-8.56,9-13.51,6.17-17,19-25.56,36.39-30.17,6.07,9.32,5,18,.46,28.46-9.42,21.74-17,44.26-25.24,66.52C1167.62,964.37,1166.38,969.77,1165.3,973.48Z"/><path class="cls-1" d="M884.59,1056.57c-4.57,8.29-9.33,15.23-12.41,22.84-6.92,17.07-39.29,28.53-52.61,16.79-4.35-3.83-7.36-16.08-4.65-19.65,6.59-8.63,16-18,25.92-20.49C855.31,1052.5,871.83,1046.56,884.59,1056.57Z"/></g></g></svg>