<svg xmlns="http://www.w3.org/2000/svg" viewBox="0 0 261.5 220.11"><defs><style>.cls-1{fill:#d0d3ba;}.cls-2{fill:#5c968e;}.cls-3{fill:none;stroke:#5c968e;stroke-linejoin:round;stroke-width:3px;}</style></defs><title>Asset 18</title><g id="Layer_2" data-name="Layer 2"><g id="Layer_1-2" data-name="Layer 1"><path class="cls-1" d="M154.68,187.13l.16,10.49-18.35.63c-2.17-.15-1.12-3.46,1-5C141.31,190.46,145.73,187.19,154.68,187.13Z"/><path class="cls-2" d="M154.84,197.62l-3.05,21L4.67,218.19c3-2.64.11-11.52-3.17-15.08H148.22l5.36-.13Z"/><path class="cls-2" d="M133.21,202.61c.1,0,.08-.09-.1-.26-7.55-7.56,4.57-21.62,22.36-21.62,31.48,0,61.72,31.19,104.53,31.19l-4.74,6.48c-42.81,0-68.84-31.27-100.32-31.27h-.26c-9,.06-13.37,3.33-17.2,6.09-2.11,1.57-3.16,4.88-1,5l18.35-.63L153.58,203l-5.36.13h-15Z"/><path class="cls-1" d="M133.21,202.61v.5H1.5L9.89,23.85H129.34s-.21,163.59-.21,172.09C129.13,200.26,132.7,202.61,133.21,202.61Z"/><path class="cls-1" d="M155.47,180.73c-17.79,0-29.91,14.06-22.36,21.62.18.17.2.26.1.26-.51,0-4.08-2.35-4.08-6.67,0-8.5.21-172.09.21-172.09,0-5.25-1.16-22.35,26.13-22.35,31.48,0,40.4,31.37,83.2,31.37l21.33,179C217.19,211.92,187,180.73,155.47,180.73Z"/><polyline class="cls-3" points="154.68 187.13 154.68 187.13 154.84 197.62 153.58 202.98 148.22 203.11 143.19 203.11 133.21 203.11 129.34 203.11 1.5 203.11 9.89 23.85 129.34 23.85"/><path class="cls-3" d="M129.34,23.85c0-5.25-1.16-22.35,26.13-22.35,31.48,0,40.4,31.37,83.2,31.37l21.33,179c-42.81,0-73.05-31.19-104.53-31.19-17.79,0-29.91,14.06-22.36,21.62.18.17.2.26.1.26-.51,0-4.08-2.35-4.08-6.67C129.13,187.44,129.34,23.85,129.34,23.85Z"/><path class="cls-3" d="M137.48,193.22c3.83-2.76,8.25-6,17.2-6.09h.26c31.48,0,57.51,31.27,100.32,31.27l4.74-6.48"/><path class="cls-3" d="M1.5,203.11c3.28,3.56,6.14,12.44,3.17,15.08l147.12.42,3.05-21-18.35.63c-2.17-.15-1.12-3.46,1-5"/><path class="cls-3" d="M243.22,73.83c-45.89,0-62.89-32.35-84.27-32.35l0,119.62c36.73,0,55.19,32.11,98.53,32.11"/><path class="cls-3" d="M9.18,65.5h92.87c0,.31-2.21,120-2.21,120l-97.69,0"/><line class="cls-3" x1="227.14" y1="72.54" x2="237.1" y2="190.7"/><line class="cls-3" x1="210.77" y1="67.61" x2="216.54" y2="182.72"/><line class="cls-3" x1="194.61" y1="59.74" x2="198.44" y2="173.22"/><line class="cls-3" x1="178.13" y1="48.72" x2="180.54" y2="164.88"/></g></g></svg>