<svg xmlns="http://www.w3.org/2000/svg" viewBox="0 0 39.53 36.93"><defs><style>.cls-1{fill:#5c968e;}</style></defs><title>Asset 21</title><g id="Layer_2" data-name="Layer 2"><g id="Layer_1-2" data-name="Layer 1"><path class="cls-1" d="M15,33.48l2.46-1a2.28,2.28,0,0,0,1.28-1.84c.12-3.13.09-4.08.15-5.7a3.24,3.24,0,0,1-.33-1.38c0-.56.28-1.24.31-1.95,0-.3-.21-.54-.2-.77s.11-.79-.05-.68c-.68,0-1.1.19-1.75.16-.26,0-.9,0-.77.42.15.12,2.25,2.4,2.24,2.81,0,.68-.71.77-1.18,1.09a3.91,3.91,0,0,0-.55.66c-.24.33-.69.2-.93.42a15.83,15.83,0,0,1-2,1.62c-.8.27-.82.65-.84,1.22s0,.94.53,1a12.45,12.45,0,0,0,3-.37c.15,0,.84-.2.91-.2h.15c.23,0,.75.14.74.37,0,1.06-2.17,1.43-2.86,1.63-.18-.2-.51.43-.84.42-.61,0-1.19.41-1.72.39a5.43,5.43,0,0,1-2.05.22c-.83,1-1.38.32-2.2,1.05-.37-.09-.69.43-1,.41-.89.38-1.87.38-2.54,1-.14-.23-1.08.6-1.15.49-.57,0-.36-.47-.78-1.24.36-.48-1.39-1.38-1.35-2.25,0-.6,2.06-.45,2.58-.43s1-.41,1.38-.4c.11,0,.23.05.38.06a.68.68,0,0,0,.46-.18c4.72.19,3-.83,3.93-2.11.07-1.63,0-3.18.08-4.88,0-.11.14-.56.14-.67-.07-1,.34-2-.36-2.44A22.49,22.49,0,0,0,7,20.43c-.1-.27-1.3.33-2,.3-.92.19-1-1.86-1.67-1.88C1.15,20,1.16,20.81.44,20.78c-.27,0-.49-.21-.43-.62l1.41-1.31c.31-.29.77-.42,1.16-.71.1-.56.89-.61,1.17-.86,0-.42.1-.68.49-.89a9.62,9.62,0,0,0,2.14-2.57c1.07-1.43,2-3,3-4.53,0-.11.48-.66.48-.78,0-.52.8-1,.73-1.21-.16.14.61-1,.63-1.57a8.09,8.09,0,0,1,.49-.89c.4-1.72,1.13-2.79,1.19-4.49.24-.22.36-.36.7-.35.9,0,1.43,1,2.1,1.22.12,0,.7.63.77.63A2.06,2.06,0,0,1,17.68,4c-.25.82-1.65.84-1.69,1.67,0,.68,1.8,1.43,2.32,1.75l.44.4c.67.14.7-.5.71-.88a4,4,0,0,0-.16-1.6c0-.37-.28-.58-.27-1.07-.07-.07.06-.52.33-.51.56,0,1.4.81,1.76,1.43a3.68,3.68,0,0,1,1.54,1.27c1.82-.24,3.7.06,5.52-.09A4.77,4.77,0,0,1,30.58,5c.68,0,1.25.88,1.77,1.2s1.34.35,1.31,1.34A10.46,10.46,0,0,1,32.8,10c-.22,1.92-.3,4-.45,5.92-.15,0-.16.07-.16.22,0,.56.33,1.14.3,1.9,0,.15-.09.34-.09.49,0,.56.64,1.08,2.45,3l0,1.06c-.13.45-1.27.71-2,.94-.41,0-.84.16-1.92.84-.62.39-2,.79-2.1,1.5a7.39,7.39,0,0,0,1.38,1.53c.64.07,1.28.92,1.91,1.44a20.87,20.87,0,0,0,3.33,1.83c.33.2,1.28.24,1.67.67.12,0,.55.47.67.48.65.7,1.32-.1,1.78.75,0,.18,0,.3-.24.44a16.06,16.06,0,0,0-3.76.38,9.46,9.46,0,0,1-2.67.58c-.68,0-2.29-1.3-3-1.78-.52,0-1.3-1.33-1.89-1.81-.37-.35-1.09-2.08-1.81-2.11S25,29.33,24.63,29.65c-.52.7-1.4,1.16-1.44,2l-.23.06a9.27,9.27,0,0,0-.72,1c-1.47,1-1.48,4.25-4,4.15-.65-.89-.62-1.76-1.95-2.34-.37-.24-1.51-.29-1.49-.67A1.22,1.22,0,0,1,15,33.48ZM8.23,18.66c.12,0,.81-.2.92-.19,1.62.06,1.71-.35,1.75-1.41a3.66,3.66,0,0,0-.36-2.39c-.45-.06-.8.12-1.25.1-.23,0-.56-.17-.9-.19-.64,0-2.28,2.18-3.91,3.41a.39.39,0,0,0,.36.46l2.72.11A2.22,2.22,0,0,0,8.23,18.66ZM5.72,27c.48-.66.1-1.66.45-1.91l.08-2-.14-.34s0-.8.41-.78a.41.41,0,0,1,.33.13c.74,1.5,2,2.5,2.23,4.17C9,27.46,8.37,29.74,6.9,29.69c-.23,0-.33-.17-.56-.25-.7-.52-.92-.53-.9-1.21A5.82,5.82,0,0,1,5.72,27Zm9-8.53A2,2,0,0,0,15.86,18c.18-.71.9-.87,1.62-.84.45,0,.58.7,1,.72.23,0,.56-.7.57-1.11,0-2,.25-6.27-.21-6.29-.3,0-.48.66-.79.88-2.56-.1-2-.95-2.23-2,0-.11-.19-.91-.18-1V8.06c-.23-.12-.29-1.41-.86-1.43-.34,0-.7.65-.83.91-.82,1.67-2,2.34-3,3.51-.24.34-.94,1-1,1.44-.12.11.1.35.21.35l1.7.07c.11.11.22.12.45.13a.41.41,0,0,0,.34-.1l1.48.05a3.65,3.65,0,0,0,.69-.31,2.58,2.58,0,0,1,1.31-.63c.42-.17,1.79.64,1.76,1.32s-.47.58-.71.88c-.46.21-2.87-.23-2.9.56,0,.23.1.46.09.69-.6.77-.62,1.34-.67,2.7A1.29,1.29,0,0,0,14.71,18.46Zm-1.63,6.89c.9.11,1.07-1.36,1.21-1.88a6.06,6.06,0,0,0,.64-2.06,4.22,4.22,0,0,0-.07-1.13l-1.13-.05C13,20.21,13,23.53,13,25A1,1,0,0,0,13.08,25.35Zm9.3,4c.3,0,1.16-.75,1.47-1,.81-.46,1.91-.61,1.81-1.86,0-.12-.27-.92-.26-1A10.93,10.93,0,0,0,25,23.66c0-.76-.32-1.72-.28-2.62s.23-2-1-2.08c-.75,0-1.85,0-1.92.91s0,1.7,0,2.53c0,.45-.1.79-.12,1.24.17.42-.13,1.43.16,1.82,0,.34-.18.56-.19.9,0,.91.08,1.82.05,2.73C21.77,29.32,22.15,29.33,22.38,29.34Zm-.22-12,.07.16A19.13,19.13,0,0,0,26,17.31c.53,0,1.2.19,1.37-.18,0-.34.69-.31.75-1.9,0-.75.2-1.28.22-1.8,0-.34-.43-.47-.59-.48-.9,0-1.67.28-2.5.24l-1.51,0c-.08,0-.46.2-.54.2-.84.16-1-.15-1.12,1.66A11.86,11.86,0,0,0,22.16,17.38ZM24,11.67a9.22,9.22,0,0,0,1.22-.07c.3,0,.67.14,1,.16s.54-.21.84-.2c.95,0,1.37-.13,1.4-1a5.1,5.1,0,0,0-.37-2.17c-.91,0-1.5-.29-2.48-.33-1,.3-1.79.31-2.67.58-.62.43-.64.88-.67,1.56C22.25,11.15,22.19,11.6,24,11.67Zm1.77,9c.06.45,1.32,3.22,1.92,3.25.58-.4,1.72-1.53,1.75-2.13,0-.11,1.63-1.18,1.68-2.51,0-.41-.21-.46-.47-.47h-.42l-.44-.17h-.08c-.15,0-.91.12-1.06.11-1.18.22-2.08-.08-3,.42l0,.45A2.35,2.35,0,0,0,25.81,20.63Zm4.58-5c.23,0,.46,0,.47-.24C30.78,15.34,30.4,15.43,30.39,15.58Zm.9-.75s0,0,0,.07,0,.08,0,.08,0,0,0-.08S31.29,14.83,31.29,14.83Z"/></g></g></svg>