<svg xmlns="http://www.w3.org/2000/svg" viewBox="0 0 39.72 35.97"><defs><style>.cls-1{fill:#5c968e;}</style></defs><title>Asset 22</title><g id="Layer_2" data-name="Layer 2"><g id="Layer_1-2" data-name="Layer 1"><path class="cls-1" d="M1.28,21.43c.11-.14,1.49-.62,1.61-.77a14.22,14.22,0,0,0,3-1.47c.11,0,.62-.5.7-.5s.62-.36.7-.43A7.85,7.85,0,0,0,9.4,16.6c.85-.42,1.77-1.67,2.73-2.16l2-1.89c.15-.07.69-.27.69-.27,0-.23-.11-.16-.22-.24a9.79,9.79,0,0,1,.94-.8c.35-.28.87-.94,1.34-1.38,0-.3-.18-.46-.44-.47-1.55-.06-2.95,0-4.31-.09-.52,0-1.21.18-1.74.16a13.19,13.19,0,0,1-2.57-.18c-.37,0-.68.05-.9,0-.76,0-1.53-1.64-2-2.45A.25.25,0,0,1,5,6.64,5.48,5.48,0,0,1,7.28,7c.22,0,.57-.09.91-.08s.9.26,1.27.28.92-.08,1.22-.07c.6,0,1.13.16,1.81.18.15,0,.23-.1.45-.09s.38,0,.45.13c.45,0,2.8,0,3.25,0a6.42,6.42,0,0,1,1.21.16c.9,0,1.07-.41,1.1-1.21,0-1.09-.15-1.86-.1-3.29C18.93.83,17.78,1.43,17.8.79,17.82.33,20.22,0,21,0c.45,0,.73.71,1.17,1,.66.48,1.8.41,1.76,1.43s-1.16.68-1.21,1.89c-.06,1.77-.5,3.15,1,3.21,1.29,0,2.65,0,3.9-.08,1.74.07,1.56-.2,2.3-.81.61-.09.74-.58,1.17-1,.27,0,.9.34.89.49.32.5,2.33,2.36,2.31,2.92s-.18.6-.63.58a1.75,1.75,0,0,1-1.12-.3c-.34,0-2.16,0-2.5,0a9.43,9.43,0,0,1-1.92-.19c-.11,0-1,.08-1.14.07-.75,0-4.29-.28-4.32.44l-.13,3.25a14.27,14.27,0,0,1,.17,3.41,5.5,5.5,0,0,1-.8,3.07,6.63,6.63,0,0,1-1.63,1.07c-.6.05-1.34-.43-1.32-1,.07-1.89.21-7.48,0-7.41-.9,0-1.83,1.4-2.49,1.94-.73.32-.68,1.07-1.33,1.24L13,16.74a9.7,9.7,0,0,0-1.94,1.06c-.62.43-1.31.63-1.85,1.07a9.41,9.41,0,0,1-2.1,1.43c-.45,0-.77.35-1.18.25-.11,0-.47.44-.58.44-.35.21-.69.2-1,.41-.38,0-1.29,1-1.85,1-.83-.15-1.12.63-1.73.61A.86.86,0,0,1,0,22.14C.13,21.62.81,21.64,1.28,21.43Zm7.51-3.75a.28.28,0,0,0-.15.18h0c.15,0,.15,0,.16-.14A0,0,0,0,0,8.79,17.68Zm.59,17a38.16,38.16,0,0,0,.86-6.44c0-1.43-.07-2.12,0-3.29a14.43,14.43,0,0,0-.38-3.79C9.78,20.51,11.2,20,11.69,20c.64,0,2,1.32,2.29,1.45a30.28,30.28,0,0,1,4-.22,1,1,0,0,0,.68.17,14.5,14.5,0,0,1,2.88-.11c.61-.2,2-.11,2.28-.29,1.05.12,1.63-1.34,2.66-1.49A7.08,7.08,0,0,1,28.93,21a13.82,13.82,0,0,1,1.75,1.66c.07,1.06-.61,1.07-.74,1.71A7.65,7.65,0,0,0,29.76,26c-.06,1.36.08,3.71,0,4.47.16,1.67-1,2.76-2.18,3.65-.45,0-.78.54-1.72.51-1.18-1-.14-2.28-1.36-3h-.11c-.23,0-2.54.13-2.77.12a20.94,20.94,0,0,0-3.71.08l-3.32-.13a5.6,5.6,0,0,0-.61.09c-1.25,1.2-1.32,2.9-2.94,3.75a9.38,9.38,0,0,1-.92.41c-.69.13-.81-.78-.79-1.16Zm4.29-7.21c-.13,3.32,1.78,1.88,2.84,2.72a7.6,7.6,0,0,0,2-.15c2.3.09,4.15,0,6.57.14.52-.77.41-1.8.45-3l.13-.3a3,3,0,0,0-.1-.46l.11-2.71c0-1.06-1.59-1-2.72-1a7.38,7.38,0,0,0-1.82,0l-2.26-.09c-.08,0-.31.14-.46.13a34,34,0,0,0-4.7.28c0,.07-.11.9-.11,1-.05,1.13,0,2.07-.05,3.21Zm1.58-15.33c.15,0,.22,0,.23-.06h-.23ZM20.5,30.68s0,.12.07.12.08-.07.08-.11,0-.12-.07-.12S20.51,30.61,20.5,30.68ZM21.92,8.77c0,.08,0,.11.11.12s0,0,0-.11,0-.12,0-.12S21.92,8.7,21.92,8.77Zm3.17,3c0-.31.17-1.51.51-1.5l.22.16c.11.08.42.93.53,1-.41-.17,1.19,1.41,1.74,2l.77.56c.45,0,1.25.88,1.88,1.21.11,0,1,.49,1.12.49.71.22,2.39.78,3.58,1.2.15,0,3.1,0,4.28.85,0,.37-1.66.69-2.38.89-.15,0-.93.49-1.08.49-1.47-.06-2.36,2.4-3.61,2.35s-1.1-.72-1.88-1.21a4.69,4.69,0,0,1-1.44-.88c-.73-.71-1.42-1.38-2.07-2.12-.38-.85-1.1-.95-1.07-1.78a7.66,7.66,0,0,1-1.11-3.45Zm9.15,7.87s0,.12.11.12,0-.07,0-.11,0-.11,0-.11S34.24,19.57,34.24,19.64Z"/></g></g></svg>